<svg version="1.1" viewBox="0.0 0.0 456.36482939632543 230.90813648293963" fill="none" stroke="none" stroke-linecap="square" stroke-miterlimit="10" xmlns:xlink="http://www.w3.org/1999/xlink" xmlns="http://www.w3.org/2000/svg"><clipPath id="p.0"><path d="m0 0l456.36484 0l0 230.90814l-456.36484 0l0 -230.90814z" clip-rule="nonzero"/></clipPath><g clip-path="url(#p.0)"><path fill="#000000" fill-opacity="0.0" d="m0 0l456.36484 0l0 230.90814l-456.36484 0z" fill-rule="evenodd"/><path fill="#000000" fill-opacity="0.0" d="m9.363517 130.95801l0 0c0 -45.182983 37.558727 -81.81103 83.88976 -81.81103l0 0c22.248947 0 43.58664 8.61935 59.319016 23.961899c15.732391 15.342537 24.570755 36.151497 24.570755 57.84913l0 0c0 45.182983 -37.55873 81.81102 -83.88977 81.81102l0 0c-46.331036 0 -83.88976 -36.628036 -83.88976 -81.81102z" fill-rule="evenodd"/><path stroke="#595959" stroke-width="2.0" stroke-linejoin="round" stroke-linecap="butt" d="m9.363517 130.95801l0 0c0 -45.182983 37.558727 -81.81103 83.88976 -81.81103l0 0c22.248947 0 43.58664 8.61935 59.319016 23.961899c15.732391 15.342537 24.570755 36.151497 24.570755 57.84913l0 0c0 45.182983 -37.55873 81.81102 -83.88977 81.81102l0 0c-46.331036 0 -83.88976 -36.628036 -83.88976 -81.81102z" fill-rule="evenodd"/><path fill="#0097a7" d="m251.5748 142.23622l0 0c0 -2.1482544 1.240921 -3.8897705 2.7716522 -3.8897705l0 0c0.73509216 0 1.4400787 0.40982056 1.9598541 1.1392975c0.5198059 0.72946167 0.8117981 1.7188416 0.8117981 2.750473l0 0c0 2.1482544 -1.2409058 3.8897705 -2.7716522 3.8897705l0 0c-1.5307312 0 -2.7716522 -1.7415161 -2.7716522 -3.8897705z" fill-rule="evenodd"/><path stroke="#595959" stroke-width="1.0" stroke-linejoin="round" stroke-linecap="butt" d="m251.5748 142.23622l0 0c0 -2.1482544 1.240921 -3.8897705 2.7716522 -3.8897705l0 0c0.73509216 0 1.4400787 0.40982056 1.9598541 1.1392975c0.5198059 0.72946167 0.8117981 1.7188416 0.8117981 2.750473l0 0c0 2.1482544 -1.2409058 3.8897705 -2.7716522 3.8897705l0 0c-1.5307312 0 -2.7716522 -1.7415161 -2.7716522 -3.8897705z" fill-rule="evenodd"/><path fill="#0097a7" d="m267.5748 142.23622l0 0c0 -2.1482544 1.2409058 -3.8897705 2.7716675 -3.8897705l0 0c0.7350769 0 1.4400635 0.40982056 1.9598389 1.1392975c0.5198059 0.72946167 0.8117981 1.7188416 0.8117981 2.750473l0 0c0 2.1482544 -1.2409058 3.8897705 -2.771637 3.8897705l0 0c-1.5307617 0 -2.7716675 -1.7415161 -2.7716675 -3.8897705z" fill-rule="evenodd"/><path stroke="#595959" stroke-width="1.0" stroke-linejoin="round" stroke-linecap="butt" d="m267.5748 142.23622l0 0c0 -2.1482544 1.2409058 -3.8897705 2.7716675 -3.8897705l0 0c0.7350769 0 1.4400635 0.40982056 1.9598389 1.1392975c0.5198059 0.72946167 0.8117981 1.7188416 0.8117981 2.750473l0 0c0 2.1482544 -1.2409058 3.8897705 -2.771637 3.8897705l0 0c-1.5307617 0 -2.7716675 -1.7415161 -2.7716675 -3.8897705z" fill-rule="evenodd"/><path fill="#0097a7" d="m259.58792 150.01575l0 0c0 -2.1482544 1.2409058 -3.8897552 2.7716675 -3.8897552l0 0c0.7350769 0 1.4400635 0.4098053 1.9598389 1.1392822c0.5198059 0.72946167 0.8117981 1.7188416 0.8117981 2.750473l0 0c0 2.1482544 -1.2409058 3.8897705 -2.771637 3.8897705l0 0c-1.5307617 0 -2.7716675 -1.7415161 -2.7716675 -3.8897705z" fill-rule="evenodd"/><path stroke="#595959" stroke-width="1.0" stroke-linejoin="round" stroke-linecap="butt" d="m259.58792 150.01575l0 0c0 -2.1482544 1.2409058 -3.8897552 2.7716675 -3.8897552l0 0c0.7350769 0 1.4400635 0.4098053 1.9598389 1.1392822c0.5198059 0.72946167 0.8117981 1.7188416 0.8117981 2.750473l0 0c0 2.1482544 -1.2409058 3.8897705 -2.771637 3.8897705l0 0c-1.5307617 0 -2.7716675 -1.7415161 -2.7716675 -3.8897705z" fill-rule="evenodd"/><path fill="#cc0000" d="m259.58792 130.95801l0 0c0 -2.1482544 1.2409058 -3.8897629 2.7716675 -3.8897629l0 0c0.7350769 0 1.4400635 0.40981293 1.9598389 1.1392746c0.5198059 0.7294769 0.8117981 1.7188568 0.8117981 2.7504883l0 0c0 2.1482544 -1.2409058 3.8897552 -2.771637 3.8897552l0 0c-1.5307617 0 -2.7716675 -1.7415009 -2.7716675 -3.8897552z" fill-rule="evenodd"/><path stroke="#595959" stroke-width="1.0" stroke-linejoin="round" stroke-linecap="butt" d="m259.58792 130.95801l0 0c0 -2.1482544 1.2409058 -3.8897629 2.7716675 -3.8897629l0 0c0.7350769 0 1.4400635 0.40981293 1.9598389 1.1392746c0.5198059 0.7294769 0.8117981 1.7188568 0.8117981 2.7504883l0 0c0 2.1482544 -1.2409058 3.8897552 -2.771637 3.8897552l0 0c-1.5307617 0 -2.7716675 -1.7415009 -2.7716675 -3.8897552z" fill-rule="evenodd"/><path fill="#666666" d="m251.5748 119.67979l0 0c0 -2.1482544 1.240921 -3.8897629 2.7716522 -3.8897629l0 0c0.73509216 0 1.4400787 0.40981293 1.9598541 1.1392899c0.5198059 0.7294693 0.8117981 1.7188492 0.8117981 2.750473l0 0c0 2.148262 -1.2409058 3.8897705 -2.7716522 3.8897705l0 0c-1.5307312 0 -2.7716522 -1.7415085 -2.7716522 -3.8897705z" fill-rule="evenodd"/><path stroke="#666666" stroke-width="1.0" stroke-linejoin="round" stroke-linecap="butt" d="m251.5748 119.67979l0 0c0 -2.1482544 1.240921 -3.8897629 2.7716522 -3.8897629l0 0c0.73509216 0 1.4400787 0.40981293 1.9598541 1.1392899c0.5198059 0.7294693 0.8117981 1.7188492 0.8117981 2.750473l0 0c0 2.148262 -1.2409058 3.8897705 -2.7716522 3.8897705l0 0c-1.5307312 0 -2.7716522 -1.7415085 -2.7716522 -3.8897705z" fill-rule="evenodd"/><path fill="#666666" d="m259.58792 111.90026l0 0c0 -2.1482544 1.2409058 -3.8897629 2.7716675 -3.8897629l0 0c0.7350769 0 1.4400635 0.40981293 1.9598389 1.1392899c0.5198059 0.7294693 0.8117981 1.7188416 0.8117981 2.750473l0 0c0 2.148262 -1.2409058 3.8897629 -2.771637 3.8897629l0 0c-1.5307617 0 -2.7716675 -1.7415009 -2.7716675 -3.8897629z" fill-rule="evenodd"/><path stroke="#595959" stroke-width="1.0" stroke-linejoin="round" stroke-linecap="butt" d="m259.58792 111.90026l0 0c0 -2.1482544 1.2409058 -3.8897629 2.7716675 -3.8897629l0 0c0.7350769 0 1.4400635 0.40981293 1.9598389 1.1392899c0.5198059 0.7294693 0.8117981 1.7188416 0.8117981 2.750473l0 0c0 2.148262 -1.2409058 3.8897629 -2.771637 3.8897629l0 0c-1.5307617 0 -2.7716675 -1.7415009 -2.7716675 -3.8897629z" fill-rule="evenodd"/><path fill="#666666" d="m267.5748 123.178474l0 0c0 -2.1482544 1.2409058 -3.8897629 2.7716675 -3.8897629l0 0c0.7350769 0 1.4400635 0.40981293 1.9598389 1.1392899c0.5198059 0.7294693 0.8117981 1.7188492 0.8117981 2.750473l0 0c0 2.148262 -1.2409058 3.8897705 -2.771637 3.8897705l0 0c-1.5307617 0 -2.7716675 -1.7415085 -2.7716675 -3.8897705z" fill-rule="evenodd"/><path stroke="#666666" stroke-width="1.0" stroke-linejoin="round" stroke-linecap="butt" d="m267.5748 123.178474l0 0c0 -2.1482544 1.2409058 -3.8897629 2.7716675 -3.8897629l0 0c0.7350769 0 1.4400635 0.40981293 1.9598389 1.1392899c0.5198059 0.7294693 0.8117981 1.7188492 0.8117981 2.750473l0 0c0 2.148262 -1.2409058 3.8897705 -2.771637 3.8897705l0 0c-1.5307617 0 -2.7716675 -1.7415085 -2.7716675 -3.8897705z" fill-rule="evenodd"/><path fill="#000000" fill-opacity="0.0" d="m209.13124 130.95801l0 0c0 -28.840576 23.831131 -52.220474 53.228348 -52.220474l0 0c14.117035 0 27.655853 5.5017853 37.638123 15.295021c9.982239 9.793236 15.59021 23.075722 15.59021 36.925453l0 0c0 28.84056 -23.831146 52.220474 -53.228333 52.220474l0 0c-29.397217 0 -53.228348 -23.379913 -53.228348 -52.220474z" fill-rule="evenodd"/><path stroke="#595959" stroke-width="2.0" stroke-linejoin="round" stroke-linecap="butt" d="m209.13124 130.95801l0 0c0 -28.840576 23.831131 -52.220474 53.228348 -52.220474l0 0c14.117035 0 27.655853 5.5017853 37.638123 15.295021c9.982239 9.793236 15.59021 23.075722 15.59021 36.925453l0 0c0 28.84056 -23.831146 52.220474 -53.228333 52.220474l0 0c-29.397217 0 -53.228348 -23.379913 -53.228348 -52.220474z" fill-rule="evenodd"/><path fill="#000000" fill-opacity="0.0" d="m244.80052 119.67979l0 0c0 -9.401886 7.8614655 -17.02362 17.559067 -17.02362l0 0c4.656952 0 9.123169 1.7935562 12.416107 4.986107c3.2929688 3.1925507 5.1429443 7.5225754 5.1429443 12.037514l0 0c0 9.401894 -7.86145 17.023628 -17.559052 17.023628l0 0c-9.697601 0 -17.559067 -7.6217346 -17.559067 -17.023628z" fill-rule="evenodd"/><path stroke="#595959" stroke-width="1.0" stroke-linejoin="round" stroke-linecap="butt" d="m244.80052 119.67979l0 0c0 -9.401886 7.8614655 -17.02362 17.559067 -17.02362l0 0c4.656952 0 9.123169 1.7935562 12.416107 4.986107c3.2929688 3.1925507 5.1429443 7.5225754 5.1429443 12.037514l0 0c0 9.401894 -7.86145 17.023628 -17.559052 17.023628l0 0c-9.697601 0 -17.559067 -7.6217346 -17.559067 -17.023628z" fill-rule="evenodd"/><path fill="#000000" fill-opacity="0.0" d="m244.80052 142.23622l0 0c0 -10.810867 7.8614655 -19.574806 17.559067 -19.574806l0 0c4.656952 0 9.123169 2.0623398 12.416107 5.73333c3.2929688 3.67099 5.1429443 8.649918 5.1429443 13.841476l0 0c0 10.810867 -7.86145 19.574799 -17.559052 19.574799l0 0c-9.697601 0 -17.559067 -8.763931 -17.559067 -19.574799z" fill-rule="evenodd"/><path stroke="#595959" stroke-width="1.0" stroke-linejoin="round" stroke-linecap="butt" d="m244.80052 142.23622l0 0c0 -10.810867 7.8614655 -19.574806 17.559067 -19.574806l0 0c4.656952 0 9.123169 2.0623398 12.416107 5.73333c3.2929688 3.67099 5.1429443 8.649918 5.1429443 13.841476l0 0c0 10.810867 -7.86145 19.574799 -17.559052 19.574799l0 0c-9.697601 0 -17.559067 -8.763931 -17.559067 -19.574799z" fill-rule="evenodd"/><path fill="#000000" fill-opacity="0.0" d="m93.02362 130.95801l0 0c0 -10.810867 7.861458 -19.574806 17.55906 -19.574806l0 0c4.656952 0 9.123161 2.0623398 12.416122 5.73333c3.2929611 3.6709824 5.1429367 8.64991 5.1429367 13.841476l0 0c0 10.810867 -7.8614655 19.574799 -17.55906 19.574799l0 0c-9.697601 0 -17.55906 -8.763931 -17.55906 -19.574799z" fill-rule="evenodd"/><path stroke="#595959" stroke-width="1.0" stroke-linejoin="round" stroke-linecap="butt" stroke-dasharray="4.0,3.0" d="m93.02362 130.95801l0 0c0 -10.810867 7.861458 -19.574806 17.55906 -19.574806l0 0c4.656952 0 9.123161 2.0623398 12.416122 5.73333c3.2929611 3.6709824 5.1429367 8.64991 5.1429367 13.841476l0 0c0 10.810867 -7.8614655 19.574799 -17.55906 19.574799l0 0c-9.697601 0 -17.55906 -8.763931 -17.55906 -19.574799z" fill-rule="evenodd"/><path fill="#999999" d="m101.1601 130.95801l0 0c0 -2.1482544 1.2409134 -3.8897629 2.7716522 -3.8897629l0 0c0.73509216 0 1.4400711 0.40981293 1.9598618 1.1392746c0.519783 0.7294769 0.8117981 1.7188568 0.8117981 2.7504883l0 0c0 2.1482544 -1.2409134 3.8897552 -2.7716599 3.8897552l0 0c-1.5307388 0 -2.7716522 -1.7415009 -2.7716522 -3.8897552z" fill-rule="evenodd"/><path stroke="#666666" stroke-width="1.0" stroke-linejoin="round" stroke-linecap="butt" d="m101.1601 130.95801l0 0c0 -2.1482544 1.2409134 -3.8897629 2.7716522 -3.8897629l0 0c0.73509216 0 1.4400711 0.40981293 1.9598618 1.1392746c0.519783 0.7294769 0.8117981 1.7188568 0.8117981 2.7504883l0 0c0 2.1482544 -1.2409134 3.8897552 -2.7716599 3.8897552l0 0c-1.5307388 0 -2.7716522 -1.7415009 -2.7716522 -3.8897552z" fill-rule="evenodd"/><path fill="#999999" d="m114.937004 130.95801l0 0c0 -2.1482544 1.2409134 -3.8897629 2.7716599 -3.8897629l0 0c0.73508453 0 1.4400635 0.40981293 1.9598541 1.1392746c0.519783 0.7294769 0.8117981 1.7188568 0.8117981 2.7504883l0 0c0 2.1482544 -1.2409134 3.8897552 -2.7716522 3.8897552l0 0c-1.5307465 0 -2.7716599 -1.7415009 -2.7716599 -3.8897552z" fill-rule="evenodd"/><path stroke="#595959" stroke-width="1.0" stroke-linejoin="round" stroke-linecap="butt" d="m114.937004 130.95801l0 0c0 -2.1482544 1.2409134 -3.8897629 2.7716599 -3.8897629l0 0c0.73508453 0 1.4400635 0.40981293 1.9598541 1.1392746c0.519783 0.7294769 0.8117981 1.7188568 0.8117981 2.7504883l0 0c0 2.1482544 -1.2409134 3.8897552 -2.7716522 3.8897552l0 0c-1.5307465 0 -2.7716599 -1.7415009 -2.7716599 -3.8897552z" fill-rule="evenodd"/><path fill="#999999" d="m107.81102 142.23622l0 0c0 -2.1482544 1.2409134 -3.8897705 2.7716599 -3.8897705l0 0c0.73508453 0 1.4400635 0.40982056 1.9598541 1.1392975c0.519783 0.72946167 0.8117981 1.7188416 0.8117981 2.750473l0 0c0 2.1482544 -1.2409134 3.8897705 -2.7716522 3.8897705l0 0c-1.5307465 0 -2.7716599 -1.7415161 -2.7716599 -3.8897705z" fill-rule="evenodd"/><path stroke="#595959" stroke-width="1.0" stroke-linejoin="round" stroke-linecap="butt" d="m107.81102 142.23622l0 0c0 -2.1482544 1.2409134 -3.8897705 2.7716599 -3.8897705l0 0c0.73508453 0 1.4400635 0.40982056 1.9598541 1.1392975c0.519783 0.72946167 0.8117981 1.7188416 0.8117981 2.750473l0 0c0 2.1482544 -1.2409134 3.8897705 -2.7716522 3.8897705l0 0c-1.5307465 0 -2.7716599 -1.7415161 -2.7716599 -3.8897705z" fill-rule="evenodd"/><path fill="#000000" fill-opacity="0.0" d="m249.94345 156.0777c0 15.366653 -31.732285 32.14276 -63.46457 30.733307c-31.732285 -1.4094391 -63.46456 -21.00444 -63.46456 -42.008896" fill-rule="evenodd"/><path stroke="#0097a7" stroke-width="2.0" stroke-linejoin="round" stroke-linecap="butt" d="m249.94345 156.0777c0 15.366653 -31.732285 32.14276 -63.46457 30.733307c-31.732285 -1.4094391 -63.46456 -21.00444 -63.46456 -42.008896" fill-rule="evenodd"/><path fill="#000000" fill-opacity="0.0" d="m170.23885 176.51181l46.67717 0l0 25.448822l-46.67717 0z" fill-rule="evenodd"/><path fill="#0097a7" d="m184.3326 190.90556q1.28125 0 2.0 1.0q0.734375 1.0 0.734375 2.75q0 1.8125 -0.75 2.796875q-0.75 0.984375 -2.046875 0.984375q-1.28125 0 -2.0 -0.921875l-0.140625 0l-0.328125 0.796875l-1.515625 0l0 -10.125l1.984375 0l0 2.359375q0 0.4375 -0.078125 1.4375l0.078125 0q0.6875 -1.078125 2.0625 -1.078125zm-0.640625 1.578125q-0.734375 0 -1.078125 0.453125q-0.328125 0.453125 -0.34375 1.5l0 0.21875q0 1.15625 0.34375 1.671875q0.34375 0.5 1.109375 0.5q0.609375 0 0.96875 -0.5625q0.359375 -0.5625 0.359375 -1.625q0 -1.078125 -0.375 -1.609375q-0.359375 -0.546875 -0.984375 -0.546875zm9.074829 -1.578125q1.28125 0 2.0 1.0q0.734375 1.0 0.734375 2.75q0 1.8125 -0.75 2.796875q-0.75 0.984375 -2.046875 0.984375q-1.28125 0 -2.0 -0.921875l-0.140625 0l-0.328125 0.796875l-1.515625 0l0 -10.125l1.984375 0l0 2.359375q0 0.4375 -0.078125 1.4375l0.078125 0q0.6875 -1.078125 2.0625 -1.078125zm-0.640625 1.578125q-0.734375 0 -1.078125 0.453125q-0.328125 0.453125 -0.34375 1.5l0 0.21875q0 1.15625 0.34375 1.671875q0.34375 0.5 1.109375 0.5q0.609375 0 0.96875 -0.5625q0.359375 -0.5625 0.359375 -1.625q0 -1.078125 -0.375 -1.609375q-0.359375 -0.546875 -0.984375 -0.546875zm7.793579 -3.8125q1.375 0 2.203125 0.625q0.84375 0.625 0.84375 1.671875q0 0.734375 -0.40625 1.3125q-0.40625 0.5625 -1.3125 1.0q1.078125 0.578125 1.53125 1.203125q0.46875 0.625 0.46875 1.359375q0 1.171875 -0.921875 1.890625q-0.90625 0.703125 -2.40625 0.703125q-1.5625 0 -2.453125 -0.65625q-0.890625 -0.671875 -0.890625 -1.890625q0 -0.8125 0.421875 -1.4375q0.4375 -0.625 1.40625 -1.109375q-0.8125 -0.515625 -1.171875 -1.09375q-0.359375 -0.59375 -0.359375 -1.296875q0 -1.015625 0.84375 -1.640625q0.84375 -0.640625 2.203125 -0.640625zm-1.484375 7.109375q0 0.5625 0.390625 0.875q0.390625 0.3125 1.0625 0.3125q0.75 0 1.125 -0.3125q0.375 -0.328125 0.375 -0.859375q0 -0.4375 -0.375 -0.8125q-0.359375 -0.390625 -1.1875 -0.8125q-1.390625 0.640625 -1.390625 1.609375zm1.46875 -5.640625q-0.515625 0 -0.828125 0.265625q-0.3125 0.265625 -0.3125 0.703125q0 0.390625 0.25 0.703125q0.25 0.3125 0.90625 0.640625q0.640625 -0.296875 0.890625 -0.609375q0.25 -0.3125 0.25 -0.734375q0 -0.4375 -0.328125 -0.703125q-0.3125 -0.265625 -0.828125 -0.265625z" fill-rule="nonzero"/><path fill="#000000" fill-opacity="0.0" d="m32.577427 8.267004l142.70866 0l0 31.338583l-142.70866 0z" fill-rule="evenodd"/><path fill="#999999" d="m47.327427 33.15575q0.734375 0 1.75 -0.3125l0 2.0625q-1.046875 0.46875 -2.546875 0.46875q-1.671875 0 -2.4375 -0.84375q-0.75 -0.84375 -0.75 -2.531248l0 -4.90625l-1.34375 0l0 -1.1875l1.53125 -0.921875l0.8125 -2.15625l1.765625 0l0 2.171875l2.859375 0l0 2.09375l-2.859375 0l0 4.90625q0 0.5937481 0.328125 0.8749981q0.34375 0.28125 0.890625 0.28125zm10.270218 2.03125l-0.53125 -1.390625l-0.078125 0q-0.703125 0.890625 -1.453125 1.234375q-0.734375 0.34375 -1.921875 0.34375q-1.46875 0 -2.3125 -0.84375q-0.84375 -0.84375 -0.84375 -2.390625q0 -1.6249981 1.125 -2.390623q1.140625 -0.765625 3.4375 -0.84375l1.765625 -0.0625l0 -0.4375q0 -1.546875 -1.59375 -1.546875q-1.21875 0 -2.859375 0.734375l-0.921875 -1.875q1.75 -0.921875 3.890625 -0.921875q2.046875 0 3.140625 0.890625q1.09375 0.890625 1.09375 2.71875l0 6.781248l-1.9375 0zm-0.8125 -4.718748l-1.078125 0.03125q-1.21875 0.046875 -1.8125 0.453125q-0.578125 0.390625 -0.578125 1.2031231q0 1.1875 1.34375 1.1875q0.96875 0 1.546875 -0.546875q0.578125 -0.5625 0.578125 -1.4843731l0 -0.84375zm11.299702 -5.65625q0.5625 0 0.9375 0.078125l-0.203125 2.609375q-0.34375 -0.09375 -0.828125 -0.09375q-1.328125 0 -2.078125 0.6875q-0.734375 0.6875 -0.734375 1.90625l0 5.187498l-2.7812538 0l0 -10.187498l2.1093788 0l0.40625 1.71875l0.140625 0q0.46875 -0.859375 1.265625 -1.375q0.8125 -0.53125 1.765625 -0.53125zm11.659332 0.1875l0 1.421875l-1.59375 0.40625q0.4375 0.6875 0.4375 1.53125q0 1.640625 -1.15625 2.5625q-1.140625 0.90625 -3.171875 0.90625l-0.5 -0.03125l-0.40625 -0.046875q-0.4375 0.3281231 -0.4375 0.7343731q0 0.59375 1.53125 0.59375l1.734375 0q1.671875 0 2.546875 0.71875q0.890625 0.71875 0.890625 2.125q0 1.78125 -1.5 2.765625q-1.484375 0.984375 -4.265625 0.984375q-2.125 0 -3.265625 -0.75q-1.125 -0.734375 -1.125 -2.078125q0 -0.921875 0.578125 -1.546875q0.578125 -0.609375 1.6875 -0.875q-0.421875 -0.1875 -0.75 -0.59375q-0.3125 -0.421875 -0.3125 -0.875q0 -0.59375 0.328125 -0.9687481q0.34375 -0.390625 0.984375 -0.765625q-0.796875 -0.34375 -1.28125 -1.109375q-0.46875 -0.765625 -0.46875 -1.8125q0 -1.65625 1.078125 -2.5625q1.09375 -0.921875 3.109375 -0.921875q0.421875 0 1.015625 0.078125q0.59375 0.078125 0.75 0.109375l3.5625 0zm-7.875 11.624998q0 0.578125 0.546875 0.90625q0.5625 0.328125 1.5625 0.328125q1.484375 0 2.328125 -0.421875q0.859375 -0.40625 0.859375 -1.109375q0 -0.578125 -0.515625 -0.796875q-0.5 -0.21875 -1.546875 -0.21875l-1.4375 0q-0.765625 0 -1.28125 0.359375q-0.515625 0.359375 -0.515625 0.953125zm1.015625 -8.281248q0 0.828125 0.375 1.3125q0.390625 0.46875 1.15625 0.46875q0.78125 0 1.140625 -0.46875q0.375 -0.484375 0.375 -1.3125q0 -1.84375 -1.515625 -1.84375q-1.53125 0 -1.53125 1.84375zm12.742813 -1.5625q-0.875 0 -1.375 0.5625q-0.5 0.5625 -0.578125 1.59375l3.890625 0q-0.015625 -1.03125 -0.53125 -1.59375q-0.515625 -0.5625 -1.40625 -0.5625zm0.390625 8.593748q-2.453125 0 -3.84375 -1.359375q-1.375 -1.359375 -1.375 -3.843748q0 -2.5625 1.265625 -3.953125q1.28125 -1.40625 3.546875 -1.40625q2.15625 0 3.359375 1.234375q1.203125 1.21875 1.203125 3.390625l0 1.34375l-6.5625 0q0.046875 1.1875 0.703125 1.8593731q0.65625 0.65625 1.828125 0.65625q0.921875 0 1.734375 -0.1875q0.828125 -0.1875 1.71875 -0.609375l0 2.15625q-0.71875 0.359375 -1.546875 0.53125q-0.828125 0.1875 -2.03125 0.1875zm10.709991 -2.21875q0.734375 0 1.75 -0.3125l0 2.0625q-1.046875 0.46875 -2.546875 0.46875q-1.671875 0 -2.4375 -0.84375q-0.75 -0.84375 -0.75 -2.531248l0 -4.90625l-1.34375 0l0 -1.1875l1.53125 -0.921875l0.8125 -2.15625l1.765625 0l0 2.171875l2.859375 0l0 2.09375l-2.859375 0l0 4.90625q0 0.5937481 0.328125 0.8749981q0.34375 0.28125 0.890625 0.28125zm12.86647 -6.374998q-0.875 0 -1.375 0.5625q-0.5 0.5625 -0.578125 1.59375l3.890625 0q-0.015625 -1.03125 -0.53125 -1.59375q-0.515625 -0.5625 -1.40625 -0.5625zm0.390625 8.593748q-2.453125 0 -3.84375 -1.359375q-1.375 -1.359375 -1.375 -3.843748q0 -2.5625 1.265625 -3.953125q1.28125 -1.40625 3.546875 -1.40625q2.15625 0 3.359375 1.234375q1.203125 1.21875 1.203125 3.390625l0 1.34375l-6.5625 0q0.046875 1.1875 0.703125 1.8593731q0.65625 0.65625 1.828125 0.65625q0.921875 0 1.734375 -0.1875q0.828125 -0.1875 1.71875 -0.609375l0 2.15625q-0.71875 0.359375 -1.546875 0.53125q-0.828125 0.1875 -2.03125 0.1875zm8.506866 -5.390623l-3.28125 -4.984375l3.15625 0l1.96875 3.25l2.0 -3.25l3.15625 0l-3.328125 4.984375l3.46875 5.203123l-3.15625 0l-2.140625 -3.484373l-2.140625 3.484373l-3.15625 0l3.453125 -5.203123zm14.285637 5.390623q-1.796875 0 -2.8125 -1.3125l-0.140625 0q0.140625 1.28125 0.140625 1.484375l0 4.125l-2.7812424 0l0 -14.671873l2.2656174 0l0.390625 1.328125l0.125 0q0.96875 -1.515625 2.890625 -1.515625q1.796875 0 2.8125 1.390625q1.03125 1.390625 1.03125 3.875q0 1.625 -0.484375 2.828123q-0.46875 1.203125 -1.359375 1.84375q-0.875 0.625 -2.078125 0.625zm-0.8125 -8.343748q-1.03125 0 -1.515625 0.640625q-0.46875 0.625 -0.484375 2.09375l0 0.296875q0 1.640625 0.484375 2.359373q0.484375 0.703125 1.546875 0.703125q1.875 0 1.875 -3.078123q0 -1.515625 -0.46875 -2.265625q-0.453125 -0.75 -1.4375 -0.75zm6.634033 6.859373q0 -0.765625 0.40625 -1.15625q0.421875 -0.390625 1.203125 -0.390625q0.75 0 1.15625 0.40625q0.421875 0.390625 0.421875 1.140625q0 0.71875 -0.421875 1.140625q-0.40625 0.40625 -1.15625 0.40625q-0.765625 0 -1.1875 -0.40625q-0.421875 -0.40625 -0.421875 -1.140625z" fill-rule="nonzero"/><path fill="#000000" fill-opacity="0.0" d="m198.99213 35.396923l142.70865 0l0 31.338581l-142.70865 0z" fill-rule="evenodd"/><path fill="#999999" d="m215.13275 51.94192q0.5625 0 0.9375 0.078125l-0.203125 2.609375q-0.34375 -0.09375 -0.828125 -0.09375q-1.328125 0 -2.078125 0.6875q-0.734375 0.6875 -0.734375 1.90625l0 5.1875l-2.78125 0l0 -10.1875l2.109375 0l0.40625 1.71875l0.140625 0q0.46875 -0.859375 1.265625 -1.375q0.8125 -0.53125 1.765625 -0.53125zm7.0030823 1.96875q-0.875 0 -1.375 0.5625q-0.5 0.5625 -0.578125 1.59375l3.890625 0q-0.015625 -1.03125 -0.53125 -1.59375q-0.515625 -0.5625 -1.40625 -0.5625zm0.390625 8.59375q-2.453125 0 -3.84375 -1.359375q-1.375 -1.359375 -1.375 -3.84375q0 -2.5625 1.265625 -3.953125q1.28125 -1.40625 3.546875 -1.40625q2.15625 0 3.359375 1.234375q1.203125 1.21875 1.203125 3.390625l0 1.34375l-6.5625 0q0.046875 1.1875 0.703125 1.859375q0.65625 0.65625 1.828125 0.65625q0.921875 0 1.734375 -0.1875q0.828125 -0.1875 1.71875 -0.609375l0 2.15625q-0.71875 0.359375 -1.546875 0.53125q-0.828125 0.1875 -2.03125 0.1875zm12.084991 -10.5625q1.796875 0 2.8125 1.40625q1.03125 1.40625 1.03125 3.859375q0 2.515625 -1.0625 3.90625q-1.046875 1.390625 -2.859375 1.390625q-1.796875 0 -2.8125 -1.3125l-0.1875 0l-0.46875 1.125l-2.125 0l0 -14.171875l2.78125 0l0 3.296875q0 0.625 -0.109375 2.015625l0.109375 0q0.96875 -1.515625 2.890625 -1.515625zm-0.890625 2.21875q-1.03125 0 -1.515625 0.640625q-0.46875 0.625 -0.484375 2.09375l0 0.296875q0 1.640625 0.484375 2.359375q0.484375 0.703125 1.546875 0.703125q0.859375 0 1.359375 -0.78125q0.515625 -0.796875 0.515625 -2.296875q0 -1.515625 -0.515625 -2.265625q-0.515625 -0.75 -1.390625 -0.75zm13.493408 8.15625l-0.53125 -1.390625l-0.078125 0q-0.703125 0.890625 -1.453125 1.234375q-0.734375 0.34375 -1.921875 0.34375q-1.46875 0 -2.3125 -0.84375q-0.84375 -0.84375 -0.84375 -2.390625q0 -1.625 1.125 -2.390625q1.140625 -0.765625 3.4375 -0.84375l1.765625 -0.0625l0 -0.4375q0 -1.546875 -1.59375 -1.546875q-1.21875 0 -2.859375 0.734375l-0.921875 -1.875q1.75 -0.921875 3.890625 -0.921875q2.046875 0 3.140625 0.890625q1.09375 0.890625 1.09375 2.71875l0 6.78125l-1.9375 0zm-0.8125 -4.71875l-1.078125 0.03125q-1.21875 0.046875 -1.8125 0.453125q-0.578125 0.390625 -0.578125 1.203125q0 1.1875 1.34375 1.1875q0.96875 0 1.546875 -0.546875q0.578125 -0.5625 0.578125 -1.484375l0 -0.84375zm8.393448 4.71875l-2.78125 0l0 -14.171875l2.78125 0l0 14.171875zm9.380936 0l-0.53125 -1.390625l-0.078125 0q-0.703125 0.890625 -1.453125 1.234375q-0.734375 0.34375 -1.921875 0.34375q-1.46875 0 -2.3125 -0.84375q-0.84375 -0.84375 -0.84375 -2.390625q0 -1.625 1.125 -2.390625q1.140625 -0.765625 3.4375 -0.84375l1.765625 -0.0625l0 -0.4375q0 -1.546875 -1.59375 -1.546875q-1.21875 0 -2.859375 0.734375l-0.921875 -1.875q1.75 -0.921875 3.890625 -0.921875q2.046875 0 3.140625 0.890625q1.09375 0.890625 1.09375 2.71875l0 6.78125l-1.9375 0zm-0.8125 -4.71875l-1.078125 0.03125q-1.21875 0.046875 -1.8125 0.453125q-0.578125 0.390625 -0.578125 1.203125q0 1.1875 1.34375 1.1875q0.96875 0 1.546875 -0.546875q0.578125 -0.5625 0.578125 -1.484375l0 -0.84375zm15.018433 4.71875l-2.78125 0l0 -5.953125q0 -1.09375 -0.390625 -1.640625q-0.390625 -0.5625 -1.25 -0.5625q-1.15625 0 -1.6875 0.78125q-0.515625 0.78125 -0.515625 2.578125l0 4.796875l-2.78125 0l0 -10.1875l2.125 0l0.375 1.3125l0.15625 0q0.46875 -0.75 1.28125 -1.125q0.8125 -0.375 1.84375 -0.375q1.78125 0 2.703125 0.96875q0.921875 0.953125 0.921875 2.765625l0 6.640625zm6.995758 0.1875q-4.75 0 -4.75 -5.21875q0 -2.609375 1.28125 -3.96875q1.296875 -1.375 3.71875 -1.375q1.765625 0 3.171875 0.6875l-0.828125 2.15625q-0.65625 -0.265625 -1.21875 -0.4375q-0.5625 -0.171875 -1.125 -0.171875q-2.171875 0 -2.171875 3.078125q0 3.0 2.171875 3.0q0.796875 0 1.46875 -0.21875q0.6875 -0.21875 1.375 -0.671875l0 2.375q-0.671875 0.4375 -1.359375 0.59375q-0.6875 0.171875 -1.734375 0.171875zm9.670441 -8.59375q-0.875 0 -1.375 0.5625q-0.5 0.5625 -0.578125 1.59375l3.890625 0q-0.015625 -1.03125 -0.53125 -1.59375q-0.515625 -0.5625 -1.40625 -0.5625zm0.390625 8.59375q-2.453125 0 -3.84375 -1.359375q-1.375 -1.359375 -1.375 -3.84375q0 -2.5625 1.265625 -3.953125q1.28125 -1.40625 3.546875 -1.40625q2.15625 0 3.359375 1.234375q1.203125 1.21875 1.203125 3.390625l0 1.34375l-6.5625 0q0.046875 1.1875 0.703125 1.859375q0.65625 0.65625 1.828125 0.65625q0.921875 0 1.734375 -0.1875q0.828125 -0.1875 1.71875 -0.609375l0 2.15625q-0.71875 0.359375 -1.546875 0.53125q-0.828125 0.1875 -2.03125 0.1875zm9.647491 0q-1.796875 0 -2.828125 -1.390625q-1.015625 -1.40625 -1.015625 -3.875q0 -2.5 1.03125 -3.890625q1.046875 -1.40625 2.875 -1.40625q1.921875 0 2.9375 1.5l0.09375 0q-0.21875 -1.140625 -0.21875 -2.03125l0 -3.265625l2.796875 0l0 14.171875l-2.140625 0l-0.53125 -1.328125l-0.125 0q-0.9375 1.515625 -2.875 1.515625zm0.96875 -2.21875q1.0625 0 1.5625 -0.609375q0.5 -0.625 0.546875 -2.109375l0 -0.3125q0 -1.640625 -0.515625 -2.34375q-0.5 -0.703125 -1.640625 -0.703125q-0.921875 0 -1.4375 0.78125q-0.515625 0.78125 -0.515625 2.296875q0 1.5 0.515625 2.25q0.515625 0.75 1.484375 0.75z" fill-rule="nonzero"/><path fill="#999999" d="m215.13275 73.941925q0.5625 0 0.9375 0.078125l-0.203125 2.609375q-0.34375 -0.09375 -0.828125 -0.09375q-1.328125 0 -2.078125 0.6875q-0.734375 0.6875 -0.734375 1.90625l0 5.1875l-2.78125 0l0 -10.1875l2.109375 0l0.40625 1.71875l0.140625 0q0.46875 -0.859375 1.265625 -1.375q0.8125 -0.53125 1.765625 -0.53125zm9.893707 7.34375q0 1.578125 -1.09375 2.40625q-1.078125 0.8125 -3.25 0.8125q-1.109375 0 -1.890625 -0.15625q-0.78125 -0.15625 -1.46875 -0.4375l0 -2.296875q0.765625 0.359375 1.734375 0.609375q0.984375 0.25 1.71875 0.25q1.515625 0 1.515625 -0.875q0 -0.328125 -0.203125 -0.53125q-0.203125 -0.21875 -0.703125 -0.46875q-0.484375 -0.265625 -1.3125 -0.609375q-1.171875 -0.484375 -1.71875 -0.90625q-0.546875 -0.421875 -0.796875 -0.953125q-0.25 -0.546875 -0.25 -1.34375q0 -1.359375 1.046875 -2.09375q1.046875 -0.75 2.984375 -0.75q1.84375 0 3.578125 0.796875l-0.84375 2.015625q-0.765625 -0.328125 -1.4375 -0.53125q-0.65625 -0.21875 -1.34375 -0.21875q-1.234375 0 -1.234375 0.65625q0 0.375 0.390625 0.65625q0.40625 0.265625 1.75 0.8125q1.1875 0.46875 1.734375 0.890625q0.5625 0.421875 0.828125 0.96875q0.265625 0.546875 0.265625 1.296875zm6.382843 -5.375q-0.875 0 -1.375 0.5625q-0.5 0.5625 -0.578125 1.59375l3.890625 0q-0.015625 -1.03125 -0.53125 -1.59375q-0.515625 -0.5625 -1.40625 -0.5625zm0.390625 8.59375q-2.453125 0 -3.84375 -1.359375q-1.375 -1.359375 -1.375 -3.84375q0 -2.5625 1.265625 -3.953125q1.28125 -1.40625 3.546875 -1.40625q2.15625 0 3.359375 1.234375q1.203125 1.21875 1.203125 3.390625l0 1.34375l-6.5625 0q0.046875 1.1875 0.703125 1.859375q0.65625 0.65625 1.828125 0.65625q0.921875 0 1.734375 -0.1875q0.828125 -0.1875 1.71875 -0.609375l0 2.15625q-0.71875 0.359375 -1.546875 0.53125q-0.828125 0.1875 -2.03125 0.1875z" fill-rule="nonzero"/><path fill="#000000" fill-opacity="0.0" d="m293.5748 195.1811l186.4252 0l0 31.338577l-186.4252 0z" fill-rule="evenodd"/><path fill="#0097a7" d="m305.1998 213.32484q0 1.078125 0.34375 1.640625q0.359375 0.546875 1.15625 0.546875q0.796875 0 1.140625 -0.546875q0.359375 -0.546875 0.359375 -1.640625q0 -1.078125 -0.359375 -1.609375q-0.34375 -0.546875 -1.140625 -0.546875q-0.796875 0 -1.15625 0.546875q-0.34375 0.53125 -0.34375 1.609375zm5.03125 0q0 1.78125 -0.9375 2.78125q-0.9375 1.0 -2.609375 1.0q-1.046875 0 -1.859375 -0.453125q-0.796875 -0.453125 -1.234375 -1.3125q-0.421875 -0.859375 -0.421875 -2.015625q0 -1.78125 0.921875 -2.765625q0.9375 -0.984375 2.625 -0.984375q1.046875 0 1.84375 0.453125q0.8125 0.453125 1.234375 1.3125q0.4375 0.84375 0.4375 1.984375zm3.3613586 3.65625l-2.765625 -7.28125l2.078125 0l1.40625 4.15625q0.234375 0.78125 0.296875 1.484375l0.03125 0q0.03125 -0.625 0.296875 -1.484375l1.390625 -4.15625l2.078125 0l-2.765625 7.28125l-2.046875 0zm8.862946 -6.0q-0.625 0 -0.984375 0.40625q-0.359375 0.390625 -0.40625 1.125l2.78125 0q-0.015625 -0.734375 -0.390625 -1.125q-0.359375 -0.40625 -1.0 -0.40625zm0.28125 6.125q-1.75 0 -2.75 -0.96875q-0.984375 -0.96875 -0.984375 -2.734375q0 -1.84375 0.90625 -2.828125q0.921875 -1.0 2.546875 -1.0q1.53125 0 2.390625 0.875q0.859375 0.875 0.859375 2.421875l0 0.96875l-4.6875 0q0.03125 0.84375 0.5 1.328125q0.46875 0.46875 1.3125 0.46875q0.65625 0 1.234375 -0.140625q0.59375 -0.140625 1.234375 -0.4375l0 1.53125q-0.515625 0.265625 -1.109375 0.390625q-0.59375 0.125 -1.453125 0.125zm8.655762 -7.53125q0.390625 0 0.65625 0.046875l-0.140625 1.859375q-0.25 -0.0625 -0.59375 -0.0625q-0.9375 0 -1.46875 0.5q-0.53125 0.484375 -0.53125 1.359375l0 3.703125l-1.984375 0l0 -7.28125l1.5 0l0.296875 1.234375l0.09375 0q0.34375 -0.625 0.90625 -0.984375q0.578125 -0.375 1.265625 -0.375zm3.9742126 7.40625l-1.984375 0l0 -10.125l1.984375 0l0 10.125zm6.6924133 0l-0.375 -0.984375l-0.0625 0q-0.5 0.625 -1.03125 0.875q-0.53125 0.234375 -1.375 0.234375q-1.046875 0 -1.65625 -0.59375q-0.59375 -0.59375 -0.59375 -1.703125q0 -1.15625 0.8125 -1.703125q0.8125 -0.5625 2.4375 -0.609375l1.265625 -0.046875l0 -0.3125q0 -1.109375 -1.140625 -1.109375q-0.859375 0 -2.046875 0.53125l-0.65625 -1.34375q1.265625 -0.65625 2.78125 -0.65625q1.46875 0 2.25 0.640625q0.78125 0.625 0.78125 1.9375l0 4.84375l-1.390625 0zm-0.578125 -3.375l-0.765625 0.03125q-0.875 0.03125 -1.296875 0.3125q-0.421875 0.28125 -0.421875 0.875q0 0.828125 0.96875 0.828125q0.6875 0 1.09375 -0.390625q0.421875 -0.390625 0.421875 -1.046875l0 -0.609375zm8.003387 3.5q-1.28125 0 -2.0 -0.921875l-0.109375 0q0.109375 0.90625 0.109375 1.046875l0 2.953125l-1.984375 0l0 -10.484375l1.609375 0l0.28125 0.953125l0.09375 0q0.6875 -1.078125 2.0625 -1.078125q1.28125 0 2.0 1.0q0.734375 0.984375 0.734375 2.75q0 1.171875 -0.34375 2.03125q-0.328125 0.859375 -0.96875 1.3125q-0.625 0.4375 -1.484375 0.4375zm-0.578125 -5.953125q-0.734375 0 -1.078125 0.453125q-0.328125 0.453125 -0.34375 1.5l0 0.21875q0 1.15625 0.34375 1.671875q0.34375 0.5 1.109375 0.5q1.328125 0 1.328125 -2.1875q0 -1.078125 -0.328125 -1.609375q-0.328125 -0.546875 -1.03125 -0.546875zm9.012329 5.953125q-1.28125 0 -2.0 -0.921875l-0.109375 0q0.109375 0.90625 0.109375 1.046875l0 2.953125l-1.984375 0l0 -10.484375l1.609375 0l0.28125 0.953125l0.09375 0q0.6875 -1.078125 2.0625 -1.078125q1.28125 0 2.0 1.0q0.734375 0.984375 0.734375 2.75q0 1.171875 -0.34375 2.03125q-0.328125 0.859375 -0.96875 1.3125q-0.625 0.4375 -1.484375 0.4375zm-0.578125 -5.953125q-0.734375 0 -1.078125 0.453125q-0.328125 0.453125 -0.34375 1.5l0 0.21875q0 1.15625 0.34375 1.671875q0.34375 0.5 1.109375 0.5q1.328125 0 1.328125 -2.1875q0 -1.078125 -0.328125 -1.609375q-0.328125 -0.546875 -1.03125 -0.546875zm4.934204 -3.328125q0 -0.96875 1.078125 -0.96875q1.09375 0 1.09375 0.96875q0 0.46875 -0.28125 0.71875q-0.265625 0.25 -0.8125 0.25q-1.078125 0 -1.078125 -0.96875zm2.078125 9.15625l-1.984375 0l0 -7.28125l1.984375 0l0 7.28125zm8.786163 0l-1.984375 0l0 -4.25q0 -0.78125 -0.28125 -1.171875q-0.265625 -0.40625 -0.890625 -0.40625q-0.828125 0 -1.203125 0.5625q-0.359375 0.546875 -0.359375 1.84375l0 3.421875l-1.984375 0l0 -7.28125l1.515625 0l0.265625 0.9375l0.109375 0q0.328125 -0.53125 0.90625 -0.796875q0.59375 -0.265625 1.328125 -0.265625q1.265625 0 1.921875 0.6875q0.65625 0.671875 0.65625 1.96875l0 4.75zm8.384613 -7.28125l0 1.015625l-1.140625 0.296875q0.3125 0.484375 0.3125 1.09375q0 1.171875 -0.828125 1.828125q-0.8125 0.640625 -2.25 0.640625l-0.359375 -0.015625l-0.296875 -0.03125q-0.3125 0.234375 -0.3125 0.515625q0 0.4375 1.09375 0.4375l1.234375 0q1.203125 0 1.828125 0.515625q0.625 0.515625 0.625 1.5q0 1.28125 -1.0625 1.984375q-1.0625 0.703125 -3.046875 0.703125q-1.53125 0 -2.34375 -0.53125q-0.796875 -0.53125 -0.796875 -1.484375q0 -0.65625 0.40625 -1.109375q0.421875 -0.4375 1.21875 -0.625q-0.3125 -0.125 -0.546875 -0.421875q-0.21875 -0.296875 -0.21875 -0.625q0 -0.421875 0.234375 -0.703125q0.25 -0.28125 0.703125 -0.546875q-0.578125 -0.234375 -0.921875 -0.78125q-0.328125 -0.546875 -0.328125 -1.296875q0 -1.1875 0.78125 -1.828125q0.78125 -0.65625 2.21875 -0.65625q0.296875 0 0.71875 0.0625q0.421875 0.046875 0.53125 0.0625l2.546875 0zm-5.625 8.3125q0 0.40625 0.390625 0.640625q0.40625 0.234375 1.109375 0.234375q1.078125 0 1.671875 -0.296875q0.609375 -0.28125 0.609375 -0.796875q0 -0.40625 -0.359375 -0.5625q-0.359375 -0.15625 -1.109375 -0.15625l-1.015625 0q-0.546875 0 -0.921875 0.25q-0.375 0.265625 -0.375 0.6875zm0.734375 -5.921875q0 0.59375 0.265625 0.9375q0.265625 0.34375 0.828125 0.34375q0.546875 0 0.8125 -0.34375q0.265625 -0.34375 0.265625 -0.9375q0 -1.3125 -1.078125 -1.3125q-1.09375 0 -1.09375 1.3125zm11.851166 5.015625q-1.28125 0 -2.015625 -0.984375q-0.734375 -1.0 -0.734375 -2.765625q0 -1.796875 0.75 -2.78125q0.75 -1.0 2.046875 -1.0q1.375 0 2.109375 1.0625l0.0625 0q-0.15625 -0.8125 -0.15625 -1.453125l0 -2.328125l2.0 0l0 10.125l-1.53125 0l-0.375 -0.9375l-0.09375 0q-0.671875 1.0625 -2.0625 1.0625zm0.703125 -1.578125q0.75 0 1.109375 -0.4375q0.359375 -0.453125 0.390625 -1.5l0 -0.21875q0 -1.171875 -0.359375 -1.671875q-0.359375 -0.515625 -1.171875 -0.515625q-0.671875 0 -1.046875 0.5625q-0.359375 0.5625 -0.359375 1.640625q0 1.0625 0.359375 1.609375q0.375 0.53125 1.078125 0.53125zm10.043579 1.453125l-0.375 -0.984375l-0.0625 0q-0.5 0.625 -1.03125 0.875q-0.53125 0.234375 -1.375 0.234375q-1.046875 0 -1.65625 -0.59375q-0.59375 -0.59375 -0.59375 -1.703125q0 -1.15625 0.8125 -1.703125q0.8125 -0.5625 2.4375 -0.609375l1.265625 -0.046875l0 -0.3125q0 -1.109375 -1.140625 -1.109375q-0.859375 0 -2.046875 0.53125l-0.65625 -1.34375q1.265625 -0.65625 2.78125 -0.65625q1.46875 0 2.25 0.640625q0.78125 0.625 0.78125 1.9375l0 4.84375l-1.390625 0zm-0.578125 -3.375l-0.765625 0.03125q-0.875 0.03125 -1.296875 0.3125q-0.421875 0.28125 -0.421875 0.875q0 0.828125 0.96875 0.828125q0.6875 0 1.09375 -0.390625q0.421875 -0.390625 0.421875 -1.046875l0 -0.609375zm7.0815125 1.921875q0.515625 0 1.25 -0.21875l0 1.46875q-0.75 0.328125 -1.828125 0.328125q-1.1875 0 -1.734375 -0.59375q-0.546875 -0.609375 -0.546875 -1.8125l0 -3.5l-0.9375 0l0 -0.84375l1.09375 -0.65625l0.5625 -1.546875l1.265625 0l0 1.546875l2.046875 0l0 1.5l-2.046875 0l0 3.5q0 0.421875 0.234375 0.625q0.25 0.203125 0.640625 0.203125zm7.332367 1.453125l-0.375 -0.984375l-0.0625 0q-0.5 0.625 -1.03125 0.875q-0.53125 0.234375 -1.375 0.234375q-1.046875 0 -1.65625 -0.59375q-0.59375 -0.59375 -0.59375 -1.703125q0 -1.15625 0.8125 -1.703125q0.8125 -0.5625 2.4375 -0.609375l1.265625 -0.046875l0 -0.3125q0 -1.109375 -1.140625 -1.109375q-0.859375 0 -2.046875 0.53125l-0.65625 -1.34375q1.265625 -0.65625 2.78125 -0.65625q1.46875 0 2.25 0.640625q0.78125 0.625 0.78125 1.9375l0 4.84375l-1.390625 0zm-0.578125 -3.375l-0.765625 0.03125q-0.875 0.03125 -1.296875 0.3125q-0.421875 0.28125 -0.421875 0.875q0 0.828125 0.96875 0.828125q0.6875 0 1.09375 -0.390625q0.421875 -0.390625 0.421875 -1.046875l0 -0.609375zm9.097137 1.21875q0 1.109375 -0.78125 1.703125q-0.78125 0.578125 -2.328125 0.578125q-0.796875 0 -1.359375 -0.109375q-0.5625 -0.09375 -1.046875 -0.3125l0 -1.640625q0.5625 0.265625 1.25 0.4375q0.6875 0.171875 1.21875 0.171875q1.078125 0 1.078125 -0.625q0 -0.234375 -0.140625 -0.375q-0.140625 -0.140625 -0.5 -0.328125q-0.34375 -0.1875 -0.9375 -0.4375q-0.828125 -0.34375 -1.234375 -0.640625q-0.390625 -0.3125 -0.578125 -0.6875q-0.171875 -0.390625 -0.171875 -0.953125q0 -0.984375 0.75 -1.5q0.765625 -0.53125 2.140625 -0.53125q1.3125 0 2.5625 0.5625l-0.609375 1.4375q-0.546875 -0.234375 -1.03125 -0.375q-0.46875 -0.15625 -0.953125 -0.15625q-0.875 0 -0.875 0.46875q0 0.265625 0.28125 0.46875q0.28125 0.1875 1.234375 0.578125q0.859375 0.34375 1.25 0.640625q0.390625 0.296875 0.578125 0.6875q0.203125 0.390625 0.203125 0.9375zm4.546875 -3.84375q-0.625 0 -0.984375 0.40625q-0.359375 0.390625 -0.40625 1.125l2.78125 0q-0.015625 -0.734375 -0.390625 -1.125q-0.359375 -0.40625 -1.0 -0.40625zm0.28125 6.125q-1.75 0 -2.75 -0.96875q-0.984375 -0.96875 -0.984375 -2.734375q0 -1.84375 0.90625 -2.828125q0.921875 -1.0 2.546875 -1.0q1.53125 0 2.390625 0.875q0.859375 0.875 0.859375 2.421875l0 0.96875l-4.6875 0q0.03125 0.84375 0.5 1.328125q0.46875 0.46875 1.3125 0.46875q0.65625 0 1.234375 -0.140625q0.59375 -0.140625 1.234375 -0.4375l0 1.53125q-0.515625 0.265625 -1.109375 0.390625q-0.59375 0.125 -1.453125 0.125zm7.655792 -1.578125q0.515625 0 1.25 -0.21875l0 1.46875q-0.75 0.328125 -1.828125 0.328125q-1.1875 0 -1.734375 -0.59375q-0.546875 -0.609375 -0.546875 -1.8125l0 -3.5l-0.9375 0l0 -0.84375l1.09375 -0.65625l0.5625 -1.546875l1.265625 0l0 1.546875l2.046875 0l0 1.5l-2.046875 0l0 3.5q0 0.421875 0.234375 0.625q0.25 0.203125 0.640625 0.203125zm7.801117 -0.703125q0 1.109375 -0.78125 1.703125q-0.78125 0.578125 -2.328125 0.578125q-0.796875 0 -1.359375 -0.109375q-0.5625 -0.09375 -1.046875 -0.3125l0 -1.640625q0.5625 0.265625 1.25 0.4375q0.6875 0.171875 1.21875 0.171875q1.078125 0 1.078125 -0.625q0 -0.234375 -0.140625 -0.375q-0.140625 -0.140625 -0.5 -0.328125q-0.34375 -0.1875 -0.9375 -0.4375q-0.828125 -0.34375 -1.234375 -0.640625q-0.390625 -0.3125 -0.578125 -0.6875q-0.171875 -0.390625 -0.171875 -0.953125q0 -0.984375 0.75 -1.5q0.765625 -0.53125 2.140625 -0.53125q1.3125 0 2.5625 0.5625l-0.609375 1.4375q-0.546875 -0.234375 -1.03125 -0.375q-0.46875 -0.15625 -0.953125 -0.15625q-0.875 0 -0.875 0.46875q0 0.265625 0.28125 0.46875q0.28125 0.1875 1.234375 0.578125q0.859375 0.34375 1.25 0.640625q0.390625 0.296875 0.578125 0.6875q0.203125 0.390625 0.203125 0.9375z" fill-rule="nonzero"/><path fill="#000000" fill-opacity="0.0" d="m386.7874 195.1811l-112.0 -39.11812" fill-rule="evenodd"/><path stroke="#595959" stroke-width="1.0" stroke-linejoin="round" stroke-linecap="butt" d="m386.7874 195.1811l-106.33557 -37.13971" fill-rule="evenodd"/><path fill="#595959" stroke="#595959" stroke-width="1.0" stroke-linecap="butt" d="m280.9965 156.48204l-4.828949 0.06298828l3.7396545 3.055725z" fill-rule="evenodd"/><path fill="#000000" fill-opacity="0.0" d="m386.7874 195.1811l-106.86615 -75.49607" fill-rule="evenodd"/><path stroke="#595959" stroke-width="1.0" stroke-linejoin="round" stroke-linecap="butt" d="m386.7874 195.1811l-101.96567 -72.034096" fill-rule="evenodd"/><path fill="#595959" stroke="#595959" stroke-width="1.0" stroke-linecap="butt" d="m285.77478 121.79796l-4.6595154 -1.2694092l2.7534485 3.9675064z" fill-rule="evenodd"/></g></svg>