<svg version="1.1" viewBox="0.0 0.0 345.4540682414698 336.36482939632543" fill="none" stroke="none" stroke-linecap="square" stroke-miterlimit="10" xmlns:xlink="http://www.w3.org/1999/xlink" xmlns="http://www.w3.org/2000/svg"><clipPath id="p.0"><path d="m0 0l345.45407 0l0 336.36484l-345.45407 0l0 -336.36484z" clip-rule="nonzero"/></clipPath><g clip-path="url(#p.0)"><path fill="#000000" fill-opacity="0.0" d="m0 0l345.45407 0l0 336.36484l-345.45407 0z" fill-rule="evenodd"/><path fill="#000000" fill-opacity="0.0" d="m13.769029 94.90026l0 0c0 -28.840569 23.831142 -52.22047 53.228348 -52.22047l0 0c14.117035 0 27.655876 5.5017853 37.638123 15.295021c9.982254 9.79324 15.590225 23.075718 15.590225 36.92545l0 0c0 28.840569 -23.831146 52.220467 -53.228348 52.220467l0 0c-29.397205 0 -53.228348 -23.379898 -53.228348 -52.220467z" fill-rule="evenodd"/><path stroke="#595959" stroke-width="2.0" stroke-linejoin="round" stroke-linecap="butt" d="m13.769029 94.90026l0 0c0 -28.840569 23.831142 -52.22047 53.228348 -52.22047l0 0c14.117035 0 27.655876 5.5017853 37.638123 15.295021c9.982254 9.79324 15.590225 23.075718 15.590225 36.92545l0 0c0 28.840569 -23.831146 52.220467 -53.228348 52.220467l0 0c-29.397205 0 -53.228348 -23.379898 -53.228348 -52.220467z" fill-rule="evenodd"/><path fill="#000000" fill-opacity="0.0" d="m38.367455 11.3412075l64.755905 0l0 31.338583l-64.755905 0z" fill-rule="evenodd"/><path fill="#999999" d="m53.117455 36.229954q0.734375 0 1.75 -0.3125l0 2.0625q-1.046875 0.46875 -2.546875 0.46875q-1.671875 0 -2.4375 -0.84375q-0.75 -0.84375 -0.75 -2.53125l0 -4.906248l-1.34375 0l0 -1.1875l1.53125 -0.921875l0.8125 -2.15625l1.765625 0l0 2.171875l2.859375 0l0 2.09375l-2.859375 0l0 4.906248q0 0.59375 0.328125 0.875q0.34375 0.28125 0.890625 0.28125zm11.879593 -8.312498q0 1.25 -0.75 2.125q-0.75 0.875 -2.125 1.203125l0 0.0625q1.609375 0.1875 2.4375 0.9687481q0.828125 0.78125 0.828125 2.109375q0 1.921875 -1.390625 3.0q-1.390625 1.0625 -3.96875 1.0625q-2.171875 0 -3.859375 -0.71875l0 -2.40625q0.78125 0.390625 1.703125 0.640625q0.9375 0.25 1.84375 0.25q1.390625 0 2.0625 -0.46875q0.671875 -0.484375 0.671875 -1.53125q0 -0.9375 -0.765625 -1.328125q-0.765625 -0.390625 -2.453125 -0.390625l-1.0 0l0 -2.156248l1.03125 0q1.546875 0 2.25 -0.40625q0.71875 -0.40625 0.71875 -1.390625q0 -1.515625 -1.890625 -1.515625q-0.65625 0 -1.34375 0.21875q-0.671875 0.21875 -1.5 0.765625l-1.296875 -1.953125q1.8125 -1.3125 4.34375 -1.3125q2.0625 0 3.25 0.84375q1.203125 0.84375 1.203125 2.328125zm9.680252 7.312498q0 1.578125 -1.09375 2.40625q-1.078125 0.8125 -3.25 0.8125q-1.109375 0 -1.890625 -0.15625q-0.78125 -0.15625 -1.46875 -0.4375l0 -2.296875q0.765625 0.359375 1.734375 0.609375q0.984375 0.25 1.71875 0.25q1.515625 0 1.515625 -0.875q0 -0.328125 -0.203125 -0.53125q-0.203125 -0.21875 -0.703125 -0.46875q-0.484375 -0.265625 -1.3125 -0.609375q-1.171875 -0.484375 -1.71875 -0.90625q-0.546875 -0.421875 -0.796875 -0.953125q-0.25 -0.5468731 -0.25 -1.3437481q0 -1.359375 1.046875 -2.09375q1.046875 -0.75 2.984375 -0.75q1.84375 0 3.578125 0.796875l-0.84375 2.015625q-0.765625 -0.328125 -1.4375 -0.53125q-0.65625 -0.21875 -1.34375 -0.21875q-1.234375 0 -1.234375 0.65625q0 0.375 0.390625 0.65625q0.40625 0.265625 1.75 0.8124981q1.1875 0.46875 1.734375 0.890625q0.5625 0.421875 0.828125 0.96875q0.265625 0.546875 0.265625 1.296875z" fill-rule="nonzero"/><path fill="#000000" fill-opacity="0.0" d="m13.769029 258.8084l0 0c0 -28.840576 23.831142 -52.22049 53.228348 -52.22049l0 0c14.117035 0 27.655876 5.5017853 37.638123 15.295029c9.982254 9.793243 15.590225 23.075714 15.590225 36.92546l0 0c0 28.840546 -23.831146 52.22046 -53.228348 52.22046l0 0c-29.397205 0 -53.228348 -23.379913 -53.228348 -52.22046z" fill-rule="evenodd"/><path stroke="#595959" stroke-width="2.0" stroke-linejoin="round" stroke-linecap="butt" d="m13.769029 258.8084l0 0c0 -28.840576 23.831142 -52.22049 53.228348 -52.22049l0 0c14.117035 0 27.655876 5.5017853 37.638123 15.295029c9.982254 9.793243 15.590225 23.075714 15.590225 36.92546l0 0c0 28.840546 -23.831146 52.22046 -53.228348 52.22046l0 0c-29.397205 0 -53.228348 -23.379913 -53.228348 -52.22046z" fill-rule="evenodd"/><path fill="#000000" fill-opacity="0.0" d="m214.51968 94.90026l0 0c0 -28.840569 23.831146 -52.22047 53.228333 -52.22047l0 0c14.117065 0 27.655884 5.5017853 37.638153 15.295021c9.982239 9.79324 15.59021 23.075718 15.59021 36.92545l0 0c0 28.840569 -23.831146 52.220467 -53.228363 52.220467l0 0c-29.397186 0 -53.228333 -23.379898 -53.228333 -52.220467z" fill-rule="evenodd"/><path stroke="#595959" stroke-width="2.0" stroke-linejoin="round" stroke-linecap="butt" d="m214.51968 94.90026l0 0c0 -28.840569 23.831146 -52.22047 53.228333 -52.22047l0 0c14.117065 0 27.655884 5.5017853 37.638153 15.295021c9.982239 9.79324 15.59021 23.075718 15.59021 36.92545l0 0c0 28.840569 -23.831146 52.220467 -53.228363 52.220467l0 0c-29.397186 0 -53.228333 -23.379898 -53.228333 -52.220467z" fill-rule="evenodd"/><path fill="#000000" fill-opacity="0.0" d="m219.76903 252.14174l0 0c0 -28.840576 23.831146 -52.220474 53.228348 -52.220474l0 0c14.117035 0 27.655884 5.5017853 37.638123 15.295013c9.982239 9.793243 15.59021 23.07573 15.59021 36.92546l0 0c0 28.84056 -23.831116 52.220474 -53.228333 52.220474l0 0c-29.397202 0 -53.228348 -23.379913 -53.228348 -52.220474z" fill-rule="evenodd"/><path stroke="#595959" stroke-width="2.0" stroke-linejoin="round" stroke-linecap="butt" d="m219.76903 252.14174l0 0c0 -28.840576 23.831146 -52.220474 53.228348 -52.220474l0 0c14.117035 0 27.655884 5.5017853 37.638123 15.295013c9.982239 9.793243 15.59021 23.07573 15.59021 36.92546l0 0c0 28.84056 -23.831116 52.220474 -53.228333 52.220474l0 0c-29.397202 0 -53.228348 -23.379913 -53.228348 -52.220474z" fill-rule="evenodd"/><path fill="#000000" fill-opacity="0.0" d="m34.619423 304.3622l64.755905 0l0 31.338562l-64.755905 0z" fill-rule="evenodd"/><path fill="#999999" d="m49.369423 329.25095q0.734375 0 1.75 -0.3125l0 2.0625q-1.046875 0.46875 -2.546875 0.46875q-1.671875 0 -2.4375 -0.84375q-0.75 -0.84375 -0.75 -2.53125l0 -4.90625l-1.34375 0l0 -1.1875l1.53125 -0.921875l0.8125 -2.15625l1.765625 0l0 2.171875l2.859375 0l0 2.09375l-2.859375 0l0 4.90625q0 0.59375 0.328125 0.875q0.34375 0.28125 0.890625 0.28125zm10.051468 2.03125l-2.8125 0l0 -7.703125l0.03125 -1.265625l0.046875 -1.390625q-0.703125 0.703125 -0.984375 0.921875l-1.53125 1.234375l-1.34375 -1.703125l4.28125 -3.40625l2.3125 0l0 13.3125zm11.508377 -3.03125q0 1.578125 -1.09375 2.40625q-1.078125 0.8125 -3.25 0.8125q-1.109375 0 -1.890625 -0.15625q-0.78125 -0.15625 -1.46875 -0.4375l0 -2.296875q0.765625 0.359375 1.734375 0.609375q0.984375 0.25 1.71875 0.25q1.515625 0 1.515625 -0.875q0 -0.328125 -0.203125 -0.53125q-0.203125 -0.21875 -0.703125 -0.46875q-0.484375 -0.265625 -1.3125 -0.609375q-1.171875 -0.484375 -1.71875 -0.90625q-0.546875 -0.421875 -0.796875 -0.953125q-0.25 -0.546875 -0.25 -1.34375q0 -1.359375 1.046875 -2.09375q1.046875 -0.75 2.984375 -0.75q1.84375 0 3.578125 0.796875l-0.84375 2.015625q-0.765625 -0.328125 -1.4375 -0.53125q-0.65625 -0.21875 -1.34375 -0.21875q-1.234375 0 -1.234375 0.65625q0 0.375 0.390625 0.65625q0.40625 0.265625 1.75 0.8125q1.1875 0.46875 1.734375 0.890625q0.5625 0.421875 0.828125 0.96875q0.265625 0.546875 0.265625 1.296875z" fill-rule="nonzero"/><path fill="#000000" fill-opacity="0.0" d="m214.51968 294.3622l137.35434 0l0 31.338562l-137.35434 0z" fill-rule="evenodd"/><path fill="#999999" d="m229.26968 319.25095q0.734375 0 1.75 -0.3125l0 2.0625q-1.046875 0.46875 -2.546875 0.46875q-1.671875 0 -2.4375 -0.84375q-0.75 -0.84375 -0.75 -2.53125l0 -4.90625l-1.34375 0l0 -1.1875l1.53125 -0.921875l0.8125 -2.15625l1.765625 0l0 2.171875l2.859375 0l0 2.09375l-2.859375 0l0 4.90625q0 0.59375 0.328125 0.875q0.34375 0.28125 0.890625 0.28125zm12.410843 2.03125l-9.3125 0l0 -1.953125l3.34375 -3.390625q1.484375 -1.515625 1.9375 -2.09375q0.453125 -0.59375 0.65625 -1.09375q0.203125 -0.5 0.203125 -1.046875q0 -0.796875 -0.453125 -1.1875q-0.4375 -0.390625 -1.171875 -0.390625q-0.78125 0 -1.515625 0.359375q-0.71875 0.34375 -1.515625 1.0l-1.53125 -1.8125q0.984375 -0.828125 1.625 -1.171875q0.65625 -0.359375 1.421875 -0.546875q0.765625 -0.1875 1.71875 -0.1875q1.25 0 2.203125 0.46875q0.953125 0.453125 1.484375 1.28125q0.53125 0.8125 0.53125 1.859375q0 0.921875 -0.328125 1.734375q-0.328125 0.796875 -1.015625 1.65625q-0.671875 0.84375 -2.375 2.40625l-1.71875 1.609375l0 0.125l5.8125 0l0 2.375zm9.149002 -3.03125q0 1.578125 -1.09375 2.40625q-1.078125 0.8125 -3.25 0.8125q-1.109375 0 -1.890625 -0.15625q-0.78125 -0.15625 -1.46875 -0.4375l0 -2.296875q0.765625 0.359375 1.734375 0.609375q0.984375 0.25 1.71875 0.25q1.515625 0 1.515625 -0.875q0 -0.328125 -0.203125 -0.53125q-0.203125 -0.21875 -0.703125 -0.46875q-0.484375 -0.265625 -1.3125 -0.609375q-1.171875 -0.484375 -1.71875 -0.90625q-0.546875 -0.421875 -0.796875 -0.953125q-0.25 -0.546875 -0.25 -1.34375q0 -1.359375 1.046875 -2.09375q1.046875 -0.75 2.984375 -0.75q1.84375 0 3.578125 0.796875l-0.84375 2.015625q-0.765625 -0.328125 -1.4375 -0.53125q-0.65625 -0.21875 -1.34375 -0.21875q-1.234375 0 -1.234375 0.65625q0 0.375 0.390625 0.65625q0.40625 0.265625 1.75 0.8125q1.1875 0.46875 1.734375 0.890625q0.5625 0.421875 0.828125 0.96875q0.265625 0.546875 0.265625 1.296875zm6.1197205 -0.828125l0 -2.28125l4.890625 0l0 2.28125l-4.890625 0zm21.146301 3.859375l-2.78125 0l0 -5.953125q0 -1.09375 -0.390625 -1.640625q-0.390625 -0.5625 -1.25 -0.5625q-1.15625 0 -1.6875 0.78125q-0.515625 0.78125 -0.515625 2.578125l0 4.796875l-2.78125 0l0 -10.1875l2.125 0l0.375 1.3125l0.15625 0q0.46875 -0.75 1.28125 -1.125q0.8125 -0.375 1.84375 -0.375q1.78125 0 2.703125 0.96875q0.921875 0.953125 0.921875 2.765625l0 6.640625zm10.073883 0l-0.375 -1.296875l-0.140625 0q-0.453125 0.703125 -1.28125 1.09375q-0.8125 0.390625 -1.859375 0.390625q-1.796875 0 -2.703125 -0.953125q-0.90625 -0.96875 -0.90625 -2.78125l0 -6.640625l2.78125 0l0 5.953125q0 1.09375 0.390625 1.65625q0.390625 0.546875 1.25 0.546875q1.15625 0 1.671875 -0.78125q0.53125 -0.78125 0.53125 -2.578125l0 -4.796875l2.765625 0l0 10.1875l-2.125 0zm9.183258 0.1875q-4.75 0 -4.75 -5.21875q0 -2.609375 1.28125 -3.96875q1.296875 -1.375 3.71875 -1.375q1.765625 0 3.171875 0.6875l-0.828125 2.15625q-0.65625 -0.265625 -1.21875 -0.4375q-0.5625 -0.171875 -1.125 -0.171875q-2.171875 0 -2.171875 3.078125q0 3.0 2.171875 3.0q0.796875 0 1.46875 -0.21875q0.6875 -0.21875 1.375 -0.671875l0 2.375q-0.671875 0.4375 -1.359375 0.59375q-0.6875 0.171875 -1.734375 0.171875zm8.23291 -0.1875l-2.78125 0l0 -14.171875l2.78125 0l0 14.171875zm7.130951 -8.40625q-0.875 0 -1.375 0.5625q-0.5 0.5625 -0.578125 1.59375l3.890625 0q-0.015625 -1.03125 -0.53125 -1.59375q-0.515625 -0.5625 -1.40625 -0.5625zm0.390625 8.59375q-2.453125 0 -3.84375 -1.359375q-1.375 -1.359375 -1.375 -3.84375q0 -2.5625 1.265625 -3.953125q1.28125 -1.40625 3.546875 -1.40625q2.15625 0 3.359375 1.234375q1.203125 1.21875 1.203125 3.390625l0 1.34375l-6.5625 0q0.046875 1.1875 0.703125 1.859375q0.65625 0.65625 1.828125 0.65625q0.921875 0 1.734375 -0.1875q0.828125 -0.1875 1.71875 -0.609375l0 2.15625q-0.71875 0.359375 -1.546875 0.53125q-0.828125 0.1875 -2.03125 0.1875zm6.3037415 -13.0q0 -1.359375 1.5 -1.359375q1.515625 0 1.515625 1.359375q0 0.640625 -0.375 1.0q-0.375 0.359375 -1.140625 0.359375q-1.5 0 -1.5 -1.359375zm2.890625 12.8125l-2.78125 0l0 -10.1875l2.78125 0l0 10.1875z" fill-rule="nonzero"/><path fill="#000000" fill-opacity="0.0" d="m176.64568 11.3412075l182.20473 0l0 31.338583l-182.20473 0z" fill-rule="evenodd"/><path fill="#999999" d="m191.39568 36.229954q0.734375 0 1.75 -0.3125l0 2.0625q-1.046875 0.46875 -2.546875 0.46875q-1.671875 0 -2.4375 -0.84375q-0.75 -0.84375 -0.75 -2.53125l0 -4.906248l-1.34375 0l0 -1.1875l1.53125 -0.921875l0.8125 -2.15625l1.765625 0l0 2.171875l2.859375 0l0 2.09375l-2.859375 0l0 4.906248q0 0.59375 0.328125 0.875q0.34375 0.28125 0.890625 0.28125zm12.410843 2.03125l-9.3125 0l0 -1.953125l3.34375 -3.390625q1.484375 -1.5156231 1.9375 -2.093748q0.453125 -0.59375 0.65625 -1.09375q0.203125 -0.5 0.203125 -1.046875q0 -0.796875 -0.453125 -1.1875q-0.4375 -0.390625 -1.171875 -0.390625q-0.78125 0 -1.515625 0.359375q-0.71875 0.34375 -1.515625 1.0l-1.53125 -1.8125q0.984375 -0.828125 1.625 -1.171875q0.65625 -0.359375 1.421875 -0.546875q0.765625 -0.1875 1.71875 -0.1875q1.25 0 2.203125 0.46875q0.953125 0.453125 1.484375 1.28125q0.53125 0.8125 0.53125 1.859375q0 0.921875 -0.328125 1.734375q-0.328125 0.796875 -1.015625 1.65625q-0.671875 0.8437481 -2.375 2.406248l-1.71875 1.609375l0 0.125l5.8125 0l0 2.375zm9.149002 -3.03125q0 1.578125 -1.09375 2.40625q-1.078125 0.8125 -3.25 0.8125q-1.109375 0 -1.890625 -0.15625q-0.78125 -0.15625 -1.46875 -0.4375l0 -2.296875q0.765625 0.359375 1.734375 0.609375q0.984375 0.25 1.71875 0.25q1.515625 0 1.515625 -0.875q0 -0.328125 -0.203125 -0.53125q-0.203125 -0.21875 -0.703125 -0.46875q-0.484375 -0.265625 -1.3125 -0.609375q-1.171875 -0.484375 -1.71875 -0.90625q-0.546875 -0.421875 -0.796875 -0.953125q-0.25 -0.5468731 -0.25 -1.3437481q0 -1.359375 1.046875 -2.09375q1.046875 -0.75 2.984375 -0.75q1.84375 0 3.578125 0.796875l-0.84375 2.015625q-0.765625 -0.328125 -1.4375 -0.53125q-0.65625 -0.21875 -1.34375 -0.21875q-1.234375 0 -1.234375 0.65625q0 0.375 0.390625 0.65625q0.40625 0.265625 1.75 0.8124981q1.1875 0.46875 1.734375 0.890625q0.5625 0.421875 0.828125 0.96875q0.265625 0.546875 0.265625 1.296875zm6.1197205 -0.828125l0 -2.28125l4.890625 0l0 2.28125l-4.890625 0zm21.146286 3.859375l-2.78125 0l0 -5.953125q0 -1.0937481 -0.390625 -1.6406231q-0.390625 -0.5625 -1.25 -0.5625q-1.15625 0 -1.6875 0.78125q-0.515625 0.78125 -0.515625 2.578123l0 4.796875l-2.78125 0l0 -10.187498l2.125 0l0.375 1.3125l0.15625 0q0.46875 -0.75 1.28125 -1.125q0.8125 -0.375 1.84375 -0.375q1.78125 0 2.703125 0.96875q0.921875 0.953125 0.921875 2.765625l0 6.640623zm5.073883 -5.109375q0 1.515625 0.5 2.296875q0.5 0.765625 1.609375 0.765625q1.109375 0 1.59375 -0.765625q0.5 -0.78125 0.5 -2.296875q0 -1.5156231 -0.5 -2.265623q-0.484375 -0.765625 -1.609375 -0.765625q-1.109375 0 -1.609375 0.765625q-0.484375 0.75 -0.484375 2.265623zm7.046875 0q0 2.484375 -1.3125 3.890625q-1.3125 1.40625 -3.65625 1.40625q-1.46875 0 -2.59375 -0.640625q-1.109375 -0.65625 -1.71875 -1.84375q-0.59375 -1.203125 -0.59375 -2.8125q0 -2.499998 1.296875 -3.874998q1.296875 -1.390625 3.65625 -1.390625q1.46875 0 2.59375 0.640625q1.125 0.640625 1.71875 1.828125q0.609375 1.1875 0.609375 2.796873zm11.691467 5.109375l-2.78125 0l0 -5.953125q0 -1.0937481 -0.390625 -1.6406231q-0.390625 -0.5625 -1.25 -0.5625q-1.15625 0 -1.6875 0.78125q-0.515625 0.78125 -0.515625 2.578123l0 4.796875l-2.78125 0l0 -10.187498l2.125 0l0.375 1.3125l0.15625 0q0.46875 -0.75 1.28125 -1.125q0.8125 -0.375 1.84375 -0.375q1.78125 0 2.703125 0.96875q0.921875 0.953125 0.921875 2.765625l0 6.640623zm1.964508 -3.859375l0 -2.28125l4.890625 0l0 2.28125l-4.890625 0zm16.300018 3.859375l-2.78125 0l0 -5.953125q0 -1.0937481 -0.390625 -1.6406231q-0.390625 -0.5625 -1.25 -0.5625q-1.15625 0 -1.6875 0.78125q-0.515625 0.78125 -0.515625 2.578123l0 4.796875l-2.78125 0l0 -10.187498l2.125 0l0.375 1.3125l0.15625 0q0.46875 -0.75 1.28125 -1.125q0.8125 -0.375 1.84375 -0.375q1.78125 0 2.703125 0.96875q0.921875 0.953125 0.921875 2.765625l0 6.640623zm10.073883 0l-0.375 -1.296875l-0.140625 0q-0.453125 0.703125 -1.28125 1.09375q-0.8125 0.390625 -1.859375 0.390625q-1.796875 0 -2.703125 -0.953125q-0.90625 -0.96875 -0.90625 -2.78125l0 -6.640623l2.78125 0l0 5.953123q0 1.09375 0.390625 1.65625q0.390625 0.546875 1.25 0.546875q1.15625 0 1.671875 -0.78125q0.53125 -0.78125 0.53125 -2.578125l0 -4.796873l2.765625 0l0 10.187498l-2.125 0zm9.183258 0.1875q-4.75 0 -4.75 -5.21875q0 -2.609373 1.28125 -3.968748q1.296875 -1.375 3.71875 -1.375q1.765625 0 3.171875 0.6875l-0.828125 2.15625q-0.65625 -0.265625 -1.21875 -0.4375q-0.5625 -0.171875 -1.125 -0.171875q-2.171875 0 -2.171875 3.078123q0 3.0 2.171875 3.0q0.796875 0 1.46875 -0.21875q0.6875 -0.21875 1.375 -0.671875l0 2.375q-0.671875 0.4375 -1.359375 0.59375q-0.6875 0.171875 -1.734375 0.171875zm8.232941 -0.1875l-2.78125 0l0 -14.171873l2.78125 0l0 14.171873zm7.1309204 -8.406248q-0.875 0 -1.375 0.5625q-0.5 0.5625 -0.578125 1.5937481l3.890625 0q-0.015625 -1.0312481 -0.53125 -1.5937481q-0.515625 -0.5625 -1.40625 -0.5625zm0.390625 8.593748q-2.453125 0 -3.84375 -1.359375q-1.375 -1.359375 -1.375 -3.84375q0 -2.562498 1.265625 -3.953123q1.28125 -1.40625 3.546875 -1.40625q2.15625 0 3.359375 1.234375q1.203125 1.21875 1.203125 3.390623l0 1.34375l-6.5625 0q0.046875 1.1875 0.703125 1.859375q0.65625 0.65625 1.828125 0.65625q0.921875 0 1.734375 -0.1875q0.828125 -0.1875 1.71875 -0.609375l0 2.15625q-0.71875 0.359375 -1.546875 0.53125q-0.828125 0.1875 -2.03125 0.1875zm6.3037415 -12.999998q0 -1.359375 1.5 -1.359375q1.515625 0 1.515625 1.359375q0 0.640625 -0.375 1.0q-0.375 0.359375 -1.140625 0.359375q-1.5 0 -1.5 -1.359375zm2.890625 12.812498l-2.78125 0l0 -10.187498l2.78125 0l0 10.187498z" fill-rule="nonzero"/><path fill="#4a7dba" d="m76.03674 243.19423l5.834648 -6.0997467l0 2.917328l0 0c7.3823853 -0.681839 13.368248 -2.6105957 16.032593 -5.1660156l0 0c2.3107605 2.2162933 1.884758 4.679184 -1.1721649 6.776657c-3.0569153 2.0974884 -8.457756 3.6326447 -14.860428 4.223999l0 2.917328z" fill-rule="evenodd"/><path fill="#3b6394" d="m99.37533 237.76312c0 -4.6107025 -10.449036 -8.348419 -23.338585 -8.348419l0 -5.834656l0 0c12.889549 0 23.338585 3.7377167 23.338585 8.348434z" fill-rule="evenodd"/><path fill="#000000" fill-opacity="0.0" d="m99.37533 237.76312c0 -4.6107025 -10.449036 -8.348419 -23.338585 -8.348419l0 -5.834656l0 0c12.889549 0 23.338585 3.7377167 23.338585 8.348434l0 5.8346405c0 3.8068695 -7.199524 7.131607 -17.503937 8.083328l0 2.917328l-5.834648 -5.5695496l5.834648 -6.0997467l0 2.917328l0 0c7.3823853 -0.681839 13.368248 -2.6105957 16.032593 -5.1660156" fill-rule="evenodd"/><path stroke="#0000ff" stroke-width="1.0" stroke-linejoin="round" stroke-linecap="butt" d="m99.37533 237.76312c0 -4.6107025 -10.449036 -8.348419 -23.338585 -8.348419l0 -5.834656l0 0c12.889549 0 23.338585 3.7377167 23.338585 8.348434l0 5.8346405c0 3.8068695 -7.199524 7.131607 -17.503937 8.083328l0 2.917328l-5.834648 -5.5695496l5.834648 -6.0997467l0 2.917328l0 0c7.3823853 -0.681839 13.368248 -2.6105957 16.032593 -5.1660156" fill-rule="evenodd"/><path fill="#4a7dba" d="m261.3281 72.16535l5.8346252 -6.099739l0 2.9173203l0 0c7.3823853 -0.681839 13.368256 -2.6105957 16.032593 -5.166004l0 0c2.3107605 2.216282 1.8847656 4.67918 -1.1721497 6.776661c-3.0569153 2.0974808 -8.457764 3.632637 -14.860443 4.2239914l0 2.9173203z" fill-rule="evenodd"/><path fill="#3b6394" d="m284.66666 66.73425c0 -4.61071 -10.449036 -8.348427 -23.338562 -8.348427l0 -5.8346443l0 0c12.889526 0 23.338562 3.7377167 23.338562 8.348423z" fill-rule="evenodd"/><path fill="#000000" fill-opacity="0.0" d="m284.66666 66.73425c0 -4.61071 -10.449036 -8.348427 -23.338562 -8.348427l0 -5.8346443l0 0c12.889526 0 23.338562 3.7377167 23.338562 8.348423l0 5.834648c0 3.8068695 -7.199524 7.131607 -17.503937 8.083328l0 2.9173203l-5.8346252 -5.5695496l5.8346252 -6.099739l0 2.9173203l0 0c7.3823853 -0.681839 13.368256 -2.6105957 16.032593 -5.166004" fill-rule="evenodd"/><path stroke="#0000ff" stroke-width="1.0" stroke-linejoin="round" stroke-linecap="butt" d="m284.66666 66.73425c0 -4.61071 -10.449036 -8.348427 -23.338562 -8.348427l0 -5.8346443l0 0c12.889526 0 23.338562 3.7377167 23.338562 8.348423l0 5.834648c0 3.8068695 -7.199524 7.131607 -17.503937 8.083328l0 2.9173203l-5.8346252 -5.5695496l5.8346252 -6.099739l0 2.9173203l0 0c7.3823853 -0.681839 13.368256 -2.6105957 16.032593 -5.166004" fill-rule="evenodd"/><path fill="#000000" fill-opacity="0.0" d="m82.414696 259.22833l0 0c0 -3.37471 9.072304 -6.611206 25.221107 -8.997498c16.148804 -2.3862915 38.05127 -3.7268982 60.88913 -3.7268982l0 0c47.557373 0 86.110245 5.6969147 86.110245 12.724396l0 0c0 7.0274963 -38.55287 12.724426 -86.110245 12.724426l0 0c-47.557365 0 -86.11024 -5.69693 -86.11024 -12.724426z" fill-rule="evenodd"/><path stroke="#4a7dba" stroke-width="3.0" stroke-linejoin="round" stroke-linecap="butt" d="m82.414696 259.22833l0 0c0 -3.37471 9.072304 -6.611206 25.221107 -8.997498c16.148804 -2.3862915 38.05127 -3.7268982 60.88913 -3.7268982l0 0c47.557373 0 86.110245 5.6969147 86.110245 12.724396l0 0c0 7.0274963 -38.55287 12.724426 -86.110245 12.724426l0 0c-47.557365 0 -86.11024 -5.69693 -86.11024 -12.724426z" fill-rule="evenodd"/><path fill="#4a7dba" d="m149.07611 237.30446l35.007874 0l0 -1.9448853l3.8897705 3.8897705l-3.8897705 3.8897705l0 -1.9448853l-35.007874 0z" fill-rule="evenodd"/><path stroke="#0000ff" stroke-width="1.0" stroke-linejoin="round" stroke-linecap="butt" d="m149.07611 237.30446l35.007874 0l0 -1.9448853l3.8897705 3.8897705l-3.8897705 3.8897705l0 -1.9448853l-35.007874 0z" fill-rule="evenodd"/><path fill="#4a7dba" d="m143.8819 279.20734l3.8897552 -3.88974l0 1.9448853l35.007874 0l0 3.88974l-35.007874 0l0 1.9448853z" fill-rule="evenodd"/><path stroke="#0000ff" stroke-width="1.0" stroke-linejoin="round" stroke-linecap="butt" d="m143.8819 279.20734l3.8897552 -3.88974l0 1.9448853l35.007874 0l0 3.88974l-35.007874 0l0 1.9448853z" fill-rule="evenodd"/><path fill="#4a7dba" d="m246.48294 246.2021l5.8346405 -6.0997467l0 2.917328l0 0c7.3824005 -0.681839 13.36824 -2.6105957 16.032608 -5.1660156l0 0c2.3107605 2.2162933 1.8847351 4.679184 -1.1721802 6.7766724c-3.0569153 2.0974731 -8.457764 3.6326294 -14.860428 4.223984l0 2.917328z" fill-rule="evenodd"/><path fill="#3b6394" d="m269.82153 240.771c0 -4.6107025 -10.449036 -8.348419 -23.338593 -8.348419l0 -5.834656l0 0c12.889557 0 23.338593 3.7377167 23.338593 8.348434z" fill-rule="evenodd"/><path fill="#000000" fill-opacity="0.0" d="m269.82153 240.771c0 -4.6107025 -10.449036 -8.348419 -23.338593 -8.348419l0 -5.834656l0 0c12.889557 0 23.338593 3.7377167 23.338593 8.348434l0 5.8346405c0 3.8068695 -7.199524 7.131607 -17.503952 8.083328l0 2.917328l-5.8346405 -5.5695496l5.8346405 -6.0997467l0 2.917328l0 0c7.3824005 -0.681839 13.36824 -2.6105957 16.032608 -5.1660156" fill-rule="evenodd"/><path stroke="#0000ff" stroke-width="1.0" stroke-linejoin="round" stroke-linecap="butt" d="m269.82153 240.771c0 -4.6107025 -10.449036 -8.348419 -23.338593 -8.348419l0 -5.834656l0 0c12.889557 0 23.338593 3.7377167 23.338593 8.348434l0 5.8346405c0 3.8068695 -7.199524 7.131607 -17.503952 8.083328l0 2.917328l-5.8346405 -5.5695496l5.8346405 -6.0997467l0 2.917328l0 0c7.3824005 -0.681839 13.36824 -2.6105957 16.032608 -5.1660156" fill-rule="evenodd"/><path fill="#000000" fill-opacity="0.0" d="m71.314964 96.55118l185.5433 0" fill-rule="evenodd"/><path stroke="#6aa84f" stroke-width="3.0" stroke-linejoin="round" stroke-linecap="butt" d="m71.314964 96.55118l167.5433 0" fill-rule="evenodd"/><path fill="#6aa84f" stroke="#6aa84f" stroke-width="3.0" stroke-linecap="butt" d="m238.85826 101.50638l13.614304 -4.9552l-13.614304 -4.9551926z" fill-rule="evenodd"/><path fill="#6aa84f" d="m289.55118 101.79002l5.834656 -6.099739l0 2.9173203l0 0c7.3823853 -0.681839 13.368225 -2.6105957 16.032593 -5.1660004l0 0c2.3107605 2.216278 1.8847351 4.6791763 -1.1721802 6.776657c-3.0569153 2.0974808 -8.457764 3.632637 -14.860413 4.2239914l0 2.9173203z" fill-rule="evenodd"/><path fill="#54863f" d="m312.88977 96.358925c0 -4.61071 -10.449036 -8.348427 -23.338593 -8.348427l0 -5.834648l0 0c12.889557 0 23.338593 3.7377167 23.338593 8.348427z" fill-rule="evenodd"/><path fill="#000000" fill-opacity="0.0" d="m312.88977 96.358925c0 -4.61071 -10.449036 -8.348427 -23.338593 -8.348427l0 -5.834648l0 0c12.889557 0 23.338593 3.7377167 23.338593 8.348427l0 5.834648c0 3.8068695 -7.199524 7.131607 -17.503937 8.083328l0 2.9173203l-5.834656 -5.5695496l5.834656 -6.099739l0 2.9173203l0 0c7.3823853 -0.681839 13.368225 -2.6105957 16.032593 -5.1660004" fill-rule="evenodd"/><path stroke="#6aa84f" stroke-width="1.0" stroke-linejoin="round" stroke-linecap="butt" d="m312.88977 96.358925c0 -4.61071 -10.449036 -8.348427 -23.338593 -8.348427l0 -5.834648l0 0c12.889557 0 23.338593 3.7377167 23.338593 8.348427l0 5.834648c0 3.8068695 -7.199524 7.131607 -17.503937 8.083328l0 2.9173203l-5.834656 -5.5695496l5.834656 -6.099739l0 2.9173203l0 0c7.3823853 -0.681839 13.368225 -2.6105957 16.032593 -5.1660004" fill-rule="evenodd"/><path fill="#000000" fill-opacity="0.0" d="m276.4357 186.1811l0 0c0 -40.321136 5.978943 -73.00788 13.35434 -73.00788l0 0c3.5417786 0 6.938507 7.6918793 9.442932 21.383507c2.504425 13.691635 3.911377 32.261475 3.911377 51.624374l0 0c0 40.321136 -5.978943 73.00786 -13.354309 73.00786l0 0c-3.541809 0 -6.9385376 -7.691864 -9.442963 -21.3835c-2.504425 -13.691635 -3.911377 -32.261475 -3.911377 -51.62436z" fill-rule="evenodd"/><path stroke="#6aa84f" stroke-width="3.0" stroke-linejoin="round" stroke-linecap="butt" d="m276.4357 186.1811l0 0c0 -40.321136 5.978943 -73.00788 13.35434 -73.00788l0 0c3.5417786 0 6.938507 7.6918793 9.442932 21.383507c2.504425 13.691635 3.911377 32.261475 3.911377 51.624374l0 0c0 40.321136 -5.978943 73.00786 -13.354309 73.00786l0 0c-3.541809 0 -6.9385376 -7.691864 -9.442963 -21.3835c-2.504425 -13.691635 -3.911377 -32.261475 -3.911377 -51.62436z" fill-rule="evenodd"/><path fill="#6aa84f" d="m278.12073 286.0971l5.834656 -6.0997314l0 2.917328l0 0c7.3823853 -0.68185425 13.368256 -2.6105957 16.032593 -5.1660156l0 0c2.3107605 2.216278 1.8847656 4.6791687 -1.1721497 6.7766724c-3.0569153 2.0974731 -8.457764 3.6326294 -14.860443 4.2239685l0 2.917328z" fill-rule="evenodd"/><path fill="#54863f" d="m301.45932 280.66602c0 -4.610718 -10.449036 -8.348419 -23.338593 -8.348419l0 -5.834656l0 0c12.889557 0 23.338593 3.7377014 23.338593 8.348419z" fill-rule="evenodd"/><path fill="#000000" fill-opacity="0.0" d="m301.45932 280.66602c0 -4.610718 -10.449036 -8.348419 -23.338593 -8.348419l0 -5.834656l0 0c12.889557 0 23.338593 3.7377014 23.338593 8.348419l0 5.834656c0 3.8068542 -7.199524 7.131592 -17.503937 8.083313l0 2.917328l-5.834656 -5.5695496l5.834656 -6.0997314l0 2.917328l0 0c7.3823853 -0.68185425 13.368256 -2.6105957 16.032593 -5.1660156" fill-rule="evenodd"/><path stroke="#6aa84f" stroke-width="1.0" stroke-linejoin="round" stroke-linecap="butt" d="m301.45932 280.66602c0 -4.610718 -10.449036 -8.348419 -23.338593 -8.348419l0 -5.834656l0 0c12.889557 0 23.338593 3.7377014 23.338593 8.348419l0 5.834656c0 3.8068542 -7.199524 7.131592 -17.503937 8.083313l0 2.917328l-5.834656 -5.5695496l5.834656 -6.0997314l0 2.917328l0 0c7.3823853 -0.68185425 13.368256 -2.6105957 16.032593 -5.1660156" fill-rule="evenodd"/><path fill="#6aa84f" d="m59.076115 295.04724l5.8346443 -6.0997314l0 2.917328l0 0c7.3823853 -0.68185425 13.368248 -2.6105957 16.032593 -5.1660156l0 0c2.3107681 2.216278 1.884758 4.6791687 -1.1721573 6.776642c-3.0569153 2.0975037 -8.457764 3.63266 -14.8604355 4.223999l0 2.917328z" fill-rule="evenodd"/><path fill="#54863f" d="m82.414696 289.61615c0 -4.610718 -10.449036 -8.348419 -23.338581 -8.348419l0 -5.834656l0 0c12.889545 0 23.338581 3.7377014 23.338581 8.348419z" fill-rule="evenodd"/><path fill="#000000" fill-opacity="0.0" d="m82.414696 289.61615c0 -4.610718 -10.449036 -8.348419 -23.338581 -8.348419l0 -5.834656l0 0c12.889545 0 23.338581 3.7377014 23.338581 8.348419l0 5.834656c0 3.8068542 -7.1995163 7.131592 -17.503937 8.083313l0 2.917328l-5.8346443 -5.5695496l5.8346443 -6.0997314l0 2.917328l0 0c7.3823853 -0.68185425 13.368248 -2.6105957 16.032593 -5.1660156" fill-rule="evenodd"/><path stroke="#6aa84f" stroke-width="1.0" stroke-linejoin="round" stroke-linecap="butt" d="m82.414696 289.61615c0 -4.610718 -10.449036 -8.348419 -23.338581 -8.348419l0 -5.834656l0 0c12.889545 0 23.338581 3.7377014 23.338581 8.348419l0 5.834656c0 3.8068542 -7.1995163 7.131592 -17.503937 8.083313l0 2.917328l-5.8346443 -5.5695496l5.8346443 -6.0997314l0 2.917328l0 0c7.3823853 -0.68185425 13.368248 -2.6105957 16.032593 -5.1660156" fill-rule="evenodd"/><path fill="#000000" fill-opacity="0.0" d="m122.42519 136.55118l132.22049 0l0 60.12599l-132.22049 0z" fill-rule="evenodd"/><path fill="#6aa84f" d="m141.47208 158.13243q0 0.0625 -0.03125 0.109375q-0.03125 0.046875 -0.125 0.078125q-0.09375 0.03125 -0.25 0.046875q-0.15625 0.015625 -0.40625 0.015625q-0.234375 0 -0.390625 -0.015625q-0.15625 -0.015625 -0.25 -0.046875q-0.09375 -0.03125 -0.140625 -0.078125q-0.03125 -0.046875 -0.03125 -0.109375l0 -3.4375q0 -0.296875 -0.0625 -0.53125q-0.046875 -0.25 -0.171875 -0.421875q-0.109375 -0.171875 -0.28125 -0.265625q-0.171875 -0.09375 -0.40625 -0.09375q-0.296875 0 -0.59375 0.234375q-0.296875 0.21875 -0.65625 0.65625l0 3.859375q0 0.0625 -0.046875 0.109375q-0.03125 0.046875 -0.125 0.078125q-0.09375 0.03125 -0.25 0.046875q-0.15625 0.015625 -0.390625 0.015625q-0.234375 0 -0.390625 -0.015625q-0.15625 -0.015625 -0.25 -0.046875q-0.09375 -0.03125 -0.140625 -0.078125q-0.03125 -0.046875 -0.03125 -0.109375l0 -3.4375q0 -0.296875 -0.0625 -0.53125q-0.046875 -0.25 -0.171875 -0.421875q-0.109375 -0.171875 -0.28125 -0.265625q-0.171875 -0.09375 -0.40625 -0.09375q-0.296875 0 -0.59375 0.234375q-0.296875 0.21875 -0.65625 0.65625l0 3.859375q0 0.0625 -0.046875 0.109375q-0.03125 0.046875 -0.125 0.078125q-0.09375 0.03125 -0.25 0.046875q-0.15625 0.015625 -0.390625 0.015625q-0.234375 0 -0.390625 -0.015625q-0.15625 -0.015625 -0.265625 -0.046875q-0.09375 -0.03125 -0.140625 -0.078125q-0.03125 -0.046875 -0.03125 -0.109375l0 -5.8125q0 -0.0625 0.03125 -0.109375q0.046875 -0.046875 0.125 -0.078125q0.078125 -0.03125 0.21875 -0.046875q0.140625 -0.015625 0.328125 -0.015625q0.21875 0 0.34375 0.015625q0.140625 0.015625 0.21875 0.046875q0.078125 0.03125 0.109375 0.078125q0.03125 0.046875 0.03125 0.109375l0 0.671875q0.484375 -0.515625 0.953125 -0.765625q0.484375 -0.265625 1.0 -0.265625q0.359375 0 0.640625 0.078125q0.296875 0.0625 0.515625 0.203125q0.234375 0.140625 0.390625 0.34375q0.171875 0.1875 0.28125 0.421875q0.25 -0.265625 0.5 -0.46875q0.25 -0.203125 0.5 -0.328125q0.25 -0.140625 0.484375 -0.1875q0.25 -0.0625 0.5 -0.0625q0.578125 0 0.96875 0.203125q0.40625 0.1875 0.640625 0.515625q0.25 0.328125 0.34375 0.78125q0.109375 0.453125 0.109375 0.953125l0 3.71875zm6.5608673 0.015625q0 0.09375 -0.0625 0.15625q-0.0625 0.046875 -0.203125 0.0625q-0.140625 0.015625 -0.421875 0.015625q-0.28125 0 -0.421875 -0.015625q-0.140625 -0.015625 -0.203125 -0.0625q-0.046875 -0.0625 -0.046875 -0.15625l0 -0.453125q-0.359375 0.375 -0.8125 0.59375q-0.453125 0.21875 -1.015625 0.21875q-0.46875 0 -0.859375 -0.125q-0.375 -0.125 -0.65625 -0.359375q-0.28125 -0.234375 -0.4375 -0.578125q-0.15625 -0.359375 -0.15625 -0.828125q0 -0.515625 0.1875 -0.890625q0.203125 -0.375 0.59375 -0.609375q0.390625 -0.25 0.96875 -0.359375q0.59375 -0.125 1.375 -0.125l0.5625 0l0 -0.34375q0 -0.28125 -0.0625 -0.484375q-0.046875 -0.203125 -0.171875 -0.34375q-0.125 -0.140625 -0.34375 -0.203125q-0.203125 -0.0625 -0.515625 -0.0625q-0.40625 0 -0.734375 0.09375q-0.328125 0.09375 -0.578125 0.203125q-0.234375 0.109375 -0.40625 0.203125q-0.171875 0.09375 -0.265625 0.09375q-0.078125 0 -0.140625 -0.046875q-0.046875 -0.046875 -0.09375 -0.125q-0.03125 -0.09375 -0.046875 -0.21875q-0.015625 -0.125 -0.015625 -0.265625q0 -0.203125 0.03125 -0.3125q0.03125 -0.125 0.125 -0.21875q0.09375 -0.09375 0.3125 -0.203125q0.234375 -0.125 0.53125 -0.21875q0.3125 -0.109375 0.671875 -0.15625q0.359375 -0.0625 0.75 -0.0625q0.6875 0 1.171875 0.140625q0.484375 0.125 0.796875 0.40625q0.3125 0.265625 0.453125 0.703125q0.140625 0.4375 0.140625 1.03125l0 3.90625zm-1.609375 -2.484375l-0.625 0q-0.390625 0 -0.671875 0.0625q-0.28125 0.046875 -0.46875 0.171875q-0.171875 0.109375 -0.25 0.28125q-0.078125 0.171875 -0.078125 0.375q0 0.375 0.234375 0.578125q0.234375 0.203125 0.640625 0.203125q0.34375 0 0.625 -0.171875q0.296875 -0.171875 0.59375 -0.515625l0 -0.984375zm8.782593 2.46875q0 0.0625 -0.046875 0.109375q-0.03125 0.046875 -0.125 0.078125q-0.078125 0.03125 -0.25 0.046875q-0.15625 0.015625 -0.390625 0.015625q-0.234375 0 -0.40625 -0.015625q-0.15625 -0.015625 -0.25 -0.046875q-0.078125 -0.03125 -0.125 -0.078125q-0.03125 -0.046875 -0.03125 -0.109375l0 -3.3125q0 -0.421875 -0.0625 -0.65625q-0.0625 -0.25 -0.1875 -0.421875q-0.109375 -0.171875 -0.296875 -0.265625q-0.1875 -0.09375 -0.4375 -0.09375q-0.3125 0 -0.625 0.234375q-0.3125 0.21875 -0.671875 0.65625l0 3.859375q0 0.0625 -0.046875 0.109375q-0.03125 0.046875 -0.125 0.078125q-0.09375 0.03125 -0.25 0.046875q-0.15625 0.015625 -0.390625 0.015625q-0.234375 0 -0.390625 -0.015625q-0.15625 -0.015625 -0.265625 -0.046875q-0.09375 -0.03125 -0.140625 -0.078125q-0.03125 -0.046875 -0.03125 -0.109375l0 -5.8125q0 -0.0625 0.03125 -0.109375q0.046875 -0.046875 0.125 -0.078125q0.078125 -0.03125 0.21875 -0.046875q0.140625 -0.015625 0.328125 -0.015625q0.21875 0 0.34375 0.015625q0.140625 0.015625 0.21875 0.046875q0.078125 0.03125 0.109375 0.078125q0.03125 0.046875 0.03125 0.109375l0 0.671875q0.484375 -0.515625 0.984375 -0.765625q0.5 -0.265625 1.03125 -0.265625q0.59375 0 1.0 0.203125q0.40625 0.1875 0.65625 0.515625q0.25 0.328125 0.359375 0.78125q0.109375 0.453125 0.109375 1.078125l0 3.59375zm7.1209106 0q0 0.0625 -0.03125 0.109375q-0.03125 0.046875 -0.125 0.078125q-0.078125 0.03125 -0.21875 0.046875q-0.125 0.015625 -0.328125 0.015625q-0.203125 0 -0.34375 -0.015625q-0.140625 -0.015625 -0.21875 -0.046875q-0.078125 -0.03125 -0.109375 -0.078125q-0.03125 -0.046875 -0.03125 -0.109375l0 -0.671875q-0.484375 0.515625 -0.984375 0.78125q-0.484375 0.265625 -1.015625 0.265625q-0.609375 0 -1.015625 -0.1875q-0.40625 -0.203125 -0.65625 -0.546875q-0.25 -0.34375 -0.359375 -0.78125q-0.109375 -0.453125 -0.109375 -1.109375l0 -3.5625q0 -0.0625 0.03125 -0.109375q0.046875 -0.046875 0.140625 -0.078125q0.09375 -0.03125 0.25 -0.046875q0.15625 -0.015625 0.390625 -0.015625q0.25 0 0.40625 0.015625q0.15625 0.015625 0.25 0.046875q0.09375 0.03125 0.125 0.078125q0.046875 0.046875 0.046875 0.109375l0 3.28125q0 0.453125 0.046875 0.703125q0.0625 0.234375 0.1875 0.40625q0.125 0.171875 0.3125 0.265625q0.1875 0.09375 0.421875 0.09375q0.3125 0 0.625 -0.21875q0.328125 -0.234375 0.6875 -0.671875l0 -3.859375q0 -0.0625 0.03125 -0.109375q0.03125 -0.046875 0.125 -0.078125q0.09375 -0.03125 0.25 -0.046875q0.15625 -0.015625 0.40625 -0.015625q0.234375 0 0.390625 0.015625q0.15625 0.015625 0.25 0.046875q0.09375 0.03125 0.125 0.078125q0.046875 0.046875 0.046875 0.109375l0 5.8125zm6.5896606 0.015625q0 0.09375 -0.0625 0.15625q-0.0625 0.046875 -0.203125 0.0625q-0.140625 0.015625 -0.421875 0.015625q-0.28125 0 -0.421875 -0.015625q-0.140625 -0.015625 -0.203125 -0.0625q-0.046875 -0.0625 -0.046875 -0.15625l0 -0.453125q-0.359375 0.375 -0.8125 0.59375q-0.453125 0.21875 -1.015625 0.21875q-0.46875 0 -0.859375 -0.125q-0.375 -0.125 -0.65625 -0.359375q-0.28125 -0.234375 -0.4375 -0.578125q-0.15625 -0.359375 -0.15625 -0.828125q0 -0.515625 0.1875 -0.890625q0.203125 -0.375 0.59375 -0.609375q0.390625 -0.25 0.96875 -0.359375q0.59375 -0.125 1.375 -0.125l0.5625 0l0 -0.34375q0 -0.28125 -0.0625 -0.484375q-0.046875 -0.203125 -0.171875 -0.34375q-0.125 -0.140625 -0.34375 -0.203125q-0.203125 -0.0625 -0.515625 -0.0625q-0.40625 0 -0.734375 0.09375q-0.328125 0.09375 -0.578125 0.203125q-0.234375 0.109375 -0.40625 0.203125q-0.171875 0.09375 -0.265625 0.09375q-0.078125 0 -0.140625 -0.046875q-0.046875 -0.046875 -0.09375 -0.125q-0.03125 -0.09375 -0.046875 -0.21875q-0.015625 -0.125 -0.015625 -0.265625q0 -0.203125 0.03125 -0.3125q0.03125 -0.125 0.125 -0.21875q0.09375 -0.09375 0.3125 -0.203125q0.234375 -0.125 0.53125 -0.21875q0.3125 -0.109375 0.671875 -0.15625q0.359375 -0.0625 0.75 -0.0625q0.6875 0 1.171875 0.140625q0.484375 0.125 0.796875 0.40625q0.3125 0.265625 0.453125 0.703125q0.140625 0.4375 0.140625 1.03125l0 3.90625zm-1.609375 -2.484375l-0.625 0q-0.390625 0 -0.671875 0.0625q-0.28125 0.046875 -0.46875 0.171875q-0.171875 0.109375 -0.25 0.28125q-0.078125 0.171875 -0.078125 0.375q0 0.375 0.234375 0.578125q0.234375 0.203125 0.640625 0.203125q0.34375 0 0.625 -0.171875q0.296875 -0.171875 0.59375 -0.515625l0 -0.984375zm4.876343 2.46875q0 0.0625 -0.046875 0.109375q-0.03125 0.046875 -0.125 0.078125q-0.09375 0.03125 -0.25 0.046875q-0.15625 0.015625 -0.390625 0.015625q-0.234375 0 -0.390625 -0.015625q-0.15625 -0.015625 -0.265625 -0.046875q-0.09375 -0.03125 -0.140625 -0.078125q-0.03125 -0.046875 -0.03125 -0.109375l0 -8.5625q0 -0.0625 0.03125 -0.109375q0.046875 -0.0625 0.140625 -0.09375q0.109375 -0.03125 0.265625 -0.046875q0.15625 -0.03125 0.390625 -0.03125q0.234375 0 0.390625 0.03125q0.15625 0.015625 0.25 0.046875q0.09375 0.03125 0.125 0.09375q0.046875 0.046875 0.046875 0.109375l0 8.5625z" fill-rule="nonzero"/><path fill="#4a7dba" d="m138.09708 171.14806q0 0.78125 -0.171875 1.40625q-0.171875 0.609375 -0.5 1.046875q-0.3125 0.4375 -0.78125 0.671875q-0.46875 0.234375 -1.046875 0.234375q-0.296875 0 -0.5625 -0.0625q-0.25 -0.0625 -0.484375 -0.171875q-0.21875 -0.125 -0.453125 -0.3125q-0.21875 -0.1875 -0.453125 -0.46875l0 0.640625q0 0.0625 -0.046875 0.125q-0.03125 0.046875 -0.109375 0.078125q-0.078125 0.03125 -0.21875 0.03125q-0.125 0.015625 -0.328125 0.015625q-0.203125 0 -0.34375 -0.015625q-0.125 0 -0.203125 -0.03125q-0.078125 -0.03125 -0.125 -0.078125q-0.03125 -0.0625 -0.03125 -0.125l0 -8.5625q0 -0.0625 0.03125 -0.109375q0.046875 -0.0625 0.140625 -0.09375q0.109375 -0.03125 0.265625 -0.046875q0.15625 -0.03125 0.390625 -0.03125q0.234375 0 0.390625 0.03125q0.15625 0.015625 0.25 0.046875q0.09375 0.03125 0.125 0.09375q0.046875 0.046875 0.046875 0.109375l0 3.203125q0.234375 -0.21875 0.453125 -0.375q0.21875 -0.15625 0.4375 -0.25q0.21875 -0.109375 0.453125 -0.140625q0.234375 -0.046875 0.5 -0.046875q0.640625 0 1.09375 0.25q0.453125 0.25 0.734375 0.6875q0.28125 0.4375 0.40625 1.03125q0.140625 0.578125 0.140625 1.21875zm-1.703125 0.125q0 -0.375 -0.0625 -0.71875q-0.046875 -0.34375 -0.1875 -0.609375q-0.140625 -0.265625 -0.359375 -0.421875q-0.21875 -0.171875 -0.546875 -0.171875q-0.15625 0 -0.3125 0.046875q-0.15625 0.046875 -0.328125 0.15625q-0.171875 0.109375 -0.34375 0.296875q-0.171875 0.171875 -0.375 0.421875l0 1.9375q0.359375 0.4375 0.671875 0.671875q0.3125 0.21875 0.65625 0.21875q0.3125 0 0.53125 -0.15625q0.234375 -0.15625 0.375 -0.421875q0.140625 -0.265625 0.203125 -0.59375q0.078125 -0.328125 0.078125 -0.65625zm7.9490356 2.875q0 0.09375 -0.0625 0.15625q-0.0625 0.046875 -0.203125 0.0625q-0.140625 0.015625 -0.421875 0.015625q-0.28125 0 -0.421875 -0.015625q-0.140625 -0.015625 -0.203125 -0.0625q-0.046875 -0.0625 -0.046875 -0.15625l0 -0.453125q-0.359375 0.375 -0.8125 0.59375q-0.453125 0.21875 -1.015625 0.21875q-0.46875 0 -0.859375 -0.125q-0.375 -0.125 -0.65625 -0.359375q-0.28125 -0.234375 -0.4375 -0.578125q-0.15625 -0.359375 -0.15625 -0.828125q0 -0.515625 0.1875 -0.890625q0.203125 -0.375 0.59375 -0.609375q0.390625 -0.25 0.96875 -0.359375q0.59375 -0.125 1.375 -0.125l0.5625 0l0 -0.34375q0 -0.28125 -0.0625 -0.484375q-0.046875 -0.203125 -0.171875 -0.34375q-0.125 -0.140625 -0.34375 -0.203125q-0.203125 -0.0625 -0.515625 -0.0625q-0.40625 0 -0.734375 0.09375q-0.328125 0.09375 -0.578125 0.203125q-0.234375 0.109375 -0.40625 0.203125q-0.171875 0.09375 -0.265625 0.09375q-0.078125 0 -0.140625 -0.046875q-0.046875 -0.046875 -0.09375 -0.125q-0.03125 -0.09375 -0.046875 -0.21875q-0.015625 -0.125 -0.015625 -0.265625q0 -0.203125 0.03125 -0.3125q0.03125 -0.125 0.125 -0.21875q0.09375 -0.09375 0.3125 -0.203125q0.234375 -0.125 0.53125 -0.21875q0.3125 -0.109375 0.671875 -0.15625q0.359375 -0.0625 0.75 -0.0625q0.6875 0 1.171875 0.140625q0.484375 0.125 0.796875 0.40625q0.3125 0.265625 0.453125 0.703125q0.140625 0.4375 0.140625 1.03125l0 3.90625zm-1.609375 -2.484375l-0.625 0q-0.390625 0 -0.671875 0.0625q-0.28125 0.046875 -0.46875 0.171875q-0.171875 0.109375 -0.25 0.28125q-0.078125 0.171875 -0.078125 0.375q0 0.375 0.234375 0.578125q0.234375 0.203125 0.640625 0.203125q0.34375 0 0.625 -0.171875q0.296875 -0.171875 0.59375 -0.515625l0 -0.984375zm7.641968 1.546875q0 0.171875 -0.015625 0.28125q-0.015625 0.109375 -0.03125 0.1875q-0.015625 0.078125 -0.046875 0.125q-0.015625 0.046875 -0.09375 0.125q-0.078125 0.078125 -0.265625 0.1875q-0.1875 0.109375 -0.4375 0.1875q-0.234375 0.078125 -0.515625 0.125q-0.28125 0.0625 -0.578125 0.0625q-0.671875 0 -1.1875 -0.203125q-0.515625 -0.203125 -0.875 -0.609375q-0.34375 -0.421875 -0.53125 -1.0q-0.171875 -0.59375 -0.171875 -1.34375q0 -0.875 0.21875 -1.5q0.21875 -0.640625 0.609375 -1.046875q0.390625 -0.421875 0.921875 -0.625q0.53125 -0.203125 1.171875 -0.203125q0.265625 0 0.515625 0.046875q0.25 0.046875 0.46875 0.125q0.21875 0.078125 0.390625 0.171875q0.171875 0.09375 0.234375 0.171875q0.078125 0.0625 0.109375 0.125q0.03125 0.046875 0.046875 0.125q0.015625 0.078125 0.015625 0.1875q0.015625 0.109375 0.015625 0.28125q0 0.375 -0.0625 0.53125q-0.0625 0.140625 -0.171875 0.140625q-0.109375 0 -0.234375 -0.078125q-0.125 -0.09375 -0.296875 -0.203125q-0.171875 -0.109375 -0.40625 -0.203125q-0.234375 -0.09375 -0.546875 -0.09375q-0.640625 0 -0.984375 0.5q-0.34375 0.484375 -0.34375 1.4375q0 0.46875 0.078125 0.828125q0.09375 0.34375 0.265625 0.59375q0.171875 0.234375 0.421875 0.359375q0.25 0.125 0.578125 0.125q0.328125 0 0.578125 -0.09375q0.25 -0.109375 0.421875 -0.234375q0.1875 -0.125 0.3125 -0.21875q0.125 -0.109375 0.203125 -0.109375q0.0625 0 0.09375 0.03125q0.046875 0.03125 0.0625 0.125q0.03125 0.078125 0.046875 0.21875q0.015625 0.140625 0.015625 0.359375zm6.5772552 0.921875q0 0.0625 -0.046875 0.125q-0.03125 0.046875 -0.125 0.078125q-0.09375 0.015625 -0.265625 0.03125q-0.15625 0.015625 -0.40625 0.015625q-0.265625 0 -0.4375 -0.015625q-0.171875 0 -0.28125 -0.03125q-0.09375 -0.03125 -0.15625 -0.078125q-0.0625 -0.0625 -0.109375 -0.140625l-1.9375 -3.0625l0 3.078125q0 0.0625 -0.046875 0.109375q-0.03125 0.046875 -0.125 0.078125q-0.09375 0.03125 -0.25 0.046875q-0.15625 0.015625 -0.390625 0.015625q-0.234375 0 -0.390625 -0.015625q-0.15625 -0.015625 -0.265625 -0.046875q-0.09375 -0.03125 -0.140625 -0.078125q-0.03125 -0.046875 -0.03125 -0.109375l0 -8.5625q0 -0.0625 0.03125 -0.109375q0.046875 -0.0625 0.140625 -0.09375q0.109375 -0.03125 0.265625 -0.046875q0.15625 -0.03125 0.390625 -0.03125q0.234375 0 0.390625 0.03125q0.15625 0.015625 0.25 0.046875q0.09375 0.03125 0.125 0.09375q0.046875 0.046875 0.046875 0.109375l0 5.09375l1.71875 -2.3125q0.0625 -0.078125 0.125 -0.125q0.0625 -0.0625 0.171875 -0.09375q0.109375 -0.03125 0.265625 -0.046875q0.15625 -0.015625 0.40625 -0.015625q0.234375 0 0.40625 0.015625q0.171875 0.015625 0.265625 0.046875q0.109375 0.03125 0.140625 0.078125q0.046875 0.046875 0.046875 0.125q0 0.09375 -0.0625 0.203125q-0.046875 0.109375 -0.140625 0.234375l-1.703125 1.921875l1.96875 3.046875q0.078125 0.125 0.109375 0.21875q0.046875 0.09375 0.046875 0.171875zm6.2253723 -5.40625q0 0.3125 -0.078125 0.46875q-0.0625 0.140625 -0.15625 0.140625l-0.6875 0q0.140625 0.15625 0.203125 0.359375q0.0625 0.203125 0.0625 0.40625q0 0.515625 -0.171875 0.90625q-0.171875 0.390625 -0.484375 0.671875q-0.3125 0.265625 -0.765625 0.40625q-0.4375 0.140625 -0.984375 0.140625q-0.28125 0 -0.546875 -0.0625q-0.25 -0.078125 -0.375 -0.171875q-0.078125 0.09375 -0.140625 0.21875q-0.0625 0.109375 -0.0625 0.25q0 0.1875 0.15625 0.3125q0.171875 0.109375 0.46875 0.125l1.40625 0.046875q0.5 0.03125 0.890625 0.15625q0.390625 0.109375 0.640625 0.328125q0.265625 0.21875 0.40625 0.53125q0.140625 0.296875 0.140625 0.6875q0 0.4375 -0.1875 0.8125q-0.1875 0.375 -0.5625 0.65625q-0.375 0.28125 -0.953125 0.4375q-0.5625 0.171875 -1.328125 0.171875q-0.734375 0 -1.265625 -0.125q-0.515625 -0.109375 -0.859375 -0.328125q-0.328125 -0.203125 -0.484375 -0.5q-0.15625 -0.28125 -0.15625 -0.625q0 -0.21875 0.046875 -0.421875q0.0625 -0.1875 0.171875 -0.359375q0.109375 -0.171875 0.265625 -0.328125q0.15625 -0.171875 0.359375 -0.328125q-0.28125 -0.140625 -0.4375 -0.390625q-0.15625 -0.265625 -0.15625 -0.578125q0 -0.375 0.171875 -0.6875q0.1875 -0.328125 0.46875 -0.578125q-0.234375 -0.234375 -0.375 -0.546875q-0.125 -0.3125 -0.125 -0.796875q0 -0.5 0.171875 -0.90625q0.1875 -0.40625 0.5 -0.671875q0.328125 -0.28125 0.765625 -0.421875q0.4375 -0.15625 0.96875 -0.15625q0.28125 0 0.53125 0.03125q0.25 0.03125 0.46875 0.09375l1.84375 0q0.109375 0 0.171875 0.140625q0.0625 0.140625 0.0625 0.484375zm-2.09375 1.375q0 -0.46875 -0.265625 -0.71875q-0.265625 -0.265625 -0.734375 -0.265625q-0.234375 0 -0.421875 0.078125q-0.1875 0.078125 -0.3125 0.21875q-0.109375 0.140625 -0.171875 0.328125q-0.0625 0.1875 -0.0625 0.390625q0 0.4375 0.265625 0.703125q0.265625 0.25 0.71875 0.25q0.25 0 0.421875 -0.078125q0.1875 -0.078125 0.3125 -0.21875q0.125 -0.140625 0.1875 -0.3125q0.0625 -0.171875 0.0625 -0.375zm0.375 4.640625q0 -0.296875 -0.234375 -0.453125q-0.234375 -0.15625 -0.640625 -0.171875l-1.15625 -0.03125q-0.171875 0.125 -0.28125 0.234375q-0.09375 0.109375 -0.15625 0.21875q-0.0625 0.109375 -0.09375 0.203125q-0.015625 0.09375 -0.015625 0.203125q0 0.328125 0.328125 0.484375q0.34375 0.171875 0.9375 0.171875q0.375 0 0.625 -0.078125q0.25 -0.0625 0.40625 -0.1875q0.15625 -0.125 0.21875 -0.28125q0.0625 -0.15625 0.0625 -0.3125zm6.537903 -5.875q0 0.234375 -0.015625 0.390625q-0.015625 0.140625 -0.046875 0.234375q-0.015625 0.078125 -0.0625 0.109375q-0.03125 0.03125 -0.09375 0.03125q-0.0625 0 -0.125 -0.015625q-0.0625 -0.03125 -0.15625 -0.046875q-0.078125 -0.03125 -0.171875 -0.046875q-0.09375 -0.03125 -0.21875 -0.03125q-0.125 0 -0.265625 0.0625q-0.140625 0.046875 -0.28125 0.171875q-0.140625 0.109375 -0.3125 0.3125q-0.15625 0.1875 -0.34375 0.46875l0 3.625q0 0.0625 -0.046875 0.109375q-0.03125 0.046875 -0.125 0.078125q-0.09375 0.03125 -0.25 0.046875q-0.15625 0.015625 -0.390625 0.015625q-0.234375 0 -0.390625 -0.015625q-0.15625 -0.015625 -0.265625 -0.046875q-0.09375 -0.03125 -0.140625 -0.078125q-0.03125 -0.046875 -0.03125 -0.109375l0 -5.8125q0 -0.0625 0.03125 -0.109375q0.046875 -0.046875 0.125 -0.078125q0.078125 -0.03125 0.21875 -0.046875q0.140625 -0.015625 0.328125 -0.015625q0.21875 0 0.34375 0.015625q0.140625 0.015625 0.21875 0.046875q0.078125 0.03125 0.109375 0.078125q0.03125 0.046875 0.03125 0.109375l0 0.734375q0.234375 -0.328125 0.421875 -0.53125q0.203125 -0.21875 0.390625 -0.34375q0.1875 -0.125 0.359375 -0.171875q0.1875 -0.046875 0.375 -0.046875q0.078125 0 0.171875 0.015625q0.109375 0 0.203125 0.03125q0.109375 0.015625 0.1875 0.046875q0.078125 0.015625 0.109375 0.0625q0.046875 0.03125 0.0625 0.078125q0.015625 0.03125 0.015625 0.09375q0.015625 0.0625 0.015625 0.203125q0.015625 0.140625 0.015625 0.375zm6.878357 2.296875q0 0.75 -0.203125 1.359375q-0.1875 0.609375 -0.59375 1.0625q-0.390625 0.4375 -0.984375 0.6875q-0.59375 0.234375 -1.40625 0.234375q-0.765625 0 -1.34375 -0.21875q-0.5625 -0.21875 -0.953125 -0.625q-0.375 -0.40625 -0.5625 -1.0q-0.171875 -0.609375 -0.171875 -1.375q0 -0.75 0.1875 -1.359375q0.203125 -0.609375 0.59375 -1.046875q0.40625 -0.453125 1.0 -0.6875q0.59375 -0.234375 1.40625 -0.234375q0.78125 0 1.34375 0.21875q0.578125 0.203125 0.953125 0.609375q0.375 0.40625 0.546875 1.015625q0.1875 0.59375 0.1875 1.359375zm-1.6875 0.0625q0 -0.421875 -0.0625 -0.78125q-0.0625 -0.359375 -0.234375 -0.625q-0.15625 -0.265625 -0.4375 -0.421875q-0.265625 -0.15625 -0.671875 -0.15625q-0.359375 0 -0.640625 0.140625q-0.265625 0.140625 -0.453125 0.390625q-0.171875 0.25 -0.265625 0.625q-0.078125 0.359375 -0.078125 0.8125q0 0.4375 0.0625 0.796875q0.078125 0.359375 0.234375 0.625q0.15625 0.265625 0.421875 0.421875q0.28125 0.140625 0.6875 0.140625q0.375 0 0.640625 -0.125q0.28125 -0.140625 0.453125 -0.390625q0.171875 -0.265625 0.25 -0.625q0.09375 -0.359375 0.09375 -0.828125zm8.493301 2.90625q0 0.0625 -0.03125 0.109375q-0.03125 0.046875 -0.125 0.078125q-0.078125 0.03125 -0.21875 0.046875q-0.125 0.015625 -0.328125 0.015625q-0.203125 0 -0.34375 -0.015625q-0.140625 -0.015625 -0.21875 -0.046875q-0.078125 -0.03125 -0.109375 -0.078125q-0.03125 -0.046875 -0.03125 -0.109375l0 -0.671875q-0.484375 0.515625 -0.984375 0.78125q-0.484375 0.265625 -1.015625 0.265625q-0.609375 0 -1.015625 -0.1875q-0.40625 -0.203125 -0.65625 -0.546875q-0.25 -0.34375 -0.359375 -0.78125q-0.109375 -0.453125 -0.109375 -1.109375l0 -3.5625q0 -0.0625 0.03125 -0.109375q0.046875 -0.046875 0.140625 -0.078125q0.09375 -0.03125 0.25 -0.046875q0.15625 -0.015625 0.390625 -0.015625q0.25 0 0.40625 0.015625q0.15625 0.015625 0.25 0.046875q0.09375 0.03125 0.125 0.078125q0.046875 0.046875 0.046875 0.109375l0 3.28125q0 0.453125 0.046875 0.703125q0.0625 0.234375 0.1875 0.40625q0.125 0.171875 0.3125 0.265625q0.1875 0.09375 0.421875 0.09375q0.3125 0 0.625 -0.21875q0.328125 -0.234375 0.6875 -0.671875l0 -3.859375q0 -0.0625 0.03125 -0.109375q0.03125 -0.046875 0.125 -0.078125q0.09375 -0.03125 0.25 -0.046875q0.15625 -0.015625 0.40625 -0.015625q0.234375 0 0.390625 0.015625q0.15625 0.015625 0.25 0.046875q0.09375 0.03125 0.125 0.078125q0.046875 0.046875 0.046875 0.109375l0 5.8125zm7.1834106 0q0 0.0625 -0.046875 0.109375q-0.03125 0.046875 -0.125 0.078125q-0.078125 0.03125 -0.25 0.046875q-0.15625 0.015625 -0.390625 0.015625q-0.234375 0 -0.40625 -0.015625q-0.15625 -0.015625 -0.25 -0.046875q-0.078125 -0.03125 -0.125 -0.078125q-0.03125 -0.046875 -0.03125 -0.109375l0 -3.3125q0 -0.421875 -0.0625 -0.65625q-0.0625 -0.25 -0.1875 -0.421875q-0.109375 -0.171875 -0.296875 -0.265625q-0.1875 -0.09375 -0.4375 -0.09375q-0.3125 0 -0.625 0.234375q-0.3125 0.21875 -0.671875 0.65625l0 3.859375q0 0.0625 -0.046875 0.109375q-0.03125 0.046875 -0.125 0.078125q-0.09375 0.03125 -0.25 0.046875q-0.15625 0.015625 -0.390625 0.015625q-0.234375 0 -0.390625 -0.015625q-0.15625 -0.015625 -0.265625 -0.046875q-0.09375 -0.03125 -0.140625 -0.078125q-0.03125 -0.046875 -0.03125 -0.109375l0 -5.8125q0 -0.0625 0.03125 -0.109375q0.046875 -0.046875 0.125 -0.078125q0.078125 -0.03125 0.21875 -0.046875q0.140625 -0.015625 0.328125 -0.015625q0.21875 0 0.34375 0.015625q0.140625 0.015625 0.21875 0.046875q0.078125 0.03125 0.109375 0.078125q0.03125 0.046875 0.03125 0.109375l0 0.671875q0.484375 -0.515625 0.984375 -0.765625q0.5 -0.265625 1.03125 -0.265625q0.59375 0 1.0 0.203125q0.40625 0.1875 0.65625 0.515625q0.25 0.328125 0.359375 0.78125q0.109375 0.453125 0.109375 1.078125l0 3.59375zm7.1209106 0q0 0.0625 -0.03125 0.125q-0.03125 0.046875 -0.109375 0.078125q-0.078125 0.03125 -0.21875 0.03125q-0.125 0.015625 -0.328125 0.015625q-0.203125 0 -0.34375 -0.015625q-0.125 0 -0.203125 -0.03125q-0.078125 -0.03125 -0.125 -0.078125q-0.03125 -0.0625 -0.03125 -0.125l0 -0.640625q-0.453125 0.46875 -0.953125 0.75q-0.484375 0.265625 -1.078125 0.265625q-0.65625 0 -1.125 -0.25q-0.453125 -0.265625 -0.75 -0.703125q-0.28125 -0.4375 -0.421875 -1.015625q-0.125 -0.59375 -0.125 -1.234375q0 -0.765625 0.15625 -1.390625q0.171875 -0.625 0.484375 -1.046875q0.328125 -0.4375 0.796875 -0.671875q0.484375 -0.234375 1.109375 -0.234375q0.484375 0 0.875 0.203125q0.40625 0.1875 0.796875 0.578125l0 -3.15625q0 -0.0625 0.03125 -0.109375q0.03125 -0.046875 0.125 -0.078125q0.09375 -0.046875 0.25 -0.0625q0.15625 -0.03125 0.40625 -0.03125q0.234375 0 0.390625 0.03125q0.15625 0.015625 0.25 0.0625q0.09375 0.03125 0.125 0.078125q0.046875 0.046875 0.046875 0.109375l0 8.546875zm-1.625 -3.875q-0.359375 -0.453125 -0.6875 -0.6875q-0.3125 -0.234375 -0.671875 -0.234375q-0.3125 0 -0.546875 0.171875q-0.21875 0.15625 -0.359375 0.421875q-0.140625 0.265625 -0.21875 0.59375q-0.0625 0.328125 -0.0625 0.671875q0 0.359375 0.046875 0.703125q0.0625 0.34375 0.1875 0.625q0.140625 0.265625 0.359375 0.4375q0.234375 0.15625 0.5625 0.15625q0.171875 0 0.328125 -0.046875q0.171875 -0.046875 0.328125 -0.15625q0.171875 -0.125 0.34375 -0.296875q0.171875 -0.171875 0.390625 -0.4375l0 -1.921875z" fill-rule="nonzero"/><path fill="#78909c" d="m137.75333 190.13243q0 0.0625 -0.03125 0.125q-0.03125 0.046875 -0.109375 0.078125q-0.078125 0.03125 -0.21875 0.03125q-0.125 0.015625 -0.328125 0.015625q-0.203125 0 -0.34375 -0.015625q-0.125 0 -0.203125 -0.03125q-0.078125 -0.03125 -0.125 -0.078125q-0.03125 -0.0625 -0.03125 -0.125l0 -0.640625q-0.453125 0.46875 -0.953125 0.75q-0.484375 0.265625 -1.078125 0.265625q-0.65625 0 -1.125 -0.25q-0.453125 -0.265625 -0.75 -0.703125q-0.28125 -0.4375 -0.421875 -1.015625q-0.125 -0.59375 -0.125 -1.234375q0 -0.765625 0.15625 -1.390625q0.171875 -0.625 0.484375 -1.046875q0.328125 -0.4375 0.796875 -0.671875q0.484375 -0.234375 1.109375 -0.234375q0.484375 0 0.875 0.203125q0.40625 0.1875 0.796875 0.578125l0 -3.15625q0 -0.0625 0.03125 -0.109375q0.03125 -0.046875 0.125 -0.078125q0.09375 -0.046875 0.25 -0.0625q0.15625 -0.03125 0.40625 -0.03125q0.234375 0 0.390625 0.03125q0.15625 0.015625 0.25 0.0625q0.09375 0.03125 0.125 0.078125q0.046875 0.046875 0.046875 0.109375l0 8.546875zm-1.625 -3.875q-0.359375 -0.453125 -0.6875 -0.6875q-0.3125 -0.234375 -0.671875 -0.234375q-0.3125 0 -0.546875 0.171875q-0.21875 0.15625 -0.359375 0.421875q-0.140625 0.265625 -0.21875 0.59375q-0.0625 0.328125 -0.0625 0.671875q0 0.359375 0.046875 0.703125q0.0625 0.34375 0.1875 0.625q0.140625 0.265625 0.359375 0.4375q0.234375 0.15625 0.5625 0.15625q0.171875 0 0.328125 -0.046875q0.171875 -0.046875 0.328125 -0.15625q0.171875 -0.125 0.34375 -0.296875q0.171875 -0.171875 0.390625 -0.4375l0 -1.921875zm8.636536 0.796875q0 0.296875 -0.140625 0.453125q-0.125 0.140625 -0.359375 0.140625l-3.546875 0q0 0.359375 0.09375 0.671875q0.09375 0.296875 0.28125 0.515625q0.1875 0.203125 0.484375 0.3125q0.3125 0.109375 0.734375 0.109375q0.4375 0 0.75 -0.046875q0.328125 -0.0625 0.5625 -0.140625q0.25 -0.078125 0.40625 -0.140625q0.15625 -0.0625 0.25 -0.0625q0.0625 0 0.09375 0.03125q0.046875 0.015625 0.0625 0.078125q0.03125 0.046875 0.03125 0.15625q0.015625 0.109375 0.015625 0.28125q0 0.140625 -0.015625 0.25q0 0.09375 -0.015625 0.171875q0 0.0625 -0.03125 0.109375q-0.03125 0.046875 -0.078125 0.09375q-0.03125 0.046875 -0.21875 0.125q-0.1875 0.078125 -0.484375 0.15625q-0.296875 0.0625 -0.671875 0.125q-0.375 0.0625 -0.8125 0.0625q-0.765625 0 -1.359375 -0.1875q-0.578125 -0.203125 -0.96875 -0.59375q-0.390625 -0.40625 -0.578125 -1.015625q-0.1875 -0.609375 -0.1875 -1.421875q0 -0.765625 0.203125 -1.390625q0.203125 -0.625 0.578125 -1.046875q0.390625 -0.4375 0.9375 -0.65625q0.546875 -0.234375 1.234375 -0.234375q0.734375 0 1.25 0.21875q0.515625 0.203125 0.84375 0.59375q0.34375 0.375 0.5 0.890625q0.15625 0.515625 0.15625 1.140625l0 0.25zm-1.59375 -0.46875q0.015625 -0.6875 -0.28125 -1.078125q-0.296875 -0.390625 -0.90625 -0.390625q-0.3125 0 -0.546875 0.125q-0.234375 0.109375 -0.390625 0.3125q-0.140625 0.1875 -0.234375 0.46875q-0.078125 0.265625 -0.09375 0.5625l2.453125 0zm7.3346252 2.625q0 0.171875 -0.015625 0.28125q-0.015625 0.109375 -0.03125 0.1875q-0.015625 0.078125 -0.046875 0.125q-0.015625 0.046875 -0.09375 0.125q-0.078125 0.078125 -0.265625 0.1875q-0.1875 0.109375 -0.4375 0.1875q-0.234375 0.078125 -0.515625 0.125q-0.28125 0.0625 -0.578125 0.0625q-0.671875 0 -1.1875 -0.203125q-0.515625 -0.203125 -0.875 -0.609375q-0.34375 -0.421875 -0.53125 -1.0q-0.171875 -0.59375 -0.171875 -1.34375q0 -0.875 0.21875 -1.5q0.21875 -0.640625 0.609375 -1.046875q0.390625 -0.421875 0.921875 -0.625q0.53125 -0.203125 1.171875 -0.203125q0.265625 0 0.515625 0.046875q0.25 0.046875 0.46875 0.125q0.21875 0.078125 0.390625 0.171875q0.171875 0.09375 0.234375 0.171875q0.078125 0.0625 0.109375 0.125q0.03125 0.046875 0.046875 0.125q0.015625 0.078125 0.015625 0.1875q0.015625 0.109375 0.015625 0.28125q0 0.375 -0.0625 0.53125q-0.0625 0.140625 -0.171875 0.140625q-0.109375 0 -0.234375 -0.078125q-0.125 -0.09375 -0.296875 -0.203125q-0.171875 -0.109375 -0.40625 -0.203125q-0.234375 -0.09375 -0.546875 -0.09375q-0.640625 0 -0.984375 0.5q-0.34375 0.484375 -0.34375 1.4375q0 0.46875 0.078125 0.828125q0.09375 0.34375 0.265625 0.59375q0.171875 0.234375 0.421875 0.359375q0.25 0.125 0.578125 0.125q0.328125 0 0.578125 -0.09375q0.25 -0.109375 0.421875 -0.234375q0.1875 -0.125 0.3125 -0.21875q0.125 -0.109375 0.203125 -0.109375q0.0625 0 0.09375 0.03125q0.046875 0.03125 0.0625 0.125q0.03125 0.078125 0.046875 0.21875q0.015625 0.140625 0.015625 0.359375zm7.0460052 -2.046875q0 0.75 -0.203125 1.359375q-0.1875 0.609375 -0.59375 1.0625q-0.390625 0.4375 -0.984375 0.6875q-0.59375 0.234375 -1.40625 0.234375q-0.765625 0 -1.34375 -0.21875q-0.5625 -0.21875 -0.953125 -0.625q-0.375 -0.40625 -0.5625 -1.0q-0.171875 -0.609375 -0.171875 -1.375q0 -0.75 0.1875 -1.359375q0.203125 -0.609375 0.59375 -1.046875q0.40625 -0.453125 1.0 -0.6875q0.59375 -0.234375 1.40625 -0.234375q0.78125 0 1.34375 0.21875q0.578125 0.203125 0.953125 0.609375q0.375 0.40625 0.546875 1.015625q0.1875 0.59375 0.1875 1.359375zm-1.6875 0.0625q0 -0.421875 -0.0625 -0.78125q-0.0625 -0.359375 -0.234375 -0.625q-0.15625 -0.265625 -0.4375 -0.421875q-0.265625 -0.15625 -0.671875 -0.15625q-0.359375 0 -0.640625 0.140625q-0.265625 0.140625 -0.453125 0.390625q-0.171875 0.25 -0.265625 0.625q-0.078125 0.359375 -0.078125 0.8125q0 0.4375 0.0625 0.796875q0.078125 0.359375 0.234375 0.625q0.15625 0.265625 0.421875 0.421875q0.28125 0.140625 0.6875 0.140625q0.375 0 0.640625 -0.125q0.28125 -0.140625 0.453125 -0.390625q0.171875 -0.265625 0.25 -0.625q0.09375 -0.359375 0.09375 -0.828125zm12.212051 2.90625q0 0.0625 -0.03125 0.109375q-0.03125 0.046875 -0.125 0.078125q-0.09375 0.03125 -0.25 0.046875q-0.15625 0.015625 -0.40625 0.015625q-0.234375 0 -0.390625 -0.015625q-0.15625 -0.015625 -0.25 -0.046875q-0.09375 -0.03125 -0.140625 -0.078125q-0.03125 -0.046875 -0.03125 -0.109375l0 -3.4375q0 -0.296875 -0.0625 -0.53125q-0.046875 -0.25 -0.171875 -0.421875q-0.109375 -0.171875 -0.28125 -0.265625q-0.171875 -0.09375 -0.40625 -0.09375q-0.296875 0 -0.59375 0.234375q-0.296875 0.21875 -0.65625 0.65625l0 3.859375q0 0.0625 -0.046875 0.109375q-0.03125 0.046875 -0.125 0.078125q-0.09375 0.03125 -0.25 0.046875q-0.15625 0.015625 -0.390625 0.015625q-0.234375 0 -0.390625 -0.015625q-0.15625 -0.015625 -0.25 -0.046875q-0.09375 -0.03125 -0.140625 -0.078125q-0.03125 -0.046875 -0.03125 -0.109375l0 -3.4375q0 -0.296875 -0.0625 -0.53125q-0.046875 -0.25 -0.171875 -0.421875q-0.109375 -0.171875 -0.28125 -0.265625q-0.171875 -0.09375 -0.40625 -0.09375q-0.296875 0 -0.59375 0.234375q-0.296875 0.21875 -0.65625 0.65625l0 3.859375q0 0.0625 -0.046875 0.109375q-0.03125 0.046875 -0.125 0.078125q-0.09375 0.03125 -0.25 0.046875q-0.15625 0.015625 -0.390625 0.015625q-0.234375 0 -0.390625 -0.015625q-0.15625 -0.015625 -0.265625 -0.046875q-0.09375 -0.03125 -0.140625 -0.078125q-0.03125 -0.046875 -0.03125 -0.109375l0 -5.8125q0 -0.0625 0.03125 -0.109375q0.046875 -0.046875 0.125 -0.078125q0.078125 -0.03125 0.21875 -0.046875q0.140625 -0.015625 0.328125 -0.015625q0.21875 0 0.34375 0.015625q0.140625 0.015625 0.21875 0.046875q0.078125 0.03125 0.109375 0.078125q0.03125 0.046875 0.03125 0.109375l0 0.671875q0.484375 -0.515625 0.953125 -0.765625q0.484375 -0.265625 1.0 -0.265625q0.359375 0 0.640625 0.078125q0.296875 0.0625 0.515625 0.203125q0.234375 0.140625 0.390625 0.34375q0.171875 0.1875 0.28125 0.421875q0.25 -0.265625 0.5 -0.46875q0.25 -0.203125 0.5 -0.328125q0.25 -0.140625 0.484375 -0.1875q0.25 -0.0625 0.5 -0.0625q0.578125 0 0.96875 0.203125q0.40625 0.1875 0.640625 0.515625q0.25 0.328125 0.34375 0.78125q0.109375 0.453125 0.109375 0.953125l0 3.71875zm10.842117 0q0 0.0625 -0.03125 0.109375q-0.03125 0.046875 -0.125 0.078125q-0.09375 0.03125 -0.25 0.046875q-0.15625 0.015625 -0.40625 0.015625q-0.234375 0 -0.390625 -0.015625q-0.15625 -0.015625 -0.25 -0.046875q-0.09375 -0.03125 -0.140625 -0.078125q-0.03125 -0.046875 -0.03125 -0.109375l0 -3.4375q0 -0.296875 -0.0625 -0.53125q-0.046875 -0.25 -0.171875 -0.421875q-0.109375 -0.171875 -0.28125 -0.265625q-0.171875 -0.09375 -0.40625 -0.09375q-0.296875 0 -0.59375 0.234375q-0.296875 0.21875 -0.65625 0.65625l0 3.859375q0 0.0625 -0.046875 0.109375q-0.03125 0.046875 -0.125 0.078125q-0.09375 0.03125 -0.25 0.046875q-0.15625 0.015625 -0.390625 0.015625q-0.234375 0 -0.390625 -0.015625q-0.15625 -0.015625 -0.25 -0.046875q-0.09375 -0.03125 -0.140625 -0.078125q-0.03125 -0.046875 -0.03125 -0.109375l0 -3.4375q0 -0.296875 -0.0625 -0.53125q-0.046875 -0.25 -0.171875 -0.421875q-0.109375 -0.171875 -0.28125 -0.265625q-0.171875 -0.09375 -0.40625 -0.09375q-0.296875 0 -0.59375 0.234375q-0.296875 0.21875 -0.65625 0.65625l0 3.859375q0 0.0625 -0.046875 0.109375q-0.03125 0.046875 -0.125 0.078125q-0.09375 0.03125 -0.25 0.046875q-0.15625 0.015625 -0.390625 0.015625q-0.234375 0 -0.390625 -0.015625q-0.15625 -0.015625 -0.265625 -0.046875q-0.09375 -0.03125 -0.140625 -0.078125q-0.03125 -0.046875 -0.03125 -0.109375l0 -5.8125q0 -0.0625 0.03125 -0.109375q0.046875 -0.046875 0.125 -0.078125q0.078125 -0.03125 0.21875 -0.046875q0.140625 -0.015625 0.328125 -0.015625q0.21875 0 0.34375 0.015625q0.140625 0.015625 0.21875 0.046875q0.078125 0.03125 0.109375 0.078125q0.03125 0.046875 0.03125 0.109375l0 0.671875q0.484375 -0.515625 0.953125 -0.765625q0.484375 -0.265625 1.0 -0.265625q0.359375 0 0.640625 0.078125q0.296875 0.0625 0.515625 0.203125q0.234375 0.140625 0.390625 0.34375q0.171875 0.1875 0.28125 0.421875q0.25 -0.265625 0.5 -0.46875q0.25 -0.203125 0.5 -0.328125q0.25 -0.140625 0.484375 -0.1875q0.25 -0.0625 0.5 -0.0625q0.578125 0 0.96875 0.203125q0.40625 0.1875 0.640625 0.515625q0.25 0.328125 0.34375 0.78125q0.109375 0.453125 0.109375 0.953125l0 3.71875zm3.2483673 0q0 0.0625 -0.046875 0.109375q-0.03125 0.046875 -0.125 0.078125q-0.09375 0.03125 -0.25 0.046875q-0.15625 0.015625 -0.390625 0.015625q-0.234375 0 -0.390625 -0.015625q-0.15625 -0.015625 -0.265625 -0.046875q-0.09375 -0.03125 -0.140625 -0.078125q-0.03125 -0.046875 -0.03125 -0.109375l0 -5.796875q0 -0.0625 0.03125 -0.109375q0.046875 -0.046875 0.140625 -0.078125q0.109375 -0.046875 0.265625 -0.0625q0.15625 -0.015625 0.390625 -0.015625q0.234375 0 0.390625 0.015625q0.15625 0.015625 0.25 0.0625q0.09375 0.03125 0.125 0.078125q0.046875 0.046875 0.046875 0.109375l0 5.796875zm0.125 -7.765625q0 0.484375 -0.203125 0.671875q-0.1875 0.1875 -0.734375 0.1875q-0.5625 0 -0.75 -0.171875q-0.1875 -0.1875 -0.1875 -0.65625q0 -0.5 0.1875 -0.6875q0.203125 -0.203125 0.75 -0.203125q0.546875 0 0.734375 0.1875q0.203125 0.1875 0.203125 0.671875zm5.601593 6.125q0 0.5 -0.1875 0.875q-0.1875 0.375 -0.53125 0.625q-0.328125 0.25 -0.796875 0.375q-0.453125 0.140625 -1.0 0.140625q-0.328125 0 -0.625 -0.0625q-0.28125 -0.046875 -0.515625 -0.109375q-0.234375 -0.078125 -0.390625 -0.15625q-0.15625 -0.078125 -0.234375 -0.140625q-0.078125 -0.078125 -0.125 -0.21875q-0.03125 -0.15625 -0.03125 -0.4375q0 -0.1875 0.015625 -0.296875q0.015625 -0.125 0.03125 -0.1875q0.03125 -0.0625 0.0625 -0.078125q0.046875 -0.03125 0.109375 -0.03125q0.078125 0 0.21875 0.078125q0.140625 0.078125 0.34375 0.1875q0.203125 0.09375 0.484375 0.171875q0.28125 0.078125 0.625 0.078125q0.21875 0 0.390625 -0.03125q0.171875 -0.046875 0.296875 -0.125q0.140625 -0.09375 0.203125 -0.21875q0.0625 -0.140625 0.0625 -0.3125q0 -0.1875 -0.125 -0.328125q-0.109375 -0.140625 -0.3125 -0.25q-0.203125 -0.109375 -0.453125 -0.1875q-0.25 -0.09375 -0.515625 -0.203125q-0.265625 -0.109375 -0.515625 -0.25q-0.25 -0.15625 -0.453125 -0.359375q-0.1875 -0.203125 -0.3125 -0.5q-0.125 -0.296875 -0.125 -0.703125q0 -0.421875 0.15625 -0.765625q0.171875 -0.34375 0.46875 -0.59375q0.3125 -0.25 0.75 -0.375q0.453125 -0.140625 1.0 -0.140625q0.265625 0 0.515625 0.046875q0.265625 0.03125 0.46875 0.09375q0.21875 0.046875 0.359375 0.125q0.140625 0.0625 0.203125 0.109375q0.0625 0.046875 0.078125 0.09375q0.03125 0.046875 0.046875 0.125q0.015625 0.0625 0.015625 0.171875q0.015625 0.09375 0.015625 0.25q0 0.171875 -0.015625 0.28125q0 0.109375 -0.03125 0.171875q-0.015625 0.0625 -0.0625 0.09375q-0.03125 0.015625 -0.078125 0.015625q-0.0625 0 -0.1875 -0.0625q-0.125 -0.078125 -0.3125 -0.15625q-0.1875 -0.078125 -0.4375 -0.140625q-0.234375 -0.0625 -0.546875 -0.0625q-0.21875 0 -0.390625 0.046875q-0.15625 0.046875 -0.265625 0.125q-0.09375 0.078125 -0.15625 0.203125q-0.046875 0.109375 -0.046875 0.234375q0 0.203125 0.125 0.34375q0.125 0.140625 0.328125 0.25q0.203125 0.09375 0.453125 0.1875q0.265625 0.09375 0.515625 0.203125q0.265625 0.09375 0.515625 0.25q0.265625 0.140625 0.46875 0.34375q0.203125 0.203125 0.328125 0.5q0.125 0.28125 0.125 0.6875zm5.3169403 0q0 0.5 -0.1875 0.875q-0.1875 0.375 -0.53125 0.625q-0.328125 0.25 -0.796875 0.375q-0.453125 0.140625 -1.0 0.140625q-0.328125 0 -0.625 -0.0625q-0.28125 -0.046875 -0.515625 -0.109375q-0.234375 -0.078125 -0.390625 -0.15625q-0.15625 -0.078125 -0.234375 -0.140625q-0.078125 -0.078125 -0.125 -0.21875q-0.03125 -0.15625 -0.03125 -0.4375q0 -0.1875 0.015625 -0.296875q0.015625 -0.125 0.03125 -0.1875q0.03125 -0.0625 0.0625 -0.078125q0.046875 -0.03125 0.109375 -0.03125q0.078125 0 0.21875 0.078125q0.140625 0.078125 0.34375 0.1875q0.203125 0.09375 0.484375 0.171875q0.28125 0.078125 0.625 0.078125q0.21875 0 0.390625 -0.03125q0.171875 -0.046875 0.296875 -0.125q0.140625 -0.09375 0.203125 -0.21875q0.0625 -0.140625 0.0625 -0.3125q0 -0.1875 -0.125 -0.328125q-0.109375 -0.140625 -0.3125 -0.25q-0.203125 -0.109375 -0.453125 -0.1875q-0.25 -0.09375 -0.515625 -0.203125q-0.265625 -0.109375 -0.515625 -0.25q-0.25 -0.15625 -0.453125 -0.359375q-0.1875 -0.203125 -0.3125 -0.5q-0.125 -0.296875 -0.125 -0.703125q0 -0.421875 0.15625 -0.765625q0.171875 -0.34375 0.46875 -0.59375q0.3125 -0.25 0.75 -0.375q0.453125 -0.140625 1.0 -0.140625q0.265625 0 0.515625 0.046875q0.265625 0.03125 0.46875 0.09375q0.21875 0.046875 0.359375 0.125q0.140625 0.0625 0.203125 0.109375q0.0625 0.046875 0.078125 0.09375q0.03125 0.046875 0.046875 0.125q0.015625 0.0625 0.015625 0.171875q0.015625 0.09375 0.015625 0.25q0 0.171875 -0.015625 0.28125q0 0.109375 -0.03125 0.171875q-0.015625 0.0625 -0.0625 0.09375q-0.03125 0.015625 -0.078125 0.015625q-0.0625 0 -0.1875 -0.0625q-0.125 -0.078125 -0.3125 -0.15625q-0.1875 -0.078125 -0.4375 -0.140625q-0.234375 -0.0625 -0.546875 -0.0625q-0.21875 0 -0.390625 0.046875q-0.15625 0.046875 -0.265625 0.125q-0.09375 0.078125 -0.15625 0.203125q-0.046875 0.109375 -0.046875 0.234375q0 0.203125 0.125 0.34375q0.125 0.140625 0.328125 0.25q0.203125 0.09375 0.453125 0.1875q0.265625 0.09375 0.515625 0.203125q0.265625 0.09375 0.515625 0.25q0.265625 0.140625 0.46875 0.34375q0.203125 0.203125 0.328125 0.5q0.125 0.28125 0.125 0.6875zm2.8638153 1.640625q0 0.0625 -0.046875 0.109375q-0.03125 0.046875 -0.125 0.078125q-0.09375 0.03125 -0.25 0.046875q-0.15625 0.015625 -0.390625 0.015625q-0.234375 0 -0.390625 -0.015625q-0.15625 -0.015625 -0.265625 -0.046875q-0.09375 -0.03125 -0.140625 -0.078125q-0.03125 -0.046875 -0.03125 -0.109375l0 -5.796875q0 -0.0625 0.03125 -0.109375q0.046875 -0.046875 0.140625 -0.078125q0.109375 -0.046875 0.265625 -0.0625q0.15625 -0.015625 0.390625 -0.015625q0.234375 0 0.390625 0.015625q0.15625 0.015625 0.25 0.0625q0.09375 0.03125 0.125 0.078125q0.046875 0.046875 0.046875 0.109375l0 5.796875zm0.125 -7.765625q0 0.484375 -0.203125 0.671875q-0.1875 0.1875 -0.734375 0.1875q-0.5625 0 -0.75 -0.171875q-0.1875 -0.1875 -0.1875 -0.65625q0 -0.5 0.1875 -0.6875q0.203125 -0.203125 0.75 -0.203125q0.546875 0 0.734375 0.1875q0.203125 0.1875 0.203125 0.671875zm7.382843 4.796875q0 0.75 -0.203125 1.359375q-0.1875 0.609375 -0.59375 1.0625q-0.390625 0.4375 -0.984375 0.6875q-0.59375 0.234375 -1.40625 0.234375q-0.765625 0 -1.34375 -0.21875q-0.5625 -0.21875 -0.953125 -0.625q-0.375 -0.40625 -0.5625 -1.0q-0.171875 -0.609375 -0.171875 -1.375q0 -0.75 0.1875 -1.359375q0.203125 -0.609375 0.59375 -1.046875q0.40625 -0.453125 1.0 -0.6875q0.59375 -0.234375 1.40625 -0.234375q0.78125 0 1.34375 0.21875q0.578125 0.203125 0.953125 0.609375q0.375 0.40625 0.546875 1.015625q0.1875 0.59375 0.1875 1.359375zm-1.6875 0.0625q0 -0.421875 -0.0625 -0.78125q-0.0625 -0.359375 -0.234375 -0.625q-0.15625 -0.265625 -0.4375 -0.421875q-0.265625 -0.15625 -0.671875 -0.15625q-0.359375 0 -0.640625 0.140625q-0.265625 0.140625 -0.453125 0.390625q-0.171875 0.25 -0.265625 0.625q-0.078125 0.359375 -0.078125 0.8125q0 0.4375 0.0625 0.796875q0.078125 0.359375 0.234375 0.625q0.15625 0.265625 0.421875 0.421875q0.28125 0.140625 0.6875 0.140625q0.375 0 0.640625 -0.125q0.28125 -0.140625 0.453125 -0.390625q0.171875 -0.265625 0.25 -0.625q0.09375 -0.359375 0.09375 -0.828125zm8.524551 2.90625q0 0.0625 -0.046875 0.109375q-0.03125 0.046875 -0.125 0.078125q-0.078125 0.03125 -0.25 0.046875q-0.15625 0.015625 -0.390625 0.015625q-0.234375 0 -0.40625 -0.015625q-0.15625 -0.015625 -0.25 -0.046875q-0.078125 -0.03125 -0.125 -0.078125q-0.03125 -0.046875 -0.03125 -0.109375l0 -3.3125q0 -0.421875 -0.0625 -0.65625q-0.0625 -0.25 -0.1875 -0.421875q-0.109375 -0.171875 -0.296875 -0.265625q-0.1875 -0.09375 -0.4375 -0.09375q-0.3125 0 -0.625 0.234375q-0.3125 0.21875 -0.671875 0.65625l0 3.859375q0 0.0625 -0.046875 0.109375q-0.03125 0.046875 -0.125 0.078125q-0.09375 0.03125 -0.25 0.046875q-0.15625 0.015625 -0.390625 0.015625q-0.234375 0 -0.390625 -0.015625q-0.15625 -0.015625 -0.265625 -0.046875q-0.09375 -0.03125 -0.140625 -0.078125q-0.03125 -0.046875 -0.03125 -0.109375l0 -5.8125q0 -0.0625 0.03125 -0.109375q0.046875 -0.046875 0.125 -0.078125q0.078125 -0.03125 0.21875 -0.046875q0.140625 -0.015625 0.328125 -0.015625q0.21875 0 0.34375 0.015625q0.140625 0.015625 0.21875 0.046875q0.078125 0.03125 0.109375 0.078125q0.03125 0.046875 0.03125 0.109375l0 0.671875q0.484375 -0.515625 0.984375 -0.765625q0.5 -0.265625 1.03125 -0.265625q0.59375 0 1.0 0.203125q0.40625 0.1875 0.65625 0.515625q0.25 0.328125 0.359375 0.78125q0.109375 0.453125 0.109375 1.078125l0 3.59375zm3.2459106 0q0 0.0625 -0.046875 0.109375q-0.03125 0.046875 -0.125 0.078125q-0.09375 0.03125 -0.25 0.046875q-0.15625 0.015625 -0.390625 0.015625q-0.234375 0 -0.390625 -0.015625q-0.15625 -0.015625 -0.265625 -0.046875q-0.09375 -0.03125 -0.140625 -0.078125q-0.03125 -0.046875 -0.03125 -0.109375l0 -5.796875q0 -0.0625 0.03125 -0.109375q0.046875 -0.046875 0.140625 -0.078125q0.109375 -0.046875 0.265625 -0.0625q0.15625 -0.015625 0.390625 -0.015625q0.234375 0 0.390625 0.015625q0.15625 0.015625 0.25 0.0625q0.09375 0.03125 0.125 0.078125q0.046875 0.046875 0.046875 0.109375l0 5.796875zm0.125 -7.765625q0 0.484375 -0.203125 0.671875q-0.1875 0.1875 -0.734375 0.1875q-0.5625 0 -0.75 -0.171875q-0.1875 -0.1875 -0.1875 -0.65625q0 -0.5 0.1875 -0.6875q0.203125 -0.203125 0.75 -0.203125q0.546875 0 0.734375 0.1875q0.203125 0.1875 0.203125 0.671875zm7.054718 7.765625q0 0.0625 -0.046875 0.109375q-0.03125 0.046875 -0.125 0.078125q-0.078125 0.03125 -0.25 0.046875q-0.15625 0.015625 -0.390625 0.015625q-0.234375 0 -0.40625 -0.015625q-0.15625 -0.015625 -0.25 -0.046875q-0.078125 -0.03125 -0.125 -0.078125q-0.03125 -0.046875 -0.03125 -0.109375l0 -3.3125q0 -0.421875 -0.0625 -0.65625q-0.0625 -0.25 -0.1875 -0.421875q-0.109375 -0.171875 -0.296875 -0.265625q-0.1875 -0.09375 -0.4375 -0.09375q-0.3125 0 -0.625 0.234375q-0.3125 0.21875 -0.671875 0.65625l0 3.859375q0 0.0625 -0.046875 0.109375q-0.03125 0.046875 -0.125 0.078125q-0.09375 0.03125 -0.25 0.046875q-0.15625 0.015625 -0.390625 0.015625q-0.234375 0 -0.390625 -0.015625q-0.15625 -0.015625 -0.265625 -0.046875q-0.09375 -0.03125 -0.140625 -0.078125q-0.03125 -0.046875 -0.03125 -0.109375l0 -5.8125q0 -0.0625 0.03125 -0.109375q0.046875 -0.046875 0.125 -0.078125q0.078125 -0.03125 0.21875 -0.046875q0.140625 -0.015625 0.328125 -0.015625q0.21875 0 0.34375 0.015625q0.140625 0.015625 0.21875 0.046875q0.078125 0.03125 0.109375 0.078125q0.03125 0.046875 0.03125 0.109375l0 0.671875q0.484375 -0.515625 0.984375 -0.765625q0.5 -0.265625 1.03125 -0.265625q0.59375 0 1.0 0.203125q0.40625 0.1875 0.65625 0.515625q0.25 0.328125 0.359375 0.78125q0.109375 0.453125 0.109375 1.078125l0 3.59375zm6.8396606 -5.40625q0 0.3125 -0.078125 0.46875q-0.0625 0.140625 -0.15625 0.140625l-0.6875 0q0.140625 0.15625 0.203125 0.359375q0.0625 0.203125 0.0625 0.40625q0 0.515625 -0.171875 0.90625q-0.171875 0.390625 -0.484375 0.671875q-0.3125 0.265625 -0.765625 0.40625q-0.4375 0.140625 -0.984375 0.140625q-0.28125 0 -0.546875 -0.0625q-0.25 -0.078125 -0.375 -0.171875q-0.078125 0.09375 -0.140625 0.21875q-0.0625 0.109375 -0.0625 0.25q0 0.1875 0.15625 0.3125q0.171875 0.109375 0.46875 0.125l1.40625 0.046875q0.5 0.03125 0.890625 0.15625q0.390625 0.109375 0.640625 0.328125q0.265625 0.21875 0.40625 0.53125q0.140625 0.296875 0.140625 0.6875q0 0.4375 -0.1875 0.8125q-0.1875 0.375 -0.5625 0.65625q-0.375 0.28125 -0.953125 0.4375q-0.5625 0.171875 -1.328125 0.171875q-0.734375 0 -1.265625 -0.125q-0.515625 -0.109375 -0.859375 -0.328125q-0.328125 -0.203125 -0.484375 -0.5q-0.15625 -0.28125 -0.15625 -0.625q0 -0.21875 0.046875 -0.421875q0.0625 -0.1875 0.171875 -0.359375q0.109375 -0.171875 0.265625 -0.328125q0.15625 -0.171875 0.359375 -0.328125q-0.28125 -0.140625 -0.4375 -0.390625q-0.15625 -0.265625 -0.15625 -0.578125q0 -0.375 0.171875 -0.6875q0.1875 -0.328125 0.46875 -0.578125q-0.234375 -0.234375 -0.375 -0.546875q-0.125 -0.3125 -0.125 -0.796875q0 -0.5 0.171875 -0.90625q0.1875 -0.40625 0.5 -0.671875q0.328125 -0.28125 0.765625 -0.421875q0.4375 -0.15625 0.96875 -0.15625q0.28125 0 0.53125 0.03125q0.25 0.03125 0.46875 0.09375l1.84375 0q0.109375 0 0.171875 0.140625q0.0625 0.140625 0.0625 0.484375zm-2.09375 1.375q0 -0.46875 -0.265625 -0.71875q-0.265625 -0.265625 -0.734375 -0.265625q-0.234375 0 -0.421875 0.078125q-0.1875 0.078125 -0.3125 0.21875q-0.109375 0.140625 -0.171875 0.328125q-0.0625 0.1875 -0.0625 0.390625q0 0.4375 0.265625 0.703125q0.265625 0.25 0.71875 0.25q0.25 0 0.421875 -0.078125q0.1875 -0.078125 0.3125 -0.21875q0.125 -0.140625 0.1875 -0.3125q0.0625 -0.171875 0.0625 -0.375zm0.375 4.640625q0 -0.296875 -0.234375 -0.453125q-0.234375 -0.15625 -0.640625 -0.171875l-1.15625 -0.03125q-0.171875 0.125 -0.28125 0.234375q-0.09375 0.109375 -0.15625 0.21875q-0.0625 0.109375 -0.09375 0.203125q-0.015625 0.09375 -0.015625 0.203125q0 0.328125 0.328125 0.484375q0.34375 0.171875 0.9375 0.171875q0.375 0 0.625 -0.078125q0.25 -0.0625 0.40625 -0.1875q0.15625 -0.125 0.21875 -0.28125q0.0625 -0.15625 0.0625 -0.3125z" fill-rule="nonzero"/><path fill="#000000" fill-opacity="0.0" d="m71.314964 109.21785l185.5433 0" fill-rule="evenodd"/><path stroke="#78909c" stroke-width="3.0" stroke-linejoin="round" stroke-linecap="butt" d="m71.314964 109.21785l167.5433 0" fill-rule="evenodd"/><path fill="#78909c" stroke="#78909c" stroke-width="3.0" stroke-linecap="butt" d="m238.85826 114.17304l13.614304 -4.9551926l-13.614304 -4.9552z" fill-rule="evenodd"/><path fill="#000000" fill-opacity="0.0" d="m261.3281 180.63255l0 0c0 -40.321136 5.9789124 -73.00788 13.354309 -73.00788l0 0c3.541809 0 6.9385376 7.6918793 9.442963 21.383507c2.5043945 13.691635 3.911377 32.261475 3.911377 51.624374l0 0c0 40.32112 -5.978943 73.00787 -13.35434 73.00787l0 0c-3.5417786 0 -6.938507 -7.6918793 -9.442932 -21.383514c-2.504425 -13.691635 -3.911377 -32.261475 -3.911377 -51.62436z" fill-rule="evenodd"/><path stroke="#78909c" stroke-width="3.0" stroke-linejoin="round" stroke-linecap="butt" d="m261.3281 180.63255l0 0c0 -40.321136 5.9789124 -73.00788 13.354309 -73.00788l0 0c3.541809 0 6.9385376 7.6918793 9.442963 21.383507c2.5043945 13.691635 3.911377 32.261475 3.911377 51.624374l0 0c0 40.32112 -5.978943 73.00787 -13.35434 73.00787l0 0c-3.5417786 0 -6.938507 -7.6918793 -9.442932 -21.383514c-2.504425 -13.691635 -3.911377 -32.261475 -3.911377 -51.62436z" fill-rule="evenodd"/><path fill="#78909c" d="m231.30708 82.838585l5.834656 -6.0997467l0 2.917328l0 0c7.38237 -0.681839 13.36824 -2.6105957 16.032593 -5.166008l0 0c2.3107605 2.216278 1.8847504 4.6791763 -1.1721649 6.776657c-3.0569153 2.0974808 -8.457764 3.6326447 -14.860428 4.2239914l0 2.917328z" fill-rule="evenodd"/><path fill="#5f737c" d="m254.64568 77.40748c0 -4.6107025 -10.449051 -8.348427 -23.338593 -8.348427l0 -5.8346405l0 0c12.889542 0 23.338593 3.7377167 23.338593 8.348427z" fill-rule="evenodd"/><path fill="#000000" fill-opacity="0.0" d="m254.64568 77.40748c0 -4.6107025 -10.449051 -8.348427 -23.338593 -8.348427l0 -5.8346405l0 0c12.889542 0 23.338593 3.7377167 23.338593 8.348427l0 5.8346405c0 3.8068695 -7.199524 7.1316147 -17.503937 8.083328l0 2.917328l-5.834656 -5.5695496l5.834656 -6.0997467l0 2.917328l0 0c7.38237 -0.681839 13.36824 -2.6105957 16.032593 -5.166008" fill-rule="evenodd"/><path stroke="#78909c" stroke-width="1.0" stroke-linejoin="round" stroke-linecap="butt" d="m254.64568 77.40748c0 -4.6107025 -10.449051 -8.348427 -23.338593 -8.348427l0 -5.8346405l0 0c12.889542 0 23.338593 3.7377167 23.338593 8.348427l0 5.8346405c0 3.8068695 -7.199524 7.1316147 -17.503937 8.083328l0 2.917328l-5.834656 -5.5695496l5.834656 -6.0997467l0 2.917328l0 0c7.38237 -0.681839 13.36824 -2.6105957 16.032593 -5.166008" fill-rule="evenodd"/><path fill="#78909c" d="m256.07874 286.0958l5.834656 -6.0997314l0 2.917328l0 0c7.3823853 -0.68185425 13.368225 -2.6105957 16.032593 -5.1660156l0 0c2.3107605 2.216278 1.8847351 4.6791687 -1.1721802 6.7766724c-3.0569153 2.0974731 -8.457733 3.6326294 -14.860413 4.2239685l0 2.917328z" fill-rule="evenodd"/><path fill="#5f737c" d="m279.41733 280.6647c0 -4.610718 -10.449036 -8.348419 -23.338593 -8.348419l0 -5.834656l0 0c12.889557 0 23.338593 3.7377014 23.338593 8.348419z" fill-rule="evenodd"/><path fill="#000000" fill-opacity="0.0" d="m279.41733 280.6647c0 -4.610718 -10.449036 -8.348419 -23.338593 -8.348419l0 -5.834656l0 0c12.889557 0 23.338593 3.7377014 23.338593 8.348419l0 5.834656c0 3.8068542 -7.199524 7.131592 -17.503937 8.083313l0 2.917328l-5.834656 -5.5695496l5.834656 -6.0997314l0 2.917328l0 0c7.3823853 -0.68185425 13.368225 -2.6105957 16.032593 -5.1660156" fill-rule="evenodd"/><path stroke="#78909c" stroke-width="1.0" stroke-linejoin="round" stroke-linecap="butt" d="m279.41733 280.6647c0 -4.610718 -10.449036 -8.348419 -23.338593 -8.348419l0 -5.834656l0 0c12.889557 0 23.338593 3.7377014 23.338593 8.348419l0 5.834656c0 3.8068542 -7.199524 7.131592 -17.503937 8.083313l0 2.917328l-5.834656 -5.5695496l5.834656 -6.0997314l0 2.917328l0 0c7.3823853 -0.68185425 13.368225 -2.6105957 16.032593 -5.1660156" fill-rule="evenodd"/><path fill="#78909c" d="m46.91601 266.1168l5.8346443 -6.0997314l0 2.917328l0 0c7.3823814 -0.68185425 13.368248 -2.6105957 16.032593 -5.1660156l0 0c2.3107605 2.216278 1.884758 4.6791687 -1.1721649 6.7766724c-3.0569153 2.0974731 -8.457756 3.6326294 -14.860428 4.2239685l0 2.917328z" fill-rule="evenodd"/><path fill="#5f737c" d="m70.25459 260.6857c0 -4.610718 -10.449039 -8.348434 -23.338581 -8.348434l0 -5.8346405l0 0c12.889542 0 23.338581 3.7377167 23.338581 8.348419z" fill-rule="evenodd"/><path fill="#000000" fill-opacity="0.0" d="m70.25459 260.6857c0 -4.610718 -10.449039 -8.348434 -23.338581 -8.348434l0 -5.8346405l0 0c12.889542 0 23.338581 3.7377167 23.338581 8.348419l0 5.834656c0 3.8068542 -7.199524 7.1316223 -17.503937 8.083313l0 2.917328l-5.8346443 -5.5695496l5.8346443 -6.0997314l0 2.917328l0 0c7.3823814 -0.68185425 13.368248 -2.6105957 16.032593 -5.1660156" fill-rule="evenodd"/><path stroke="#78909c" stroke-width="1.0" stroke-linejoin="round" stroke-linecap="butt" d="m70.25459 260.6857c0 -4.610718 -10.449039 -8.348434 -23.338581 -8.348434l0 -5.8346405l0 0c12.889542 0 23.338581 3.7377167 23.338581 8.348419l0 5.834656c0 3.8068542 -7.199524 7.1316223 -17.503937 8.083313l0 2.917328l-5.8346443 -5.5695496l5.8346443 -6.0997314l0 2.917328l0 0c7.3823814 -0.68185425 13.368248 -2.6105957 16.032593 -5.1660156" fill-rule="evenodd"/></g></svg>