<svg version="1.1" viewBox="0.0 0.0 365.6640419947507 266.96587926509187" fill="none" stroke="none" stroke-linecap="square" stroke-miterlimit="10" xmlns:xlink="http://www.w3.org/1999/xlink" xmlns="http://www.w3.org/2000/svg"><clipPath id="p.0"><path d="m0 0l365.66403 0l0 266.96588l-365.66403 0l0 -266.96588z" clip-rule="nonzero"/></clipPath><g clip-path="url(#p.0)"><path fill="#000000" fill-opacity="0.0" d="m0 0l365.66403 0l0 266.96588l-365.66403 0z" fill-rule="evenodd"/><path fill="#000000" fill-opacity="0.0" d="m11.039371 152.87138l0 0c0 -55.22847 46.012436 -99.99999 102.77165 -99.99999l0 0c27.256744 0 53.39711 10.535683 72.67053 29.289322c19.273422 18.75364 30.10112 44.189026 30.10112 70.71067l0 0c0 55.228485 -46.012436 100.0 -102.77165 100.0l0 0c-56.759212 0 -102.77165 -44.771515 -102.77165 -100.0z" fill-rule="evenodd"/><path stroke="#595959" stroke-width="2.0" stroke-linejoin="round" stroke-linecap="butt" d="m11.039371 152.87138l0 0c0 -55.22847 46.012436 -99.99999 102.77165 -99.99999l0 0c27.256744 0 53.39711 10.535683 72.67053 29.289322c19.273422 18.75364 30.10112 44.189026 30.10112 70.71067l0 0c0 55.228485 -46.012436 100.0 -102.77165 100.0l0 0c-56.759212 0 -102.77165 -44.771515 -102.77165 -100.0z" fill-rule="evenodd"/><path fill="#000000" fill-opacity="0.0" d="m144.81627 152.87138l0 0c0 -55.22847 46.012436 -99.99999 102.77165 -99.99999l0 0c27.256744 0 53.397125 10.535683 72.67053 29.289322c19.273438 18.75364 30.101135 44.189026 30.101135 70.71067l0 0c0 55.228485 -46.01245 100.0 -102.77167 100.0l0 0c-56.759216 0 -102.77165 -44.771515 -102.77165 -100.0z" fill-rule="evenodd"/><path stroke="#595959" stroke-width="2.0" stroke-linejoin="round" stroke-linecap="butt" d="m144.81627 152.87138l0 0c0 -55.22847 46.012436 -99.99999 102.77165 -99.99999l0 0c27.256744 0 53.397125 10.535683 72.67053 29.289322c19.273438 18.75364 30.101135 44.189026 30.101135 70.71067l0 0c0 55.228485 -46.01245 100.0 -102.77167 100.0l0 0c-56.759216 0 -102.77165 -44.771515 -102.77165 -100.0z" fill-rule="evenodd"/><path fill="#000000" fill-opacity="0.0" d="m248.59317 119.76378l0 0c0 -15.220444 12.89563 -27.559052 28.803162 -27.559052l0 0c7.6390686 0 14.965271 2.903534 20.366882 8.071861c5.401642 5.1683197 8.436249 12.178078 8.436249 19.48719l0 0c0 15.220444 -12.895599 27.559052 -28.803131 27.559052l0 0c-15.907532 0 -28.803162 -12.338608 -28.803162 -27.559052z" fill-rule="evenodd"/><path stroke="#595959" stroke-width="2.0" stroke-linejoin="round" stroke-linecap="butt" d="m248.59317 119.76378l0 0c0 -15.220444 12.89563 -27.559052 28.803162 -27.559052l0 0c7.6390686 0 14.965271 2.903534 20.366882 8.071861c5.401642 5.1683197 8.436249 12.178078 8.436249 19.48719l0 0c0 15.220444 -12.895599 27.559052 -28.803131 27.559052l0 0c-15.907532 0 -28.803162 -12.338608 -28.803162 -27.559052z" fill-rule="evenodd"/><path fill="#0097a7" d="m274.62466 130.09448l0 0c0 -2.1482544 1.2409058 -3.8897552 2.7716675 -3.8897552l0 0c0.7350769 0 1.4400635 0.40981293 1.9598389 1.1392822c0.5198059 0.7294769 0.8117981 1.7188568 0.8117981 2.750473l0 0c0 2.1482697 -1.2409058 3.8897705 -2.771637 3.8897705l0 0c-1.5307617 0 -2.7716675 -1.7415009 -2.7716675 -3.8897705z" fill-rule="evenodd"/><path stroke="#595959" stroke-width="1.0" stroke-linejoin="round" stroke-linecap="butt" d="m274.62466 130.09448l0 0c0 -2.1482544 1.2409058 -3.8897552 2.7716675 -3.8897552l0 0c0.7350769 0 1.4400635 0.40981293 1.9598389 1.1392822c0.5198059 0.7294769 0.8117981 1.7188568 0.8117981 2.750473l0 0c0 2.1482697 -1.2409058 3.8897705 -2.771637 3.8897705l0 0c-1.5307617 0 -2.7716675 -1.7415009 -2.7716675 -3.8897705z" fill-rule="evenodd"/><path fill="#0097a7" d="m274.62466 119.76378l0 0c0 -2.1482544 1.2409058 -3.8897629 2.7716675 -3.8897629l0 0c0.7350769 0 1.4400635 0.40981293 1.9598389 1.1392822c0.5198059 0.7294769 0.8117981 1.7188492 0.8117981 2.7504807l0 0c0 2.1482544 -1.2409058 3.8897629 -2.771637 3.8897629l0 0c-1.5307617 0 -2.7716675 -1.7415085 -2.7716675 -3.8897629z" fill-rule="evenodd"/><path stroke="#595959" stroke-width="1.0" stroke-linejoin="round" stroke-linecap="butt" d="m274.62466 119.76378l0 0c0 -2.1482544 1.2409058 -3.8897629 2.7716675 -3.8897629l0 0c0.7350769 0 1.4400635 0.40981293 1.9598389 1.1392822c0.5198059 0.7294769 0.8117981 1.7188492 0.8117981 2.7504807l0 0c0 2.1482544 -1.2409058 3.8897629 -2.771637 3.8897629l0 0c-1.5307617 0 -2.7716675 -1.7415085 -2.7716675 -3.8897629z" fill-rule="evenodd"/><path fill="#0097a7" d="m253.03937 193.20473l0 0c0 -2.1482544 1.240921 -3.8897705 2.7716522 -3.8897705l0 0c0.73509216 0 1.4400787 0.40982056 1.9598541 1.1392822c0.5197754 0.7294769 0.8117981 1.7188568 0.8117981 2.7504883l0 0c0 2.1482544 -1.2409058 3.8897552 -2.7716522 3.8897552l0 0c-1.5307312 0 -2.7716522 -1.7415009 -2.7716522 -3.8897552z" fill-rule="evenodd"/><path stroke="#595959" stroke-width="1.0" stroke-linejoin="round" stroke-linecap="butt" d="m253.03937 193.20473l0 0c0 -2.1482544 1.240921 -3.8897705 2.7716522 -3.8897705l0 0c0.73509216 0 1.4400787 0.40982056 1.9598541 1.1392822c0.5197754 0.7294769 0.8117981 1.7188568 0.8117981 2.7504883l0 0c0 2.1482544 -1.2409058 3.8897552 -2.7716522 3.8897552l0 0c-1.5307312 0 -2.7716522 -1.7415009 -2.7716522 -3.8897552z" fill-rule="evenodd"/><path fill="#0097a7" d="m286.0105 122.314964l0 0c0 -2.148262 1.2409058 -3.8897705 2.7716675 -3.8897705l0 0c0.7350769 0 1.4400635 0.40981293 1.9598389 1.1392899c0.5197754 0.7294693 0.8117981 1.7188492 0.8117981 2.7504807l0 0c0 2.1482544 -1.2409058 3.8897629 -2.771637 3.8897629l0 0c-1.5307617 0 -2.7716675 -1.7415085 -2.7716675 -3.8897629z" fill-rule="evenodd"/><path stroke="#595959" stroke-width="1.0" stroke-linejoin="round" stroke-linecap="butt" d="m286.0105 122.314964l0 0c0 -2.148262 1.2409058 -3.8897705 2.7716675 -3.8897705l0 0c0.7350769 0 1.4400635 0.40981293 1.9598389 1.1392899c0.5197754 0.7294693 0.8117981 1.7188492 0.8117981 2.7504807l0 0c0 2.1482544 -1.2409058 3.8897629 -2.771637 3.8897629l0 0c-1.5307617 0 -2.7716675 -1.7415085 -2.7716675 -3.8897629z" fill-rule="evenodd"/><path fill="#0097a7" d="m263.23883 208.76378l0 0c0 -2.1482544 1.2409363 -3.8897705 2.7716675 -3.8897705l0 0c0.7350769 0 1.4400635 0.40982056 1.9598694 1.1392975c0.5197754 0.72946167 0.8117981 1.7188416 0.8117981 2.750473l0 0c0 2.1482544 -1.2409363 3.8897705 -2.7716675 3.8897705l0 0c-1.5307312 0 -2.7716675 -1.7415161 -2.7716675 -3.8897705z" fill-rule="evenodd"/><path stroke="#595959" stroke-width="1.0" stroke-linejoin="round" stroke-linecap="butt" d="m263.23883 208.76378l0 0c0 -2.1482544 1.2409363 -3.8897705 2.7716675 -3.8897705l0 0c0.7350769 0 1.4400635 0.40982056 1.9598694 1.1392975c0.5197754 0.72946167 0.8117981 1.7188416 0.8117981 2.750473l0 0c0 2.1482544 -1.2409363 3.8897705 -2.7716675 3.8897705l0 0c-1.5307312 0 -2.7716675 -1.7415161 -2.7716675 -3.8897705z" fill-rule="evenodd"/><path fill="#0097a7" d="m274.62466 200.98425l0 0c0 -2.1482544 1.2409058 -3.8897705 2.7716675 -3.8897705l0 0c0.7350769 0 1.4400635 0.40982056 1.9598389 1.1392975c0.5198059 0.72946167 0.8117981 1.7188416 0.8117981 2.750473l0 0c0 2.1482544 -1.2409058 3.8897552 -2.771637 3.8897552l0 0c-1.5307617 0 -2.7716675 -1.7415009 -2.7716675 -3.8897552z" fill-rule="evenodd"/><path stroke="#595959" stroke-width="1.0" stroke-linejoin="round" stroke-linecap="butt" d="m274.62466 200.98425l0 0c0 -2.1482544 1.2409058 -3.8897705 2.7716675 -3.8897705l0 0c0.7350769 0 1.4400635 0.40982056 1.9598389 1.1392975c0.5198059 0.72946167 0.8117981 1.7188416 0.8117981 2.750473l0 0c0 2.1482544 -1.2409058 3.8897552 -2.771637 3.8897552l0 0c-1.5307617 0 -2.7716675 -1.7415009 -2.7716675 -3.8897552z" fill-rule="evenodd"/><path fill="#0097a7" d="m280.16797 208.76378l0 0c0 -2.1482544 1.2409363 -3.8897705 2.7716675 -3.8897705l0 0c0.7350769 0 1.4400635 0.40982056 1.9598389 1.1392975c0.5198059 0.72946167 0.8117981 1.7188416 0.8117981 2.750473l0 0c0 2.1482544 -1.2409058 3.8897705 -2.771637 3.8897705l0 0c-1.5307312 0 -2.7716675 -1.7415161 -2.7716675 -3.8897705z" fill-rule="evenodd"/><path stroke="#595959" stroke-width="1.0" stroke-linejoin="round" stroke-linecap="butt" d="m280.16797 208.76378l0 0c0 -2.1482544 1.2409363 -3.8897705 2.7716675 -3.8897705l0 0c0.7350769 0 1.4400635 0.40982056 1.9598389 1.1392975c0.5198059 0.72946167 0.8117981 1.7188416 0.8117981 2.750473l0 0c0 2.1482544 -1.2409058 3.8897705 -2.771637 3.8897705l0 0c-1.5307312 0 -2.7716675 -1.7415161 -2.7716675 -3.8897705z" fill-rule="evenodd"/><path fill="#0097a7" d="m190.17848 116.76378l0 0c0 -2.1482544 1.2409058 -3.8897629 2.7716522 -3.8897629l0 0c0.73509216 0 1.4400635 0.40981293 1.9598541 1.1392822c0.51979065 0.7294769 0.8117981 1.7188492 0.8117981 2.7504807l0 0c0 2.1482544 -1.2409058 3.8897629 -2.7716522 3.8897629l0 0c-1.5307465 0 -2.7716522 -1.7415085 -2.7716522 -3.8897629z" fill-rule="evenodd"/><path stroke="#595959" stroke-width="1.0" stroke-linejoin="round" stroke-linecap="butt" d="m190.17848 116.76378l0 0c0 -2.1482544 1.2409058 -3.8897629 2.7716522 -3.8897629l0 0c0.73509216 0 1.4400635 0.40981293 1.9598541 1.1392822c0.51979065 0.7294769 0.8117981 1.7188492 0.8117981 2.7504807l0 0c0 2.1482544 -1.2409058 3.8897629 -2.7716522 3.8897629l0 0c-1.5307465 0 -2.7716522 -1.7415085 -2.7716522 -3.8897629z" fill-rule="evenodd"/><path fill="#0097a7" d="m178.62466 108.98425l0 0c0 -2.1482544 1.240921 -3.8897629 2.7716675 -3.8897629l0 0c0.7350769 0 1.4400635 0.40981293 1.9598541 1.1392822c0.5197754 0.7294769 0.8117981 1.7188492 0.8117981 2.7504807l0 0c0 2.1482544 -1.240921 3.8897629 -2.7716522 3.8897629l0 0c-1.5307465 0 -2.7716675 -1.7415085 -2.7716675 -3.8897629z" fill-rule="evenodd"/><path stroke="#595959" stroke-width="1.0" stroke-linejoin="round" stroke-linecap="butt" d="m178.62466 108.98425l0 0c0 -2.1482544 1.240921 -3.8897629 2.7716675 -3.8897629l0 0c0.7350769 0 1.4400635 0.40981293 1.9598541 1.1392822c0.5197754 0.7294769 0.8117981 1.7188492 0.8117981 2.7504807l0 0c0 2.1482544 -1.240921 3.8897629 -2.7716522 3.8897629l0 0c-1.5307465 0 -2.7716675 -1.7415085 -2.7716675 -3.8897629z" fill-rule="evenodd"/><path fill="#0097a7" d="m178.62466 188.54068l0 0c0 -2.1482544 1.240921 -3.8897552 2.7716675 -3.8897552l0 0c0.7350769 0 1.4400635 0.4098053 1.9598541 1.1392822c0.5197754 0.7294769 0.8117981 1.7188416 0.8117981 2.750473l0 0c0 2.1482544 -1.240921 3.8897705 -2.7716522 3.8897705l0 0c-1.5307465 0 -2.7716675 -1.7415161 -2.7716675 -3.8897705z" fill-rule="evenodd"/><path stroke="#595959" stroke-width="1.0" stroke-linejoin="round" stroke-linecap="butt" d="m178.62466 188.54068l0 0c0 -2.1482544 1.240921 -3.8897552 2.7716675 -3.8897552l0 0c0.7350769 0 1.4400635 0.4098053 1.9598541 1.1392822c0.5197754 0.7294769 0.8117981 1.7188416 0.8117981 2.750473l0 0c0 2.1482544 -1.240921 3.8897705 -2.7716522 3.8897705l0 0c-1.5307465 0 -2.7716675 -1.7415161 -2.7716675 -3.8897705z" fill-rule="evenodd"/><path fill="#0097a7" d="m190.17848 174.13124l0 0c0 -2.1482697 1.2409058 -3.8897705 2.7716522 -3.8897705l0 0c0.73509216 0 1.4400635 0.4098053 1.9598541 1.1392822c0.51979065 0.7294769 0.8117981 1.7188568 0.8117981 2.7504883l0 0c0 2.1482544 -1.2409058 3.8897552 -2.7716522 3.8897552l0 0c-1.5307465 0 -2.7716522 -1.7415009 -2.7716522 -3.8897552z" fill-rule="evenodd"/><path stroke="#595959" stroke-width="1.0" stroke-linejoin="round" stroke-linecap="butt" d="m190.17848 174.13124l0 0c0 -2.1482697 1.2409058 -3.8897705 2.7716522 -3.8897705l0 0c0.73509216 0 1.4400635 0.4098053 1.9598541 1.1392822c0.51979065 0.7294769 0.8117981 1.7188568 0.8117981 2.7504883l0 0c0 2.1482544 -1.2409058 3.8897552 -2.7716522 3.8897552l0 0c-1.5307465 0 -2.7716522 -1.7415009 -2.7716522 -3.8897552z" fill-rule="evenodd"/><path fill="#000000" fill-opacity="0.0" d="m264.59317 123.874016l0 0c0 -8.653908 7.163452 -15.669289 16.0 -15.669289l0 0c4.243469 0 8.313141 1.6508636 11.313721 4.589424c3.0005798 2.938568 4.6862793 6.9241104 4.6862793 11.0798645l0 0c0 8.653908 -7.163452 15.669289 -16.0 15.669289l0 0c-8.836548 0 -16.0 -7.015381 -16.0 -15.669289z" fill-rule="evenodd"/><path stroke="#595959" stroke-width="1.0" stroke-linejoin="round" stroke-linecap="butt" d="m264.59317 123.874016l0 0c0 -8.653908 7.163452 -15.669289 16.0 -15.669289l0 0c4.243469 0 8.313141 1.6508636 11.313721 4.589424c3.0005798 2.938568 4.6862793 6.9241104 4.6862793 11.0798645l0 0c0 8.653908 -7.163452 15.669289 -16.0 15.669289l0 0c-8.836548 0 -16.0 -7.015381 -16.0 -15.669289z" fill-rule="evenodd"/><path fill="#000000" fill-opacity="0.0" d="m55.503937 181.4252l0 0c0 -8.653915 7.1634445 -15.669296 16.0 -15.669296l0 0c4.2434616 0 8.313126 1.6508636 11.313705 4.589432c3.0005875 2.9385529 4.6862946 6.924103 4.6862946 11.0798645l0 0c0 8.6539 -7.1634445 15.669281 -16.0 15.669281l0 0c-8.8365555 0 -16.0 -7.015381 -16.0 -15.669281z" fill-rule="evenodd"/><path stroke="#595959" stroke-width="1.0" stroke-linejoin="round" stroke-linecap="butt" stroke-dasharray="4.0,3.0" d="m55.503937 181.4252l0 0c0 -8.653915 7.1634445 -15.669296 16.0 -15.669296l0 0c4.2434616 0 8.313126 1.6508636 11.313705 4.589432c3.0005875 2.9385529 4.6862946 6.924103 4.6862946 11.0798645l0 0c0 8.6539 -7.1634445 15.669281 -16.0 15.669281l0 0c-8.8365555 0 -16.0 -7.015381 -16.0 -15.669281z" fill-rule="evenodd"/><path fill="#b7b7b7" d="m75.3399 181.4252l0 0c0 -2.1482544 1.2409058 -3.8897705 2.7716522 -3.8897705l0 0c0.73508453 0 1.4400711 0.40982056 1.9598541 1.1392822c0.519783 0.7294769 0.8117981 1.7188568 0.8117981 2.7504883l0 0c0 2.1482544 -1.2409134 3.8897552 -2.7716522 3.8897552l0 0c-1.5307465 0 -2.7716522 -1.7415009 -2.7716522 -3.8897552z" fill-rule="evenodd"/><path stroke="#595959" stroke-width="1.0" stroke-linejoin="round" stroke-linecap="butt" d="m75.3399 181.4252l0 0c0 -2.1482544 1.2409058 -3.8897705 2.7716522 -3.8897705l0 0c0.73508453 0 1.4400711 0.40982056 1.9598541 1.1392822c0.519783 0.7294769 0.8117981 1.7188568 0.8117981 2.7504883l0 0c0 2.1482544 -1.2409134 3.8897552 -2.7716522 3.8897552l0 0c-1.5307465 0 -2.7716522 -1.7415009 -2.7716522 -3.8897552z" fill-rule="evenodd"/><path fill="#b7b7b7" d="m68.732285 188.54068l0 0c0 -2.1482544 1.2409134 -3.8897552 2.7716522 -3.8897552l0 0c0.73509216 0 1.4400711 0.4098053 1.9598541 1.1392822c0.51979065 0.7294769 0.8117981 1.7188416 0.8117981 2.750473l0 0c0 2.1482544 -1.2409134 3.8897705 -2.7716522 3.8897705l0 0c-1.5307388 0 -2.7716522 -1.7415161 -2.7716522 -3.8897705z" fill-rule="evenodd"/><path stroke="#595959" stroke-width="1.0" stroke-linejoin="round" stroke-linecap="butt" d="m68.732285 188.54068l0 0c0 -2.1482544 1.2409134 -3.8897552 2.7716522 -3.8897552l0 0c0.73509216 0 1.4400711 0.4098053 1.9598541 1.1392822c0.51979065 0.7294769 0.8117981 1.7188416 0.8117981 2.750473l0 0c0 2.1482544 -1.2409134 3.8897705 -2.7716522 3.8897705l0 0c-1.5307388 0 -2.7716522 -1.7415161 -2.7716522 -3.8897705z" fill-rule="evenodd"/><path fill="#b7b7b7" d="m63.188976 181.4252l0 0c0 -2.1482544 1.2409096 -3.8897705 2.771656 -3.8897705l0 0c0.73508453 0 1.4400635 0.40982056 1.9598541 1.1392822c0.519783 0.7294769 0.8117981 1.7188568 0.8117981 2.7504883l0 0c0 2.1482544 -1.2409134 3.8897552 -2.7716522 3.8897552l0 0c-1.5307465 0 -2.771656 -1.7415009 -2.771656 -3.8897552z" fill-rule="evenodd"/><path stroke="#595959" stroke-width="1.0" stroke-linejoin="round" stroke-linecap="butt" d="m63.188976 181.4252l0 0c0 -2.1482544 1.2409096 -3.8897705 2.771656 -3.8897705l0 0c0.73508453 0 1.4400635 0.40982056 1.9598541 1.1392822c0.519783 0.7294769 0.8117981 1.7188568 0.8117981 2.7504883l0 0c0 2.1482544 -1.2409134 3.8897552 -2.7716522 3.8897552l0 0c-1.5307465 0 -2.771656 -1.7415009 -2.771656 -3.8897552z" fill-rule="evenodd"/><path fill="#000000" fill-opacity="0.0" d="m264.59317 123.874016c-44.27205 0 -66.406296 14.385826 -88.5441 28.77166c-22.137787 14.3858185 -44.27913 28.771652 -88.55826 28.771652" fill-rule="evenodd"/><path stroke="#0097a7" stroke-width="2.0" stroke-linejoin="round" stroke-linecap="butt" d="m264.59317 123.874016c-44.27205 0 -66.406296 14.385826 -88.5441 28.77166c-22.137787 14.3858185 -44.27913 28.771652 -88.55826 28.771652" fill-rule="evenodd"/><path fill="#000000" fill-opacity="0.0" d="m55.503937 11.093776l142.70866 0l0 31.338581l-142.70866 0z" fill-rule="evenodd"/><path fill="#999999" d="m71.59769 29.920023l-2.40625 0l0 8.093752l-2.78125 0l0 -8.093752l-1.53125 0l0 -1.34375l1.53125 -0.75l0 -0.75q0 -1.734375 0.84375 -2.53125q0.859375 -0.8125 2.75 -0.8125q1.4375 0 2.5625 0.4375l-0.71875 2.03125q-0.828125 -0.25 -1.546875 -0.25q-0.59375 0 -0.859375 0.34375q-0.25 0.34375 -0.25 0.890625l0 0.640625l2.40625 0l0 2.09375zm3.8019562 2.984377q0 1.515625 0.5 2.296875q0.5 0.765625 1.609375 0.765625q1.109375 0 1.59375 -0.765625q0.5 -0.78125 0.5 -2.296875q0 -1.5156269 -0.5 -2.265627q-0.484375 -0.765625 -1.609375 -0.765625q-1.109375 0 -1.609375 0.765625q-0.484375 0.75 -0.484375 2.265627zm7.046875 0q0 2.484375 -1.3125 3.890625q-1.3125 1.40625 -3.65625 1.40625q-1.46875 0 -2.59375 -0.640625q-1.109375 -0.65625 -1.71875 -1.84375q-0.59375 -1.203125 -0.59375 -2.8125q0 -2.500002 1.296875 -3.875002q1.296875 -1.390625 3.65625 -1.390625q1.46875 0 2.59375 0.640625q1.125 0.640625 1.71875 1.828125q0.609375 1.1875 0.609375 2.796877zm7.9727173 -5.265627q0.5625 0 0.9375 0.078125l-0.203125 2.609375q-0.34375 -0.09375 -0.828125 -0.09375q-1.328125 0 -2.078125 0.6875q-0.734375 0.6875 -0.734375 1.9062519l0 5.1875l-2.78125 0l0 -10.187502l2.109375 0l0.40625 1.71875l0.140625 0q0.46875 -0.859375 1.265625 -1.375q0.8125 -0.53125 1.765625 -0.53125zm6.9249573 10.562502q-4.75 0 -4.75 -5.21875q0 -2.609377 1.28125 -3.968752q1.296875 -1.375 3.71875 -1.375q1.765625 0 3.171875 0.6875l-0.828125 2.15625q-0.65625 -0.265625 -1.21875 -0.4375q-0.5625 -0.171875 -1.125 -0.171875q-2.171875 0 -2.171875 3.078127q0 3.0 2.171875 3.0q0.796875 0 1.46875 -0.21875q0.6875 -0.21875 1.375 -0.671875l0 2.375q-0.671875 0.4375 -1.359375 0.59375q-0.6875 0.171875 -1.734375 0.171875zm9.670425 -8.593752q-0.875 0 -1.375 0.5625q-0.5 0.5625 -0.578125 1.59375l3.890625 0q-0.015625 -1.03125 -0.53125 -1.59375q-0.515625 -0.5625 -1.40625 -0.5625zm0.390625 8.593752q-2.453125 0 -3.84375 -1.359375q-1.375 -1.359375 -1.375 -3.84375q0 -2.562502 1.265625 -3.953127q1.28125 -1.40625 3.546875 -1.40625q2.15625 0 3.359375 1.234375q1.203125 1.21875 1.203125 3.390627l0 1.34375l-6.5625 0q0.046875 1.1875 0.703125 1.859375q0.65625 0.65625 1.828125 0.65625q0.921875 0 1.734375 -0.1875q0.828125 -0.1875 1.71875 -0.609375l0 2.15625q-0.71875 0.359375 -1.546875 0.53125q-0.828125 0.1875 -2.03125 0.1875zm15.478119 -8.593752q-0.875 0 -1.375 0.5625q-0.5 0.5625 -0.578125 1.59375l3.890625 0q-0.015625 -1.03125 -0.53125 -1.59375q-0.515625 -0.5625 -1.40625 -0.5625zm0.390625 8.593752q-2.453125 0 -3.84375 -1.359375q-1.375 -1.359375 -1.375 -3.84375q0 -2.562502 1.265625 -3.953127q1.28125 -1.40625 3.546875 -1.40625q2.15625 0 3.359375 1.234375q1.203125 1.21875 1.203125 3.390627l0 1.34375l-6.5625 0q0.046875 1.1875 0.703125 1.859375q0.65625 0.65625 1.828125 0.65625q0.921875 0 1.734375 -0.1875q0.828125 -0.1875 1.71875 -0.609375l0 2.15625q-0.71875 0.359375 -1.546875 0.53125q-0.828125 0.1875 -2.03125 0.1875zm8.506866 -5.390625l-3.28125 -4.984377l3.15625 0l1.96875 3.25l2.0 -3.25l3.15625 0l-3.328125 4.984377l3.46875 5.203125l-3.15625 0l-2.140625 -3.484375l-2.140625 3.484375l-3.15625 0l3.453125 -5.203125zm14.285645 5.390625q-1.796875 0 -2.8125 -1.3125l-0.140625 0q0.140625 1.28125 0.140625 1.484375l0 4.125l-2.78125 0l0 -14.671877l2.265625 0l0.390625 1.328125l0.125 0q0.96875 -1.515625 2.890625 -1.515625q1.796875 0 2.8125 1.390625q1.03125 1.390625 1.03125 3.875002q0 1.625 -0.484375 2.828125q-0.46875 1.203125 -1.359375 1.84375q-0.875 0.625 -2.078125 0.625zm-0.8125 -8.343752q-1.03125 0 -1.515625 0.640625q-0.46875 0.625 -0.484375 2.093752l0 0.296875q0 1.640625 0.484375 2.359375q0.484375 0.703125 1.546875 0.703125q1.875 0 1.875 -3.078125q0 -1.5156269 -0.46875 -2.265627q-0.453125 -0.75 -1.4375 -0.75zm6.634033 6.859377q0 -0.765625 0.40625 -1.15625q0.421875 -0.390625 1.203125 -0.390625q0.75 0 1.15625 0.40625q0.421875 0.390625 0.421875 1.140625q0 0.71875 -0.421875 1.140625q-0.40625 0.40625 -1.15625 0.40625q-0.765625 0 -1.1875 -0.40625q-0.421875 -0.40625 -0.421875 -1.140625z" fill-rule="nonzero"/><path fill="#000000" fill-opacity="0.0" d="m194.65617 11.093776l142.70866 0l0 31.338581l-142.70866 0z" fill-rule="evenodd"/><path fill="#999999" d="m212.21867 34.982525q0 1.578125 -1.09375 2.40625q-1.078125 0.8125 -3.25 0.8125q-1.109375 0 -1.890625 -0.15625q-0.78125 -0.15625 -1.46875 -0.4375l0 -2.296875q0.765625 0.359375 1.734375 0.609375q0.984375 0.25 1.71875 0.25q1.515625 0 1.515625 -0.875q0 -0.328125 -0.203125 -0.53125q-0.203125 -0.21875 -0.703125 -0.46875q-0.484375 -0.265625 -1.3125 -0.609375q-1.171875 -0.484375 -1.71875 -0.90625q-0.546875 -0.421875 -0.796875 -0.9531269q-0.25 -0.546875 -0.25 -1.34375q0 -1.359375 1.046875 -2.09375q1.046875 -0.75 2.984375 -0.75q1.84375 0 3.578125 0.796875l-0.84375 2.015625q-0.765625 -0.328125 -1.4375 -0.53125q-0.65625 -0.21875 -1.34375 -0.21875q-1.234375 0 -1.234375 0.65625q0 0.375 0.390625 0.65625q0.40625 0.265625 1.75 0.8125q1.1875 0.4687519 1.734375 0.8906269q0.5625 0.421875 0.828125 0.96875q0.265625 0.546875 0.265625 1.296875zm4.382843 -2.078125q0 1.515625 0.5 2.296875q0.5 0.765625 1.609375 0.765625q1.109375 0 1.59375 -0.765625q0.5 -0.78125 0.5 -2.296875q0 -1.5156269 -0.5 -2.265627q-0.484375 -0.765625 -1.609375 -0.765625q-1.109375 0 -1.609375 0.765625q-0.484375 0.75 -0.484375 2.265627zm7.046875 0q0 2.484375 -1.3125 3.890625q-1.3125 1.40625 -3.65625 1.40625q-1.46875 0 -2.59375 -0.640625q-1.109375 -0.65625 -1.71875 -1.84375q-0.59375 -1.203125 -0.59375 -2.8125q0 -2.500002 1.296875 -3.875002q1.296875 -1.390625 3.65625 -1.390625q1.46875 0 2.59375 0.640625q1.125 0.640625 1.71875 1.828125q0.609375 1.1875 0.609375 2.796877zm9.503967 5.109375l-0.375 -1.296875l-0.140625 0q-0.453125 0.703125 -1.28125 1.09375q-0.8125 0.390625 -1.859375 0.390625q-1.796875 0 -2.703125 -0.953125q-0.90625 -0.96875 -0.90625 -2.78125l0 -6.640627l2.78125 0l0 5.953127q0 1.09375 0.390625 1.65625q0.390625 0.546875 1.25 0.546875q1.15625 0 1.671875 -0.78125q0.53125 -0.78125 0.53125 -2.578125l0 -4.796877l2.765625 0l0 10.187502l-2.125 0zm10.730133 -10.375002q0.5625 0 0.9375 0.078125l-0.203125 2.609375q-0.34375 -0.09375 -0.828125 -0.09375q-1.328125 0 -2.078125 0.6875q-0.734375 0.6875 -0.734375 1.9062519l0 5.1875l-2.78125 0l0 -10.187502l2.109375 0l0.40625 1.71875l0.140625 0q0.46875 -0.859375 1.265625 -1.375q0.8125 -0.53125 1.765625 -0.53125zm6.9249573 10.562502q-4.75 0 -4.75 -5.21875q0 -2.609377 1.28125 -3.968752q1.296875 -1.375 3.71875 -1.375q1.765625 0 3.171875 0.6875l-0.828125 2.15625q-0.65625 -0.265625 -1.21875 -0.4375q-0.5625 -0.171875 -1.125 -0.171875q-2.171875 0 -2.171875 3.078127q0 3.0 2.171875 3.0q0.796875 0 1.46875 -0.21875q0.6875 -0.21875 1.375 -0.671875l0 2.375q-0.671875 0.4375 -1.359375 0.59375q-0.6875 0.171875 -1.734375 0.171875zm9.670425 -8.593752q-0.875 0 -1.375 0.5625q-0.5 0.5625 -0.578125 1.59375l3.890625 0q-0.015625 -1.03125 -0.53125 -1.59375q-0.515625 -0.5625 -1.40625 -0.5625zm0.390625 8.593752q-2.453125 0 -3.84375 -1.359375q-1.375 -1.359375 -1.375 -3.84375q0 -2.562502 1.265625 -3.953127q1.28125 -1.40625 3.546875 -1.40625q2.15625 0 3.359375 1.234375q1.203125 1.21875 1.203125 3.390627l0 1.34375l-6.5625 0q0.046875 1.1875 0.703125 1.859375q0.65625 0.65625 1.828125 0.65625q0.921875 0 1.734375 -0.1875q0.828125 -0.1875 1.71875 -0.609375l0 2.15625q-0.71875 0.359375 -1.546875 0.53125q-0.828125 0.1875 -2.03125 0.1875zm15.478119 -8.593752q-0.875 0 -1.375 0.5625q-0.5 0.5625 -0.578125 1.59375l3.890625 0q-0.015625 -1.03125 -0.53125 -1.59375q-0.515625 -0.5625 -1.40625 -0.5625zm0.390625 8.593752q-2.453125 0 -3.84375 -1.359375q-1.375 -1.359375 -1.375 -3.84375q0 -2.562502 1.265625 -3.953127q1.28125 -1.40625 3.546875 -1.40625q2.15625 0 3.359375 1.234375q1.203125 1.21875 1.203125 3.390627l0 1.34375l-6.5625 0q0.046875 1.1875 0.703125 1.859375q0.65625 0.65625 1.828125 0.65625q0.921875 0 1.734375 -0.1875q0.828125 -0.1875 1.71875 -0.609375l0 2.15625q-0.71875 0.359375 -1.546875 0.53125q-0.828125 0.1875 -2.03125 0.1875zm8.506866 -5.390625l-3.28125 -4.984377l3.15625 0l1.96875 3.25l2.0 -3.25l3.15625 0l-3.328125 4.984377l3.46875 5.203125l-3.15625 0l-2.140625 -3.484375l-2.140625 3.484375l-3.15625 0l3.453125 -5.203125zm14.285645 5.390625q-1.796875 0 -2.8125 -1.3125l-0.140625 0q0.140625 1.28125 0.140625 1.484375l0 4.125l-2.78125 0l0 -14.671877l2.265625 0l0.390625 1.328125l0.125 0q0.96875 -1.515625 2.890625 -1.515625q1.796875 0 2.8125 1.390625q1.03125 1.390625 1.03125 3.875002q0 1.625 -0.484375 2.828125q-0.46875 1.203125 -1.359375 1.84375q-0.875 0.625 -2.078125 0.625zm-0.8125 -8.343752q-1.03125 0 -1.515625 0.640625q-0.46875 0.625 -0.484375 2.093752l0 0.296875q0 1.640625 0.484375 2.359375q0.484375 0.703125 1.546875 0.703125q1.875 0 1.875 -3.078125q0 -1.5156269 -0.46875 -2.265627q-0.453125 -0.75 -1.4375 -0.75zm6.634033 6.859377q0 -0.765625 0.40625 -1.15625q0.421875 -0.390625 1.203125 -0.390625q0.75 0 1.15625 0.40625q0.421875 0.390625 0.421875 1.140625q0 0.71875 -0.421875 1.140625q-0.40625 0.40625 -1.15625 0.40625q-0.765625 0 -1.1875 -0.40625q-0.421875 -0.40625 -0.421875 -1.140625z" fill-rule="nonzero"/><path fill="#000000" fill-opacity="0.0" d="m215.42783 66.649605l101.165344 0l0 44.44095l-101.165344 0z" fill-rule="evenodd"/><path fill="#999999" d="m228.83408 81.18398q0.46875 0 0.84375 0.078125l-0.140625 1.0q-0.453125 -0.09375 -0.78125 -0.09375q-0.875 0 -1.5 0.703125q-0.609375 0.703125 -0.609375 1.75l0 3.828125l-1.078125 0l0 -7.125l0.890625 0l0.125 1.3125l0.0625 0q0.390625 -0.703125 0.953125 -1.078125q0.5625 -0.375 1.234375 -0.375zm5.1905823 7.390625q-1.578125 0 -2.5 -0.953125q-0.90625 -0.96875 -0.90625 -2.671875q0 -1.734375 0.84375 -2.75q0.859375 -1.015625 2.28125 -1.015625q1.34375 0 2.125 0.890625q0.78125 0.875 0.78125 2.328125l0 0.671875l-4.90625 0q0.03125 1.265625 0.625 1.921875q0.609375 0.640625 1.703125 0.640625q1.140625 0 2.265625 -0.484375l0 0.96875q-0.5625 0.25 -1.078125 0.34375q-0.515625 0.109375 -1.234375 0.109375zm-0.296875 -6.484375q-0.859375 0 -1.375 0.5625q-0.5 0.5625 -0.59375 1.546875l3.734375 0q0 -1.015625 -0.453125 -1.5625q-0.453125 -0.546875 -1.3125 -0.546875zm8.086929 -0.890625q1.40625 0 2.171875 0.96875q0.78125 0.953125 0.78125 2.703125q0 1.765625 -0.78125 2.734375q-0.78125 0.96875 -2.171875 0.96875q-0.703125 0 -1.28125 -0.25q-0.578125 -0.265625 -0.96875 -0.796875l-0.078125 0l-0.21875 0.921875l-0.78125 0l0 -10.125l1.078125 0l0 2.453125q0 0.828125 -0.046875 1.484375l0.046875 0q0.765625 -1.0625 2.25 -1.0625zm-0.15625 0.90625q-1.109375 0 -1.609375 0.640625q-0.484375 0.625 -0.484375 2.125q0 1.515625 0.5 2.15625q0.515625 0.640625 1.609375 0.640625q1.0 0 1.484375 -0.71875q0.5 -0.71875 0.5 -2.078125q0 -1.40625 -0.5 -2.078125q-0.484375 -0.6875 -1.5 -0.6875zm9.386139 6.34375l-0.21875 -1.015625l-0.046875 0q-0.53125 0.671875 -1.0625 0.90625q-0.53125 0.234375 -1.328125 0.234375q-1.0625 0 -1.671875 -0.546875q-0.59375 -0.546875 -0.59375 -1.546875q0 -2.15625 3.453125 -2.265625l1.21875 -0.046875l0 -0.4375q0 -0.84375 -0.359375 -1.234375q-0.359375 -0.40625 -1.15625 -0.40625q-0.890625 0 -2.015625 0.546875l-0.34375 -0.828125q0.53125 -0.28125 1.15625 -0.4375q0.640625 -0.171875 1.265625 -0.171875q1.28125 0 1.890625 0.5625q0.609375 0.5625 0.609375 1.8125l0 4.875l-0.796875 0zm-2.4375 -0.765625q1.0 0 1.578125 -0.546875q0.578125 -0.5625 0.578125 -1.546875l0 -0.640625l-1.078125 0.03125q-1.28125 0.046875 -1.859375 0.40625q-0.5625 0.359375 -0.5625 1.109375q0 0.578125 0.34375 0.890625q0.359375 0.296875 1.0 0.296875zm6.5374756 0.765625l-1.078125 0l0 -10.125l1.078125 0l0 10.125zm6.6835785 0l-0.21875 -1.015625l-0.046875 0q-0.53125 0.671875 -1.0625 0.90625q-0.53125 0.234375 -1.328125 0.234375q-1.0625 0 -1.671875 -0.546875q-0.59375 -0.546875 -0.59375 -1.546875q0 -2.15625 3.453125 -2.265625l1.21875 -0.046875l0 -0.4375q0 -0.84375 -0.359375 -1.234375q-0.359375 -0.40625 -1.15625 -0.40625q-0.890625 0 -2.015625 0.546875l-0.34375 -0.828125q0.53125 -0.28125 1.15625 -0.4375q0.640625 -0.171875 1.265625 -0.171875q1.28125 0 1.890625 0.5625q0.609375 0.5625 0.609375 1.8125l0 4.875l-0.796875 0zm-2.4375 -0.765625q1.0 0 1.578125 -0.546875q0.578125 -0.5625 0.578125 -1.546875l0 -0.640625l-1.078125 0.03125q-1.28125 0.046875 -1.859375 0.40625q-0.5625 0.359375 -0.5625 1.109375q0 0.578125 0.34375 0.890625q0.359375 0.296875 1.0 0.296875zm10.349976 0.765625l0 -4.609375q0 -0.875 -0.40625 -1.296875q-0.390625 -0.4375 -1.234375 -0.4375q-1.125 0 -1.65625 0.609375q-0.515625 0.59375 -0.515625 2.0l0 3.734375l-1.078125 0l0 -7.125l0.890625 0l0.171875 0.96875l0.046875 0q0.328125 -0.53125 0.921875 -0.8125q0.609375 -0.296875 1.34375 -0.296875q1.296875 0 1.9375 0.625q0.65625 0.625 0.65625 1.984375l0 4.65625l-1.078125 0zm6.1491394 0.125q-1.546875 0 -2.40625 -0.953125q-0.84375 -0.953125 -0.84375 -2.6875q0 -1.796875 0.859375 -2.765625q0.859375 -0.984375 2.453125 -0.984375q0.515625 0 1.03125 0.109375q0.515625 0.109375 0.8125 0.265625l-0.328125 0.921875q-0.359375 -0.15625 -0.796875 -0.25q-0.421875 -0.09375 -0.734375 -0.09375q-2.171875 0 -2.171875 2.78125q0 1.3125 0.515625 2.015625q0.53125 0.703125 1.578125 0.703125q0.890625 0 1.828125 -0.390625l0 0.96875q-0.71875 0.359375 -1.796875 0.359375zm6.5014343 0q-1.578125 0 -2.5 -0.953125q-0.90625 -0.96875 -0.90625 -2.671875q0 -1.734375 0.84375 -2.75q0.859375 -1.015625 2.28125 -1.015625q1.34375 0 2.125 0.890625q0.78125 0.875 0.78125 2.328125l0 0.671875l-4.90625 0q0.03125 1.265625 0.625 1.921875q0.609375 0.640625 1.703125 0.640625q1.140625 0 2.265625 -0.484375l0 0.96875q-0.5625 0.25 -1.078125 0.34375q-0.515625 0.109375 -1.234375 0.109375zm-0.296875 -6.484375q-0.859375 0 -1.375 0.5625q-0.5 0.5625 -0.59375 1.546875l3.734375 0q0 -1.015625 -0.453125 -1.5625q-0.453125 -0.546875 -1.3125 -0.546875zm9.618195 5.40625l-0.0625 0q-0.75 1.078125 -2.234375 1.078125q-1.40625 0 -2.1875 -0.953125q-0.765625 -0.953125 -0.765625 -2.71875q0 -1.765625 0.78125 -2.734375q0.78125 -0.984375 2.171875 -0.984375q1.453125 0 2.21875 1.0625l0.09375 0l-0.046875 -0.515625l-0.03125 -0.5l0 -2.90625l1.078125 0l0 10.125l-0.875 0l-0.140625 -0.953125zm-2.15625 0.171875q1.109375 0 1.59375 -0.59375q0.5 -0.609375 0.5 -1.9375l0 -0.234375q0 -1.515625 -0.5 -2.15625q-0.5 -0.65625 -1.609375 -0.65625q-0.953125 0 -1.453125 0.75q-0.5 0.734375 -0.5 2.078125q0 1.359375 0.5 2.0625q0.5 0.6875 1.46875 0.6875z" fill-rule="nonzero"/><path fill="#999999" d="m228.83408 97.18398q0.46875 0 0.84375 0.078125l-0.140625 1.0q-0.453125 -0.09375 -0.78125 -0.09375q-0.875 0 -1.5 0.703125q-0.609375 0.703125 -0.609375 1.75l0 3.828125l-1.078125 0l0 -7.125l0.890625 0l0.125 1.3125l0.0625 0q0.390625 -0.703125 0.953125 -1.078125q0.5625 -0.375 1.234375 -0.375zm6.7843323 5.3125q0 1.0 -0.75 1.546875q-0.734375 0.53125 -2.078125 0.53125q-1.421875 0 -2.21875 -0.4375l0 -1.015625q0.515625 0.265625 1.109375 0.421875q0.59375 0.140625 1.140625 0.140625q0.84375 0 1.296875 -0.265625q0.453125 -0.265625 0.453125 -0.828125q0 -0.40625 -0.359375 -0.703125q-0.359375 -0.296875 -1.40625 -0.703125q-1.0 -0.375 -1.421875 -0.640625q-0.421875 -0.28125 -0.625 -0.625q-0.203125 -0.359375 -0.203125 -0.84375q0 -0.875 0.703125 -1.375q0.71875 -0.515625 1.953125 -0.515625q1.15625 0 2.25 0.46875l-0.375 0.875q-1.078125 -0.4375 -1.953125 -0.4375q-0.765625 0 -1.15625 0.25q-0.390625 0.234375 -0.390625 0.65625q0 0.28125 0.140625 0.484375q0.15625 0.203125 0.46875 0.390625q0.328125 0.171875 1.25 0.53125q1.28125 0.453125 1.71875 0.921875q0.453125 0.46875 0.453125 1.171875zm4.76445 2.078125q-1.578125 0 -2.5 -0.953125q-0.90625 -0.96875 -0.90625 -2.671875q0 -1.734375 0.84375 -2.75q0.859375 -1.015625 2.28125 -1.015625q1.34375 0 2.125 0.890625q0.78125 0.875 0.78125 2.328125l0 0.671875l-4.90625 0q0.03125 1.265625 0.625 1.921875q0.609375 0.640625 1.703125 0.640625q1.140625 0 2.265625 -0.484375l0 0.96875q-0.5625 0.25 -1.078125 0.34375q-0.515625 0.109375 -1.234375 0.109375zm-0.296875 -6.484375q-0.859375 0 -1.375 0.5625q-0.5 0.5625 -0.59375 1.546875l3.734375 0q0 -1.015625 -0.453125 -1.5625q-0.453125 -0.546875 -1.3125 -0.546875z" fill-rule="nonzero"/><path fill="#000000" fill-opacity="0.0" d="m50.04987 191.27821l117.32283 0l0 49.76378l-117.32283 0z" fill-rule="evenodd"/><path fill="#999999" d="m69.28424 213.07822l0 -4.640625q0 -0.859375 -0.359375 -1.28125q-0.359375 -0.421875 -1.140625 -0.421875q-1.0 0 -1.484375 0.578125q-0.484375 0.578125 -0.484375 1.78125l0 3.984375l-1.078125 0l0 -4.640625q0 -0.859375 -0.375 -1.28125q-0.359375 -0.421875 -1.1249962 -0.421875q-1.015625 0 -1.5 0.609375q-0.46875 0.609375 -0.46875 2.0l0 3.734375l-1.078125 0l0 -7.125l0.890625 0l0.171875 0.96875l0.046875 0q0.3125 -0.515625 0.859375 -0.8125q0.5625 -0.296875 1.25 -0.296875q1.6718712 0 2.1874962 1.21875l0.046875 0q0.328125 -0.5625 0.921875 -0.890625q0.609375 -0.328125 1.390625 -0.328125q1.203125 0 1.796875 0.625q0.609375 0.625 0.609375 1.984375l0 4.65625l-1.078125 0zm9.460007 -3.578125q0 1.75 -0.875 2.734375q-0.875 0.96875 -2.421875 0.96875q-0.953125 0 -1.703125 -0.4375q-0.734375 -0.453125 -1.140625 -1.296875q-0.40625 -0.84375 -0.40625 -1.96875q0 -1.734375 0.875 -2.703125q0.875 -0.984375 2.421875 -0.984375q1.484375 0 2.359375 1.0q0.890625 1.0 0.890625 2.6875zm-5.421875 0q0 1.375 0.546875 2.09375q0.546875 0.703125 1.59375 0.703125q1.0625 0 1.609375 -0.703125q0.5625 -0.71875 0.5625 -2.09375q0 -1.359375 -0.5625 -2.0625q-0.546875 -0.703125 -1.609375 -0.703125q-1.0625 0 -1.609375 0.703125q-0.53125 0.6875 -0.53125 2.0625zm8.878372 3.578125l-2.703125 -7.125l1.15625 0l1.53125 4.21875q0.53125 1.484375 0.625 1.9375l0.046875 0q0.0625 -0.359375 0.4375 -1.4375q0.390625 -1.078125 1.71875 -4.71875l1.15625 0l-2.703125 7.125l-1.265625 0zm8.130203 0.125q-1.578125 0 -2.5 -0.953125q-0.90625 -0.96875 -0.90625 -2.671875q0 -1.734375 0.84375 -2.75q0.859375 -1.015625 2.28125 -1.015625q1.34375 0 2.125 0.890625q0.78125 0.875 0.78125 2.328125l0 0.671875l-4.90625 0q0.03125 1.265625 0.625 1.921875q0.609375 0.640625 1.703125 0.640625q1.140625 0 2.265625 -0.484375l0 0.96875q-0.5625 0.25 -1.078125 0.34375q-0.515625 0.109375 -1.234375 0.109375zm-0.296875 -6.484375q-0.859375 0 -1.375 0.5625q-0.5 0.5625 -0.59375 1.546875l3.734375 0q0 -1.015625 -0.453125 -1.5625q-0.453125 -0.546875 -1.3125 -0.546875zm9.618179 5.40625l-0.0625 0q-0.75 1.078125 -2.234375 1.078125q-1.40625 0 -2.1875 -0.953125q-0.765625 -0.953125 -0.765625 -2.71875q0 -1.765625 0.78125 -2.734375q0.78125 -0.984375 2.171875 -0.984375q1.453125 0 2.21875 1.0625l0.09375 0l-0.046875 -0.515625l-0.03125 -0.5l0 -2.90625l1.078125 0l0 10.125l-0.875 0l-0.140625 -0.953125zm-2.15625 0.171875q1.109375 0 1.59375 -0.59375q0.5 -0.609375 0.5 -1.9375l0 -0.234375q0 -1.515625 -0.5 -2.15625q-0.5 -0.65625 -1.609375 -0.65625q-0.953125 0 -1.453125 0.75q-0.5 0.734375 -0.5 2.078125q0 1.359375 0.5 2.0625q0.5 0.6875 1.46875 0.6875zm12.254578 0.90625q-0.703125 0 -1.28125 -0.25q-0.578125 -0.265625 -0.96875 -0.796875l-0.078125 0q0.078125 0.625 0.078125 1.1875l0 2.9375l-1.078125 0l0 -10.328125l0.890625 0l0.140625 0.96875l0.046875 0q0.421875 -0.578125 0.96875 -0.84375q0.5625 -0.265625 1.28125 -0.265625q1.421875 0 2.1875 0.96875q0.765625 0.96875 0.765625 2.71875q0 1.765625 -0.78125 2.734375q-0.78125 0.96875 -2.171875 0.96875zm-0.15625 -6.46875q-1.09375 0 -1.59375 0.609375q-0.484375 0.59375 -0.5 1.921875l0 0.234375q0 1.515625 0.5 2.15625q0.515625 0.640625 1.609375 0.640625q0.9375 0 1.453125 -0.734375q0.53125 -0.75 0.53125 -2.0625q0 -1.34375 -0.53125 -2.046875q-0.515625 -0.71875 -1.46875 -0.71875zm9.386139 6.34375l-0.21875 -1.015625l-0.046875 0q-0.53125 0.671875 -1.0625 0.90625q-0.53125 0.234375 -1.328125 0.234375q-1.0625 0 -1.671875 -0.546875q-0.59375 -0.546875 -0.59375 -1.546875q0 -2.15625 3.453125 -2.265625l1.21875 -0.046875l0 -0.4375q0 -0.84375 -0.359375 -1.234375q-0.359375 -0.40625 -1.15625 -0.40625q-0.890625 0 -2.015625 0.546875l-0.34375 -0.828125q0.53125 -0.28125 1.15625 -0.4375q0.640625 -0.171875 1.265625 -0.171875q1.28125 0 1.890625 0.5625q0.609375 0.5625 0.609375 1.8125l0 4.875l-0.796875 0zm-2.4375 -0.765625q1.0 0 1.578125 -0.546875q0.578125 -0.5625 0.578125 -1.546875l0 -0.640625l-1.078125 0.03125q-1.28125 0.046875 -1.859375 0.40625q-0.5625 0.359375 -0.5625 1.109375q0 0.578125 0.34375 0.890625q0.359375 0.296875 1.0 0.296875zm8.724976 -6.5q0.46875 0 0.84375 0.078125l-0.140625 1.0q-0.453125 -0.09375 -0.78125 -0.09375q-0.875 0 -1.5 0.703125q-0.609375 0.703125 -0.609375 1.75l0 3.828125l-1.078125 0l0 -7.125l0.890625 0l0.125 1.3125l0.0625 0q0.390625 -0.703125 0.953125 -1.078125q0.5625 -0.375 1.234375 -0.375zm4.4874573 6.5q0.28125 0 0.546875 -0.03125q0.265625 -0.046875 0.421875 -0.09375l0 0.828125q-0.171875 0.078125 -0.515625 0.125q-0.34375 0.0625 -0.609375 0.0625q-2.078125 0 -2.078125 -2.171875l0 -4.25l-1.015625 0l0 -0.515625l1.015625 -0.453125l0.453125 -1.515625l0.625 0l0 1.65625l2.078125 0l0 0.828125l-2.078125 0l0 4.203125q0 0.640625 0.3125 0.984375q0.3125 0.34375 0.84375 0.34375zm12.011139 -2.8125q0 1.75 -0.875 2.734375q-0.875 0.96875 -2.421875 0.96875q-0.953125 0 -1.703125 -0.4375q-0.734375 -0.453125 -1.140625 -1.296875q-0.40625 -0.84375 -0.40625 -1.96875q0 -1.734375 0.875 -2.703125q0.875 -0.984375 2.421875 -0.984375q1.484375 0 2.359375 1.0q0.890625 1.0 0.890625 2.6875zm-5.421875 0q0 1.375 0.546875 2.09375q0.546875 0.703125 1.59375 0.703125q1.0625 0 1.609375 -0.703125q0.5625 -0.71875 0.5625 -2.09375q0 -1.359375 -0.5625 -2.0625q-0.546875 -0.703125 -1.609375 -0.703125q-1.0625 0 -1.609375 0.703125q-0.53125 0.6875 -0.53125 2.0625zm10.534622 -2.71875l-1.8125 0l0 6.296875l-1.078125 0l0 -6.296875l-1.28125 0l0 -0.484375l1.28125 -0.390625l0 -0.390625q0 -2.640625 2.296875 -2.640625q0.5625 0 1.328125 0.234375l-0.28125 0.859375q-0.625 -0.203125 -1.078125 -0.203125q-0.609375 0 -0.90625 0.40625q-0.28125 0.40625 -0.28125 1.3125l0 0.46875l1.8125 0l0 0.828125zm9.150528 6.296875l-0.21875 -1.015625l-0.046875 0q-0.53125 0.671875 -1.0625 0.90625q-0.53125 0.234375 -1.328125 0.234375q-1.0625 0 -1.671875 -0.546875q-0.59375 -0.546875 -0.59375 -1.546875q0 -2.15625 3.453125 -2.265625l1.21875 -0.046875l0 -0.4375q0 -0.84375 -0.359375 -1.234375q-0.359375 -0.40625 -1.15625 -0.40625q-0.890625 0 -2.015625 0.546875l-0.34375 -0.828125q0.53125 -0.28125 1.15625 -0.4375q0.640625 -0.171875 1.265625 -0.171875q1.28125 0 1.890625 0.5625q0.609375 0.5625 0.609375 1.8125l0 4.875l-0.796875 0zm-2.4375 -0.765625q1.0 0 1.578125 -0.546875q0.578125 -0.5625 0.578125 -1.546875l0 -0.640625l-1.078125 0.03125q-1.28125 0.046875 -1.859375 0.40625q-0.5625 0.359375 -0.5625 1.109375q0 0.578125 0.34375 0.890625q0.359375 0.296875 1.0 0.296875z" fill-rule="nonzero"/><path fill="#999999" d="m65.049866 228.12509l-0.0625 0q-0.75 1.078125 -2.2343712 1.078125q-1.40625 0 -2.1875 -0.953125q-0.765625 -0.953125 -0.765625 -2.71875q0 -1.765625 0.78125 -2.734375q0.78125 -0.984375 2.171875 -0.984375q1.4531212 0 2.2187462 1.0625l0.09375 0l-0.046875 -0.515625l-0.03125 -0.5l0 -2.90625l1.078125 0l0 10.125l-0.875 0l-0.140625 -0.953125zm-2.1562462 0.171875q1.1093712 0 1.5937462 -0.59375q0.5 -0.609375 0.5 -1.9375l0 -0.234375q0 -1.515625 -0.5 -2.15625q-0.4999962 -0.65625 -1.6093712 -0.65625q-0.953125 0 -1.453125 0.75q-0.5 0.734375 -0.5 2.078125q0 1.359375 0.5 2.0625q0.5 0.6875 1.46875 0.6875zm9.854885 0.78125l-0.21875 -1.015625l-0.046875 0q-0.53125 0.671875 -1.0625 0.90625q-0.53125 0.234375 -1.328125 0.234375q-1.0625 0 -1.671875 -0.546875q-0.59375 -0.546875 -0.59375 -1.546875q0 -2.15625 3.453125 -2.265625l1.21875 -0.046875l0 -0.4375q0 -0.84375 -0.359375 -1.234375q-0.359375 -0.40625 -1.15625 -0.40625q-0.890625 0 -2.015625 0.546875l-0.34375 -0.828125q0.53125 -0.28125 1.15625 -0.4375q0.640625 -0.171875 1.265625 -0.171875q1.28125 0 1.890625 0.5625q0.609375 0.5625 0.609375 1.8125l0 4.875l-0.796875 0zm-2.4375 -0.765625q1.0 0 1.578125 -0.546875q0.578125 -0.5625 0.578125 -1.546875l0 -0.640625l-1.078125 0.03125q-1.28125 0.046875 -1.859375 0.40625q-0.5625 0.359375 -0.5625 1.109375q0 0.578125 0.34375 0.890625q0.359375 0.296875 1.0 0.296875zm7.7718506 0q0.28125 0 0.546875 -0.03125q0.265625 -0.046875 0.421875 -0.09375l0 0.828125q-0.171875 0.078125 -0.515625 0.125q-0.34375 0.0625 -0.609375 0.0625q-2.078125 0 -2.078125 -2.171875l0 -4.25l-1.015625 0l0 -0.515625l1.015625 -0.453125l0.453125 -1.515625l0.625 0l0 1.65625l2.078125 0l0 0.828125l-2.078125 0l0 4.203125q0 0.640625 0.3125 0.984375q0.3125 0.34375 0.84375 0.34375zm6.783325 0.765625l-0.21875 -1.015625l-0.046875 0q-0.53125 0.671875 -1.0625 0.90625q-0.53125 0.234375 -1.328125 0.234375q-1.0625 0 -1.671875 -0.546875q-0.59375 -0.546875 -0.59375 -1.546875q0 -2.15625 3.453125 -2.265625l1.21875 -0.046875l0 -0.4375q0 -0.84375 -0.359375 -1.234375q-0.359375 -0.40625 -1.15625 -0.40625q-0.890625 0 -2.015625 0.546875l-0.34375 -0.828125q0.53125 -0.28125 1.15625 -0.4375q0.640625 -0.171875 1.265625 -0.171875q1.28125 0 1.890625 0.5625q0.609375 0.5625 0.609375 1.8125l0 4.875l-0.796875 0zm-2.4375 -0.765625q1.0 0 1.578125 -0.546875q0.578125 -0.5625 0.578125 -1.546875l0 -0.640625l-1.078125 0.03125q-1.28125 0.046875 -1.859375 0.40625q-0.5625 0.359375 -0.5625 1.109375q0 0.578125 0.34375 0.890625q0.359375 0.296875 1.0 0.296875zm10.068726 -1.1875q0 1.0 -0.75 1.546875q-0.734375 0.53125 -2.078125 0.53125q-1.421875 0 -2.21875 -0.4375l0 -1.015625q0.515625 0.265625 1.109375 0.421875q0.59375 0.140625 1.140625 0.140625q0.84375 0 1.296875 -0.265625q0.453125 -0.265625 0.453125 -0.828125q0 -0.40625 -0.359375 -0.703125q-0.359375 -0.296875 -1.40625 -0.703125q-1.0 -0.375 -1.421875 -0.640625q-0.421875 -0.28125 -0.625 -0.625q-0.203125 -0.359375 -0.203125 -0.84375q0 -0.875 0.703125 -1.375q0.71875 -0.515625 1.953125 -0.515625q1.15625 0 2.25 0.46875l-0.375 0.875q-1.078125 -0.4375 -1.953125 -0.4375q-0.765625 0 -1.15625 0.25q-0.390625 0.234375 -0.390625 0.65625q0 0.28125 0.140625 0.484375q0.15625 0.203125 0.46875 0.390625q0.328125 0.171875 1.25 0.53125q1.28125 0.453125 1.71875 0.921875q0.453125 0.46875 0.453125 1.171875zm4.76445 2.078125q-1.578125 0 -2.5 -0.953125q-0.90625 -0.96875 -0.90625 -2.671875q0 -1.734375 0.84375 -2.75q0.859375 -1.015625 2.28125 -1.015625q1.34375 0 2.125 0.890625q0.78125 0.875 0.78125 2.328125l0 0.671875l-4.90625 0q0.03125 1.265625 0.625 1.921875q0.609375 0.640625 1.703125 0.640625q1.140625 0 2.265625 -0.484375l0 0.96875q-0.5625 0.25 -1.078125 0.34375q-0.515625 0.109375 -1.234375 0.109375zm-0.296875 -6.484375q-0.859375 0 -1.375 0.5625q-0.5 0.5625 -0.59375 1.546875l3.734375 0q0 -1.015625 -0.453125 -1.5625q-0.453125 -0.546875 -1.3125 -0.546875zm7.0713043 5.59375q0.28125 0 0.546875 -0.03125q0.265625 -0.046875 0.421875 -0.09375l0 0.828125q-0.171875 0.078125 -0.515625 0.125q-0.34375 0.0625 -0.609375 0.0625q-2.078125 0 -2.078125 -2.171875l0 -4.25l-1.015625 0l0 -0.515625l1.015625 -0.453125l0.453125 -1.515625l0.625 0l0 1.65625l2.078125 0l0 0.828125l-2.078125 0l0 4.203125q0 0.640625 0.3125 0.984375q0.3125 0.34375 0.84375 0.34375z" fill-rule="nonzero"/><path fill="#000000" fill-opacity="0.0" d="m92.821526 168.69948l46.677162 0l0 25.448822l-46.677162 0z" fill-rule="evenodd"/><path fill="#0097a7" d="m106.915276 183.09323q1.28125 0 2.0 1.0q0.734375 1.0 0.734375 2.75q0 1.8125 -0.75 2.796875q-0.75 0.984375 -2.046875 0.984375q-1.28125 0 -2.0 -0.921875l-0.140625 0l-0.328125 0.796875l-1.515625 0l0 -10.125l1.984375 0l0 2.359375q0 0.4375 -0.078125 1.4375l0.078125 0q0.6875 -1.078125 2.0625 -1.078125zm-0.640625 1.578125q-0.734375 0 -1.078125 0.453125q-0.328125 0.453125 -0.34375 1.5l0 0.21875q0 1.15625 0.34375 1.671875q0.34375 0.5 1.109375 0.5q0.609375 0 0.96875 -0.5625q0.359375 -0.5625 0.359375 -1.625q0 -1.078125 -0.375 -1.609375q-0.359375 -0.546875 -0.984375 -0.546875zm9.074829 -1.578125q1.28125 0 2.0 1.0q0.734375 1.0 0.734375 2.75q0 1.8125 -0.75 2.796875q-0.75 0.984375 -2.046875 0.984375q-1.28125 0 -2.0 -0.921875l-0.140625 0l-0.328125 0.796875l-1.515625 0l0 -10.125l1.984375 0l0 2.359375q0 0.4375 -0.078125 1.4375l0.078125 0q0.6875 -1.078125 2.0625 -1.078125zm-0.640625 1.578125q-0.734375 0 -1.078125 0.453125q-0.328125 0.453125 -0.34375 1.5l0 0.21875q0 1.15625 0.34375 1.671875q0.34375 0.5 1.109375 0.5q0.609375 0 0.96875 -0.5625q0.359375 -0.5625 0.359375 -1.625q0 -1.078125 -0.375 -1.609375q-0.359375 -0.546875 -0.984375 -0.546875zm7.793579 -3.8125q1.375 0 2.203125 0.625q0.84375 0.625 0.84375 1.671875q0 0.734375 -0.40625 1.3125q-0.40625 0.5625 -1.3125 1.0q1.078125 0.578125 1.53125 1.203125q0.46875 0.625 0.46875 1.359375q0 1.171875 -0.921875 1.890625q-0.90625 0.703125 -2.40625 0.703125q-1.5625 0 -2.453125 -0.65625q-0.890625 -0.671875 -0.890625 -1.890625q0 -0.8125 0.421875 -1.4375q0.4375 -0.625 1.40625 -1.109375q-0.8125 -0.515625 -1.171875 -1.09375q-0.359375 -0.59375 -0.359375 -1.296875q0 -1.015625 0.84375 -1.640625q0.84375 -0.640625 2.203125 -0.640625zm-1.484375 7.109375q0 0.5625 0.390625 0.875q0.390625 0.3125 1.0625 0.3125q0.75 0 1.125 -0.3125q0.375 -0.328125 0.375 -0.859375q0 -0.4375 -0.375 -0.8125q-0.359375 -0.390625 -1.1875 -0.8125q-1.390625 0.640625 -1.390625 1.609375zm1.46875 -5.640625q-0.515625 0 -0.828125 0.265625q-0.3125 0.265625 -0.3125 0.703125q0 0.390625 0.25 0.703125q0.25 0.3125 0.90625 0.640625q0.640625 -0.296875 0.890625 -0.609375q0.25 -0.3125 0.25 -0.734375q0 -0.4375 -0.328125 -0.703125q-0.3125 -0.265625 -0.828125 -0.265625z" fill-rule="nonzero"/><path fill="#000000" fill-opacity="0.0" d="m280.59317 139.5433l-47.338577 46.67717" fill-rule="evenodd"/><path stroke="#0097a7" stroke-width="2.0" stroke-linejoin="round" stroke-linecap="butt" stroke-dasharray="8.0,6.0" d="m280.59317 139.5433l-38.793808 38.251785" fill-rule="evenodd"/><path fill="#0097a7" stroke="#0097a7" stroke-width="2.0" stroke-linecap="butt" d="m239.47995 175.44281l-4.1434174 8.724823l8.782242 -4.0202637z" fill-rule="evenodd"/><path fill="#000000" fill-opacity="0.0" d="m246.40158 156.5748l46.677155 0l0 25.448822l-46.677155 0z" fill-rule="evenodd"/><path fill="#0097a7" d="m260.49533 170.96855q1.28125 0 2.0 1.0q0.734375 1.0 0.734375 2.75q0 1.8125 -0.75 2.796875q-0.75 0.984375 -2.046875 0.984375q-1.28125 0 -2.0 -0.921875l-0.140625 0l-0.328125 0.796875l-1.515625 0l0 -10.125l1.984375 0l0 2.359375q0 0.4375 -0.078125 1.4375l0.078125 0q0.6875 -1.078125 2.0625 -1.078125zm-0.640625 1.578125q-0.734375 0 -1.078125 0.453125q-0.328125 0.453125 -0.34375 1.5l0 0.21875q0 1.15625 0.34375 1.671875q0.34375 0.5 1.109375 0.5q0.609375 0 0.96875 -0.5625q0.359375 -0.5625 0.359375 -1.625q0 -1.078125 -0.375 -1.609375q-0.359375 -0.546875 -0.984375 -0.546875zm9.074829 -1.578125q1.28125 0 2.0 1.0q0.734375 1.0 0.734375 2.75q0 1.8125 -0.75 2.796875q-0.75 0.984375 -2.046875 0.984375q-1.28125 0 -2.0 -0.921875l-0.140625 0l-0.328125 0.796875l-1.515625 0l0 -10.125l1.984375 0l0 2.359375q0 0.4375 -0.078125 1.4375l0.078125 0q0.6875 -1.078125 2.0625 -1.078125zm-0.640625 1.578125q-0.734375 0 -1.078125 0.453125q-0.328125 0.453125 -0.34375 1.5l0 0.21875q0 1.15625 0.34375 1.671875q0.34375 0.5 1.109375 0.5q0.609375 0 0.96875 -0.5625q0.359375 -0.5625 0.359375 -1.625q0 -1.078125 -0.375 -1.609375q-0.359375 -0.546875 -0.984375 -0.546875zm7.793579 -3.8125q1.375 0 2.203125 0.625q0.84375 0.625 0.84375 1.671875q0 0.734375 -0.40625 1.3125q-0.40625 0.5625 -1.3125 1.0q1.078125 0.578125 1.53125 1.203125q0.46875 0.625 0.46875 1.359375q0 1.171875 -0.921875 1.890625q-0.90625 0.703125 -2.40625 0.703125q-1.5625 0 -2.453125 -0.65625q-0.890625 -0.671875 -0.890625 -1.890625q0 -0.8125 0.421875 -1.4375q0.4375 -0.625 1.40625 -1.109375q-0.8125 -0.515625 -1.171875 -1.09375q-0.359375 -0.59375 -0.359375 -1.296875q0 -1.015625 0.84375 -1.640625q0.84375 -0.640625 2.203125 -0.640625zm-1.484375 7.109375q0 0.5625 0.390625 0.875q0.390625 0.3125 1.0625 0.3125q0.75 0 1.125 -0.3125q0.375 -0.328125 0.375 -0.859375q0 -0.4375 -0.375 -0.8125q-0.359375 -0.390625 -1.1875 -0.8125q-1.390625 0.640625 -1.390625 1.609375zm1.46875 -5.640625q-0.515625 0 -0.828125 0.265625q-0.3125 0.265625 -0.3125 0.703125q0 0.390625 0.25 0.703125q0.25 0.3125 0.90625 0.640625q0.640625 -0.296875 0.890625 -0.609375q0.25 -0.3125 0.25 -0.734375q0 -0.4375 -0.328125 -0.703125q-0.3125 -0.265625 -0.828125 -0.265625z" fill-rule="nonzero"/><path fill="#000000" fill-opacity="0.0" d="m279.9449 120.55905c-106.99213 0 -213.98425 28.48819 -213.98425 56.97638" fill-rule="evenodd"/><path stroke="#0097a7" stroke-width="1.0" stroke-linejoin="round" stroke-linecap="butt" d="m279.9449 120.55905c-106.99213 0 -213.98425 28.48819 -213.98425 56.97638" fill-rule="evenodd"/><path fill="#000000" fill-opacity="0.0" d="m41.27034 111.149605l117.32283 0l0 25.448814l-117.32283 0z" fill-rule="evenodd"/><path fill="#0097a7" d="m55.36409 125.54336q1.28125 0 2.0 1.0q0.734375 1.0 0.734375 2.7499924q0 1.8125 -0.75 2.796875q-0.75 0.984375 -2.046875 0.984375q-1.28125 0 -2.0 -0.921875l-0.140625 0l-0.328125 0.796875l-1.515625 0l0 -10.124992l1.984375 0l0 2.359375q0 0.4375 -0.078125 1.4375l0.078125 0q0.6875 -1.078125 2.0625 -1.078125zm-0.640625 1.578125q-0.734375 0 -1.078125 0.453125q-0.328125 0.45311737 -0.34375 1.4999924l0 0.21875q0 1.15625 0.34375 1.671875q0.34375 0.5 1.109375 0.5q0.609375 0 0.96875 -0.5625q0.359375 -0.5625 0.359375 -1.625q0 -1.078125 -0.375 -1.6093674q-0.359375 -0.546875 -0.984375 -0.546875zm9.074829 -1.578125q1.28125 0 2.0 1.0q0.734375 1.0 0.734375 2.7499924q0 1.8125 -0.75 2.796875q-0.75 0.984375 -2.046875 0.984375q-1.28125 0 -2.0 -0.921875l-0.140625 0l-0.328125 0.796875l-1.515625 0l0 -10.124992l1.984375 0l0 2.359375q0 0.4375 -0.078125 1.4375l0.078125 0q0.6875 -1.078125 2.0625 -1.078125zm-0.640625 1.578125q-0.734375 0 -1.078125 0.453125q-0.328125 0.45311737 -0.34375 1.4999924l0 0.21875q0 1.15625 0.34375 1.671875q0.34375 0.5 1.109375 0.5q0.609375 0 0.96875 -0.5625q0.359375 -0.5625 0.359375 -1.625q0 -1.078125 -0.375 -1.6093674q-0.359375 -0.546875 -0.984375 -0.546875zm7.793579 -3.8125q1.375 0 2.203125 0.625q0.84375 0.625 0.84375 1.671875q0 0.734375 -0.40625 1.3125q-0.40625 0.5625 -1.3125 1.0q1.078125 0.5781174 1.53125 1.2031174q0.46875 0.625 0.46875 1.359375q0 1.171875 -0.921875 1.890625q-0.90625 0.703125 -2.40625 0.703125q-1.5625 0 -2.453125 -0.65625q-0.890625 -0.671875 -0.890625 -1.890625q0 -0.8125 0.421875 -1.4375q0.4375 -0.625 1.40625 -1.1093674q-0.8125 -0.515625 -1.171875 -1.09375q-0.359375 -0.59375 -0.359375 -1.296875q0 -1.015625 0.84375 -1.640625q0.84375 -0.640625 2.203125 -0.640625zm-1.484375 7.1093674q0 0.5625 0.390625 0.875q0.390625 0.3125 1.0625 0.3125q0.75 0 1.125 -0.3125q0.375 -0.328125 0.375 -0.859375q0 -0.4375 -0.375 -0.8125q-0.359375 -0.390625 -1.1875 -0.8125q-1.390625 0.640625 -1.390625 1.609375zm1.46875 -5.6406174q-0.515625 0 -0.828125 0.265625q-0.3125 0.265625 -0.3125 0.703125q0 0.390625 0.25 0.703125q0.25 0.3125 0.90625 0.640625q0.640625 -0.296875 0.890625 -0.609375q0.25 -0.3125 0.25 -0.734375q0 -0.4375 -0.328125 -0.703125q-0.3125 -0.265625 -0.828125 -0.265625zm7.6636505 5.4062424l0 -1.625l3.5 0l0 1.625l-3.5 0zm8.960571 -3.0156174l-1.71875 0l0 5.7812424l-1.984375 0l0 -5.7812424l-1.09375 0l0 -0.953125l1.09375 -0.546875l0 -0.53125q0 -1.234375 0.609375 -1.8125q0.609375 -0.578125 1.96875 -0.578125q1.015625 0 1.828125 0.3125l-0.515625 1.453125q-0.59375 -0.1875 -1.109375 -0.1875q-0.421875 0 -0.609375 0.25q-0.1875 0.25 -0.1875 0.640625l0 0.453125l1.71875 0l0 1.5zm1.0513763 -3.375q0 -0.96875 1.078125 -0.96875q1.09375 0 1.09375 0.96875q0 0.46875 -0.28125 0.71875q-0.265625 0.25 -0.8125 0.25q-1.078125 0 -1.078125 -0.96875zm2.078125 9.156242l-1.984375 0l0 -7.2812424l1.984375 0l0 7.2812424zm4.0674286 0l-1.984375 0l0 -10.124992l1.984375 0l0 10.124992zm5.0830536 -5.9999924q-0.625 0 -0.984375 0.40625q-0.359375 0.390625 -0.40625 1.1249924l2.78125 0q-0.015625 -0.7343674 -0.390625 -1.1249924q-0.359375 -0.40625 -1.0 -0.40625zm0.28125 6.1249924q-1.75 0 -2.75 -0.96875q-0.984375 -0.96875 -0.984375 -2.734375q0 -1.8437424 0.90625 -2.8281174q0.921875 -1.0 2.546875 -1.0q1.53125 0 2.390625 0.875q0.859375 0.875 0.859375 2.4218674l0 0.96875l-4.6875 0q0.03125 0.84375 0.5 1.328125q0.46875 0.46875 1.3125 0.46875q0.65625 0 1.234375 -0.140625q0.59375 -0.140625 1.234375 -0.4375l0 1.53125q-0.515625 0.265625 -1.109375 0.390625q-0.59375 0.125 -1.453125 0.125zm12.117966 -7.5312424q0.390625 0 0.65625 0.046875l-0.140625 1.859375q-0.25 -0.0625 -0.59375 -0.0625q-0.9375 0 -1.46875 0.5q-0.53125 0.48436737 -0.53125 1.3593674l0 3.703125l-1.984375 0l0 -7.2812424l1.5 0l0.296875 1.234375l0.09375 0q0.34375 -0.625 0.90625 -0.984375q0.578125 -0.375 1.265625 -0.375zm7.1460724 7.4062424l-0.28125 -0.9375l-0.09375 0q-0.328125 0.515625 -0.921875 0.796875q-0.578125 0.265625 -1.328125 0.265625q-1.28125 0 -1.9375 -0.6875q-0.640625 -0.6875 -0.640625 -1.96875l0 -4.7499924l1.984375 0l0 4.2499924q0 0.796875 0.28125 1.1875q0.28125 0.390625 0.890625 0.390625q0.828125 0 1.203125 -0.546875q0.375 -0.5625 0.375 -1.859375l0 -3.4218674l1.984375 0l0 7.2812424l-1.515625 0zm5.587723 0l-1.984375 0l0 -10.124992l1.984375 0l0 10.124992zm5.0830536 -5.9999924q-0.625 0 -0.984375 0.40625q-0.359375 0.390625 -0.40625 1.1249924l2.78125 0q-0.015625 -0.7343674 -0.390625 -1.1249924q-0.359375 -0.40625 -1.0 -0.40625zm0.28125 6.1249924q-1.75 0 -2.75 -0.96875q-0.984375 -0.96875 -0.984375 -2.734375q0 -1.8437424 0.90625 -2.8281174q0.921875 -1.0 2.546875 -1.0q1.53125 0 2.390625 0.875q0.859375 0.875 0.859375 2.4218674l0 0.96875l-4.6875 0q0.03125 0.84375 0.5 1.328125q0.46875 0.46875 1.3125 0.46875q0.65625 0 1.234375 -0.140625q0.59375 -0.140625 1.234375 -0.4375l0 1.53125q-0.515625 0.265625 -1.109375 0.390625q-0.59375 0.125 -1.453125 0.125zm9.671402 -2.28125q0 1.109375 -0.78125 1.703125q-0.78125 0.578125 -2.328125 0.578125q-0.796875 0 -1.359375 -0.109375q-0.5625 -0.09375 -1.046875 -0.3125l0 -1.640625q0.5625 0.265625 1.25 0.4375q0.6875 0.171875 1.21875 0.171875q1.078125 0 1.078125 -0.625q0 -0.234375 -0.140625 -0.375q-0.140625 -0.140625 -0.5 -0.328125q-0.34375 -0.1875 -0.9375 -0.4375q-0.828125 -0.34375 -1.234375 -0.640625q-0.390625 -0.3125 -0.578125 -0.6875q-0.171875 -0.390625 -0.171875 -0.9531174q0 -0.984375 0.75 -1.5q0.765625 -0.53125 2.140625 -0.53125q1.3125 0 2.5625 0.5625l-0.609375 1.4375q-0.546875 -0.234375 -1.03125 -0.375q-0.46875 -0.15625 -0.953125 -0.15625q-0.875 0 -0.875 0.46875q0 0.265625 0.28125 0.46875q0.28125 0.18749237 1.234375 0.5781174q0.859375 0.34375 1.25 0.640625q0.390625 0.296875 0.578125 0.6875q0.203125 0.390625 0.203125 0.9375z" fill-rule="nonzero"/><path fill="#000000" fill-opacity="0.0" d="m266.0105 212.65355l-98.645676 3.4960632" fill-rule="evenodd"/><path stroke="#0097a7" stroke-width="2.0" stroke-linejoin="round" stroke-linecap="butt" stroke-dasharray="2.0,6.0" d="m266.0105 212.65355l-86.6532 3.071045" fill-rule="evenodd"/><path fill="#0097a7" stroke="#0097a7" stroke-width="2.0" stroke-linecap="butt" d="m179.2403 212.42319l-8.953491 3.6228638l9.1875 2.9799194z" fill-rule="evenodd"/></g></svg>